<svg xmlns:rdf="http://www.w3.org/1999/02/22-rdf-syntax-ns#" xmlns="http://www.w3.org/2000/svg" height="264.5" viewBox="0 0 174.87062 264.5" width="174.87" version="1.1" xmlns:cc="http://creativecommons.org/ns#" xmlns:xlink="http://www.w3.org/1999/xlink" xmlns:dc="http://purl.org/dc/elements/1.1/">
 <defs>
  <linearGradient id="a" y2="263" gradientUnits="userSpaceOnUse" x2="180" gradientTransform="matrix(0.664 0 0 1.0084 -26.355 -.41672)" y1="-65.789" x1="183.12">
   <stop stop-color="#bbdefb" stop-opacity="0" offset="0"/>
   <stop stop-color="#3f51b5" stop-opacity=".73469" offset="1"/>
  </linearGradient>
 </defs>
 <rect opacity="0.97" ry="0" height="191.6" width="174.46" y="73.196" x=".20457" fill="url(#a)"/>
 <g fill="#eee" fill-rule="evenodd">
  <path d="m54.363 34.25v-1l1-1h1l1-1h1v-1l1-1 1-1v-1h1v-1l1-1h1v-2l1-1v-1l1-1v-1h1l1-1 1-1h1 1l1-1v-3l1-1h2v-1h2v-1-1l1-1 1-1v-1h1v-1l1-2 1-1 1-1h1l1-1h3l2 1 1 1 1 1 1 1 1 1v1l1 1h1v1l1 1 1 1 1 1h1l1-1 1 1h2v1l1 2 1 3 2 1 1 2h1 1l1 1 1 2 2 1 1 1v2l1 1v3l1 1h2l1 1v1z"/>
  <path d="m40.363 73.25v-2-1l1-1v-1l2-2 1-1v-1h1v-1l2-2v-2-5l1-2 1-1 1-2 1-1v-1l2-2 1-1v-4h66v4l1 3 1 2 1 1 2 1 1 2 1 1v2h2v1l1 1 2 2 1 3v4l3 3 2 1 1.2023 1.8873z"/>
  <path d="m40.363 79.25v7l1 4-1 8 1 1v2h1v8l1 1h47.274 46.726v-2l1-3v-3l1-4-1-7 2-2-1-2 1-4-1-4z"/>
  <path d="m43.363 116.25v3l1 1v2l-1 2 1 3 1 3 1 1v5l1 2v4c0 1 1 2 1 2v4h82l1-1v-1l2-2 1-4v-4l1-3v-5l1-3v-2l1-2v-3-2z"/>
  <path d="m48.363 154.25 1 2s-0.48243 3 0 4 1.5166 3 1.5166 3l4.4834 5v5l1 4v4l1 1 2 3h61v-1l2-1-1-2 1-1v-3l1-3v-5l2-1 1.4798-3 0.52021-2.5262v-2.4738l2-3 1-1 1-2z"/>
  <path d="m59.363 191.25v2l2 3-1 3v9l1 2v3h1v3l1 1v3l1 2h48l1-3 1-2 1-1.5192 1-1.9743v-3.0084l1-3.498v-4l1-3-1-2v-1l2-2v-3l1-1z"/>
  <path d="m65.363 228.25v2.5061c0 1.4939 1 1.9743 1 1.9743l1 3.5196-1 4 1 1 1 1v1l2 1v1l2 1s0 2 1 2 1 1 1 1v3l1 2 2 3 2 3 2 1 2 2 1 1h5l2-1 2-1 1.5151-1 1.4849-0.50347 1-1.4965 1-0.47776 2-1.5222 2-2v-2h2l1-3 1-2v-3-3l1-4v-3l2-3 3-2v-2z"/>
 </g>
</svg>
