<?xml version="1.0" encoding="UTF-8" standalone="no"?>
<!-- Created with Inkscape (http://www.inkscape.org/) -->

<svg
   xmlns:dc="http://purl.org/dc/elements/1.1/"
   xmlns:cc="http://creativecommons.org/ns#"
   xmlns:rdf="http://www.w3.org/1999/02/22-rdf-syntax-ns#"
   xmlns:svg="http://www.w3.org/2000/svg"
   xmlns="http://www.w3.org/2000/svg"
   xmlns:sodipodi="http://sodipodi.sourceforge.net/DTD/sodipodi-0.dtd"
   xmlns:inkscape="http://www.inkscape.org/namespaces/inkscape"
   width="900"
   height="900"
   viewBox="0 0 900.00001 900.00001"
   id="svg4152"
   version="1.1"
   inkscape:version="0.91 r13725"
   sodipodi:docname="v_squared_logo.svg">
  <defs
     id="defs4154" />
  <sodipodi:namedview
     id="base"
     pagecolor="#ffffff"
     bordercolor="#666666"
     borderopacity="1.0"
     inkscape:pageopacity="0.0"
     inkscape:pageshadow="2"
     inkscape:zoom="1.1831511"
     inkscape:cx="336.70548"
     inkscape:cy="399.34787"
     inkscape:document-units="px"
     inkscape:current-layer="layer1"
     showgrid="true"
     units="px"
     borderlayer="true"
     showguides="true"
     inkscape:guide-bbox="true"
     inkscape:window-width="1920"
     inkscape:window-height="1017"
     inkscape:window-x="-8"
     inkscape:window-y="-8"
     inkscape:window-maximized="1"
     inkscape:showpageshadow="false">
    <sodipodi:guide
       position="-230.44034,300"
       orientation="0,1"
       id="guide4700"
       inkscape:label=""
       inkscape:color="rgb(0,0,255)" />
    <sodipodi:guide
       position="-319.34118,600.00001"
       orientation="0,1"
       id="guide4702"
       inkscape:label=""
       inkscape:color="rgb(0,0,255)" />
    <sodipodi:guide
       position="300,720.56471"
       orientation="1,0"
       id="guide4704"
       inkscape:label=""
       inkscape:color="rgb(0,0,255)" />
    <sodipodi:guide
       position="600.00001,816.48404"
       orientation="1,0"
       id="guide4706"
       inkscape:label=""
       inkscape:color="rgb(0,0,255)" />
    <sodipodi:guide
       position="450,793.08908"
       orientation="1,0"
       id="guide4708"
       inkscape:label=""
       inkscape:color="rgb(0,106,7)" />
    <sodipodi:guide
       position="750.00001,677.28404"
       orientation="1,0"
       id="guide4710"
       inkscape:label=""
       inkscape:color="rgb(0,0,255)" />
    <sodipodi:guide
       position="150,677.28404"
       orientation="1,0"
       id="guide4712"
       inkscape:label=""
       inkscape:color="rgb(0,0,255)" />
    <inkscape:grid
       type="xygrid"
       id="grid4714"
       color="#143fc2"
       opacity="0.70588235"
       empcolor="#183f96"
       empopacity="0.25098039" />
    <sodipodi:guide
       position="-50.000001,750.00001"
       orientation="0,1"
       id="guide4716"
       inkscape:label=""
       inkscape:color="rgb(0,0,255)" />
    <sodipodi:guide
       position="-190,450"
       orientation="0,1"
       id="guide4718"
       inkscape:label=""
       inkscape:color="rgb(4,100,14)" />
    <sodipodi:guide
       position="-110,150"
       orientation="0,1"
       id="guide4720" />
    <sodipodi:guide
       position="-110,162"
       orientation="0,1"
       id="guide4722"
       inkscape:label=""
       inkscape:color="rgb(0,0,255)" />
    <sodipodi:guide
       position="342,460.00001"
       orientation="1,0"
       id="guide4724"
       inkscape:label=""
       inkscape:color="rgb(233,18,204)" />
    <sodipodi:guide
       position="558.00001,710.00001"
       orientation="1,0"
       id="guide4726"
       inkscape:label=""
       inkscape:color="rgb(255,0,184)" />
    <sodipodi:guide
       position="290,270"
       orientation="-0.70710678,0.70710678"
       id="guide4903" />
  </sodipodi:namedview>
  <metadata
     id="metadata4157">
    <rdf:RDF>
      <cc:Work
         rdf:about="">
        <dc:format>image/svg+xml</dc:format>
        <dc:type
           rdf:resource="http://purl.org/dc/dcmitype/StillImage" />
        <dc:title></dc:title>
      </cc:Work>
    </rdf:RDF>
  </metadata>
  <g
     inkscape:label="Layer 1"
     inkscape:groupmode="layer"
     id="layer1"
     transform="translate(0,-152.36216)">
    <path
       style="fill:none;fill-rule:evenodd;stroke:#000000;stroke-width:1.0173161px;stroke-linecap:butt;stroke-linejoin:miter;stroke-opacity:1"
       d="m 292.94301,1026.9854 25.27682,-81.15457 c 0,0 -18.82674,2.77933 -25.35588,-2.66056 -4.6168,-3.84661 -6.87398,-11.55776 -5.08698,-17.29518 1.78703,-5.73738 8.02369,-10.80299 14.00823,-11.34764 8.46338,-0.77025 22.38212,12.20818 22.38212,12.20818 l 25.86708,-85.46409 90.51642,-0.2998 c 0,0 -7.85855,-15.3028 -5.25305,-22.5769 2.16101,-6.0332 8.84662,-11.6863 15.25512,-11.7006 6.19824,-0.014 12.65926,5.4356 14.80509,11.2505 2.71919,7.3687 -5.00291,23.026 -5.00291,23.026 l 89.70203,0.1762 -0.21512,-0.4901 25.32518,81.00429 c 0,0 -18.82674,-2.77933 -25.35588,2.66056 -4.6168,3.84661 -6.87398,11.55776 -5.08698,17.29518 1.78703,5.73738 8.02369,10.80299 14.00823,11.34764 8.46338,0.77025 22.38212,-12.20818 22.38212,-12.20818 l 26.71537,86.07877 z"
       id="path4730"
       inkscape:connector-curvature="0"
       sodipodi:nodetypes="ccaaacccaaaccccaaaccc" />
    <path
       style="fill:none;fill-rule:evenodd;stroke:#000000;stroke-width:1.0173161px;stroke-linecap:butt;stroke-linejoin:miter;stroke-opacity:1"
       d="m 22.73292,443.02472 81.15457,25.27682 c 0,0 -2.77933,-18.82674 2.66056,-25.35588 3.84661,-4.6168 11.55776,-6.87398 17.29518,-5.08698 5.73738,1.78703 10.80299,8.02369 11.34764,14.00823 0.77025,8.46338 -12.20818,22.38212 -12.20818,22.38212 l 85.46409,25.86708 0.2998,90.51642 c 0,0 15.3028,-7.85855 22.5769,-5.25305 6.0332,2.16101 11.6863,8.84662 11.7006,15.25512 0.014,6.19824 -5.4356,12.65926 -11.2505,14.80509 -7.3687,2.71919 -23.026,-5.00291 -23.026,-5.00291 l -0.1762,89.70203 0.4901,-0.21512 -81.00429,25.32518 c 0,0 2.77933,-18.82674 -2.66056,-25.35588 -3.84661,-4.6168 -11.55776,-6.87398 -17.29518,-5.08698 -5.73738,1.78703 -10.80299,8.02369 -11.34764,14.00823 -0.77025,8.46338 12.20818,22.38212 12.20818,22.38212 l -86.07877,26.71536 z"
       id="path4730-8"
       inkscape:connector-curvature="0"
       sodipodi:nodetypes="ccaaacccaaaccccaaaccc" />
    <path
       style="fill:none;fill-rule:evenodd;stroke:#000000;stroke-width:1.0173161px;stroke-linecap:butt;stroke-linejoin:miter;stroke-opacity:1"
       d="m 606.90479,174.00056 -25.27682,81.15457 c 0,0 18.82674,-2.77933 25.35588,2.66056 4.6168,3.84661 6.87398,11.55776 5.08698,17.29518 -1.78703,5.73738 -8.02369,10.80299 -14.00823,11.34764 -8.46338,0.77025 -22.38212,-12.20818 -22.38212,-12.20818 l -25.86708,85.46409 -90.51642,0.2998 c 0,0 7.85855,15.3028 5.25305,22.5769 -2.16101,6.0332 -8.84662,11.6863 -15.25512,11.7006 -6.19824,0.014 -12.65926,-5.4356 -14.80509,-11.2505 -2.71919,-7.3687 5.00291,-23.026 5.00291,-23.026 l -89.70203,-0.1762 0.21512,0.4901 -25.32518,-81.00429 c 0,0 18.82674,2.77933 25.35588,-2.66056 4.6168,-3.84661 6.87398,-11.55776 5.08698,-17.29518 -1.78703,-5.73738 -8.02369,-10.80299 -14.00823,-11.34764 -8.46338,-0.77025 -22.38212,12.20818 -22.38212,12.20818 l -26.71537,-86.07877 z"
       id="path4730-5"
       inkscape:connector-curvature="0"
       sodipodi:nodetypes="ccaaacccaaaccccaaaccc" />
    <path
       style="fill:none;fill-rule:evenodd;stroke:#000000;stroke-width:1.0173161px;stroke-linecap:butt;stroke-linejoin:miter;stroke-opacity:1"
       d="m 876.09843,757.57143 -81.15457,-25.27682 c 0,0 2.77933,18.82674 -2.66056,25.35588 -3.84661,4.6168 -11.55776,6.87398 -17.29518,5.08698 -5.73738,-1.78703 -10.80299,-8.02369 -11.34764,-14.00823 -0.77025,-8.46338 12.20818,-22.38212 12.20818,-22.38212 l -85.46409,-25.86708 -0.2998,-90.51642 c 0,0 -15.3028,7.85855 -22.5769,5.25305 -6.0332,-2.16101 -11.6863,-8.84662 -11.7006,-15.25512 -0.014,-6.19824 5.4356,-12.65926 11.2505,-14.80509 7.3687,-2.71919 23.026,5.00291 23.026,5.00291 l 0.1762,-89.70203 -0.4901,0.21512 81.00429,-25.32518 c 0,0 -2.77933,18.82674 2.66056,25.35588 3.84661,4.6168 11.55776,6.87398 17.29518,5.08698 5.73738,-1.78703 10.80299,-8.02369 11.34764,-14.00823 0.77025,-8.46338 -12.20818,-22.38212 -12.20818,-22.38212 l 86.07877,-26.71537 z"
       id="path4730-1"
       inkscape:connector-curvature="0"
       sodipodi:nodetypes="ccaaacccaaaccccaaaccc" />
    <path
       style="fill:none;fill-rule:evenodd;stroke:#000000;stroke-width:1px;stroke-linecap:butt;stroke-linejoin:miter;stroke-opacity:1"
       d="m 323.90978,926.63134 c 0,0 -13.98652,-12.90534 -22.44575,-12.09083 -5.98162,0.57596 -12.1917,5.6742 -13.94862,11.42088 -1.75694,5.74666 0.54057,13.44591 5.17745,17.26827 6.55757,5.40562 25.36949,2.52775 25.36949,2.52775 l -25.75349,80.73929 -185.24679,0.326 c 0,0 -34.996751,-0.9863 -60.359275,-25.3625 C 21.34027,977.084 22.460484,927.02514 22.460484,927.02514 l -0.16845,-169.91595 86.359476,-25.56643 c 0,0 -12.905346,-13.98652 -12.090836,-22.44575 0.57596,-5.98162 5.674206,-12.1917 11.420886,-13.94862 5.74666,-1.75694 13.44591,0.54057 17.26827,5.17745 5.40562,6.55757 2.52775,25.36949 2.52775,25.36949 l 80.6379,-25.60831 63.73975,63.42315 c 0,0 6.29069,-17.96103 14.14216,-21.21321 5.55183,-2.29966 13.42849,-0.71365 17.67766,3.53553 4.24919,4.24918 5.83519,12.12583 3.53552,17.67768 -3.25217,7.85145 -21.21318,14.14213 -21.21318,14.14213 l 63.63961,63.63961 0.14312,-0.364 z"
       id="path4884-4-6-5"
       inkscape:connector-curvature="0"
       sodipodi:nodetypes="caaaccczcccaaacccaaacccc" />
    <path
       style="fill:none;fill-rule:evenodd;stroke:#000000;stroke-width:1px;stroke-linecap:butt;stroke-linejoin:miter;stroke-opacity:1"
       d="m 776.16911,726.48699 c 0,0 -12.9053,13.9865 -12.0908,22.4457 0.5759,5.9817 5.6742,12.1917 11.4209,13.9487 5.7466,1.7569 13.4459,-0.5406 17.2682,-5.1775 5.4057,-6.5576 2.5278,-25.3695 2.5278,-25.3695 l 80.7393,25.7535 0.326,185.24682 c 0,0 -0.9863,34.99669 -25.3625,60.35919 -24.3762,25.3626 -74.4351,24.2424 -74.4351,24.2424 l -169.91592,0.1684 -25.5664,-86.35949 c 0,0 -13.9866,12.9054 -22.4458,12.0909 -5.9816,-0.576 -12.1917,-5.6742 -13.9486,-11.4209 -1.757,-5.7467 0.5406,-13.4459 5.1774,-17.2683 6.5576,-5.4056 25.3695,-2.5277 25.3695,-2.5277 l -25.6083,-80.63792 63.4232,-63.7398 c 0,0 -17.9611,-6.2907 -21.2132,-14.1421 -2.2997,-5.5519 -0.7137,-13.4285 3.5355,-17.6777 4.2492,-4.2492 12.1258,-5.8352 17.6777,-3.5355 7.8514,3.2522 14.1421,21.2132 14.1421,21.2132 l 63.63962,-63.6396 -0.364,-0.1432 z"
       id="path4884-4-6-5-6"
       inkscape:connector-curvature="0"
       sodipodi:nodetypes="caaaccczcccaaacccaaacccc" />
    <path
       style="fill:none;fill-rule:evenodd;stroke:#000000;stroke-width:1px;stroke-linecap:butt;stroke-linejoin:miter;stroke-opacity:1"
       d="m 124.29719,474.65911 c 0,0 12.9053,-13.9865 12.0908,-22.4458 -0.576,-5.9816 -5.6742,-12.1917 -11.4209,-13.9486 -5.7467,-1.7569 -13.4459,0.5406 -17.2683,5.1775 -5.4056,6.5575 -2.5277,25.3695 -2.5277,25.3695 l -80.739295,-25.7535 -0.326,-185.24688 c 0,0 0.9863,-34.9967 25.3625,-60.3592 24.3762,-25.3626 74.435095,-24.2423 74.435095,-24.2423 l 169.9159,-0.1685 25.56643,86.3595 c 0,0 13.98652,-12.9054 22.44575,-12.0909 5.98162,0.576 12.1917,5.6743 13.94862,11.4209 1.75694,5.7467 -0.54057,13.4459 -5.17745,17.2683 -6.55757,5.4056 -25.36949,2.5278 -25.36949,2.5278 l 25.60831,80.63787 -63.42315,63.73971 c 0,0 17.96103,6.2907 21.21321,14.1422 2.29966,5.5518 0.71365,13.4285 -3.53553,17.6777 -4.24918,4.2491 -12.12583,5.8351 -17.67768,3.5355 -7.85145,-3.2522 -14.14213,-21.2132 -14.14213,-21.2132 l -63.63961,63.6396 0.364,0.1431 z"
       id="path4884-4-6-5-9"
       inkscape:connector-curvature="0"
       sodipodi:nodetypes="caaaccczcccaaacccaaacccc" />
    <path
       style="fill:none;fill-rule:evenodd;stroke:#000000;stroke-width:1px;stroke-linecap:butt;stroke-linejoin:miter;stroke-opacity:1"
       d="m 574.94708,274.95232 c 0,0 13.98652,12.90534 22.44575,12.09083 5.98162,-0.57596 12.1917,-5.6742 13.94862,-11.42088 1.75694,-5.74666 -0.54057,-13.44591 -5.17745,-17.26827 -6.55757,-5.40562 -25.36949,-2.52775 -25.36949,-2.52775 l 25.75349,-80.73929 185.24679,-0.326 c 0,0 34.99675,0.9863 60.35927,25.3625 25.36253,24.3762 24.24232,74.43506 24.24232,74.43506 l 0.16845,169.91595 -86.35948,25.56643 c 0,0 12.90535,13.98652 12.09084,22.44575 -0.57596,5.98162 -5.67421,12.1917 -11.42089,13.94862 -5.74666,1.75694 -13.44591,-0.54057 -17.26827,-5.17745 -5.40562,-6.55757 -2.52775,-25.36949 -2.52775,-25.36949 l -80.6379,25.60831 -63.73975,-63.42315 c 0,0 -6.29069,17.96103 -14.14216,21.21321 -5.55183,2.29966 -13.42849,0.71365 -17.67766,-3.53553 -4.24919,-4.24918 -5.83519,-12.12583 -3.53552,-17.67768 3.25217,-7.85145 21.21318,-14.14213 21.21318,-14.14213 l -63.63961,-63.63961 -0.14312,0.364 z"
       id="path4884-4-6-5-4"
       inkscape:connector-curvature="0"
       sodipodi:nodetypes="caaaccczcccaaacccaaacccc" />
    <path
       style="fill:none;fill-rule:evenodd;stroke:#000000;stroke-width:1px;stroke-linecap:butt;stroke-linejoin:miter;stroke-opacity:1"
       d="m 458.99197,359.42976 c 0,0 8.25218,17.14854 4.99999,25.00001 -2.29963,5.55184 -8.99075,10 -14.99999,10 -6.00925,0 -12.70036,-4.44816 -15,-10.00001 -3.25218,-7.85146 4.99999,-24.99999 4.99999,-24.99999 l -90,0 1.29757,-0.16194 -62.34204,63.47767 c 0,0 17.96103,6.29068 21.21321,14.14215 2.29966,5.55183 0.71365,13.42849 -3.53553,17.67766 -4.24918,4.24919 -12.12583,5.83519 -17.67768,3.53553 -7.85145,-3.25218 -14.14213,-21.21319 -14.14213,-21.21319 l -63.63961,63.63961 -0.99188,-0.1414 -0.99188,89.85861 c 0,0 17.14855,-8.25218 25.00002,-4.99999 5.55184,2.29963 10,8.99075 9.99999,14.99999 1e-5,6.00925 -4.44815,12.70036 -10.00001,15 -7.85145,3.25218 -24.99998,-4.99999 -24.99998,-4.99999 l 0,90 0.26731,-0.17508 63.90692,63.46454 c 0,0 6.29069,-17.96103 14.14216,-21.21321 5.55183,-2.29966 13.42849,-0.71365 17.67766,3.53553 4.24919,4.24918 5.83519,12.12583 3.53552,17.67768 -3.25217,7.85145 -21.21318,14.14213 -21.21318,14.14213 l 63.63961,63.63961 0.0498,-0.10165 90.04979,-0.10165 c 0,0 -8.25218,-17.14853 -5,-25 2.29964,-5.55183 8.99075,-10 15,-10 6.00925,0 12.70036,4.44817 15,10 3.25218,7.85147 -5,25 -5,25 l 90,0 -0.29168,0.28429 63.34792,-63.35532 c 0,0 -17.96101,-6.29067 -21.2132,-14.14214 -2.29965,-5.55183 -0.71365,-13.42849 3.53553,-17.67767 4.24918,-4.24918 12.12584,-5.83518 17.67767,-3.53553 7.85147,3.25219 14.14214,21.2132 14.14214,21.2132 l 63.63961,-63.63961 -0.10018,0.66344 -0.10017,-89.33657 c 0,0 -17.14853,8.25218 -25,4.99999 -5.55184,-2.29963 -10,-8.99075 -10,-14.99999 0,-6.00925 4.44816,-12.70036 10,-15 7.85147,-3.25218 25,4.99999 25,4.99999 l 0,-90 0.63738,0.24684 -63.00222,-63.39277 c 0,0 -6.29067,17.96102 -14.14215,21.2132 -5.55182,2.29966 -13.42848,0.71365 -17.67766,-3.53553 -4.24918,-4.24918 -5.83519,-12.12583 -3.53553,-17.67767 3.25219,-7.85146 21.21319,-14.14214 21.21319,-14.14214 l -63.63961,-63.63961 -0.86832,-0.61451 z"
       id="path4884-4-9"
       inkscape:connector-curvature="0"
       sodipodi:nodetypes="caaaccccaaaccccaaaccccaaaccccaaaccccaaaccccaaaccccaaacccc" />
    <flowRoot
       xml:space="preserve"
       id="flowRoot5017"
       style="font-style:normal;font-weight:normal;font-size:40px;line-height:125%;font-family:sans-serif;letter-spacing:0px;word-spacing:0px;fill:#000000;fill-opacity:1;stroke:none;stroke-width:1px;stroke-linecap:butt;stroke-linejoin:miter;stroke-opacity:1"
       transform="translate(16.904011,138.19496)"><flowRegion
         id="flowRegion5019"><rect
           id="rect5021"
           width="120"
           height="60"
           x="400"
           y="100" /></flowRegion><flowPara
         id="flowPara5023"
         style="font-style:normal;font-variant:normal;font-weight:normal;font-stretch:normal;font-family:roboto;-inkscape-font-specification:roboto">DIY</flowPara></flowRoot>    <flowRoot
       transform="translate(277.45516,186.36216)"
       xml:space="preserve"
       id="flowRoot5017-5"
       style="font-style:normal;font-weight:normal;font-size:40px;line-height:125%;font-family:sans-serif;letter-spacing:0px;word-spacing:0px;fill:#000000;fill-opacity:1;stroke:none;stroke-width:1px;stroke-linecap:butt;stroke-linejoin:miter;stroke-opacity:1"><flowRegion
         id="flowRegion5019-0"><rect
           id="rect5021-0"
           width="240"
           height="60"
           x="400"
           y="100" /></flowRegion><flowPara
         id="flowPara5023-7"
         style="font-style:normal;font-variant:normal;font-weight:normal;font-stretch:normal;font-family:roboto;-inkscape-font-specification:roboto">Retail</flowPara></flowRoot>    <flowRoot
       transform="translate(312.34699,479.03092)"
       xml:space="preserve"
       id="flowRoot5017-5-5"
       style="font-style:normal;font-weight:normal;font-size:40px;line-height:125%;font-family:sans-serif;letter-spacing:0px;word-spacing:0px;fill:#000000;fill-opacity:1;stroke:none;stroke-width:1px;stroke-linecap:butt;stroke-linejoin:miter;stroke-opacity:1"><flowRegion
         id="flowRegion5019-0-2"><rect
           id="rect5021-0-7"
           width="240"
           height="60"
           x="400"
           y="100" /></flowRegion><flowPara
         id="flowPara5023-7-4"
         style="font-style:normal;font-variant:normal;font-weight:normal;font-stretch:normal;font-family:roboto;-inkscape-font-specification:roboto">Maker</flowPara></flowRoot>    <flowRoot
       transform="translate(268.14872,760.455)"
       xml:space="preserve"
       id="flowRoot5017-5-53"
       style="font-style:normal;font-weight:normal;font-size:40px;line-height:125%;font-family:sans-serif;letter-spacing:0px;word-spacing:0px;fill:#000000;fill-opacity:1;stroke:none;stroke-width:1px;stroke-linecap:butt;stroke-linejoin:miter;stroke-opacity:1"><flowRegion
         id="flowRegion5019-0-6"><rect
           id="rect5021-0-5"
           width="240"
           height="60"
           x="400"
           y="100" /></flowRegion><flowPara
         id="flowPara5023-7-49"
         style="font-style:normal;font-variant:normal;font-weight:normal;font-stretch:normal;font-family:roboto;-inkscape-font-specification:roboto">Apps</flowPara></flowRoot>    <flowRoot
       transform="translate(11.566477,814.2815)"
       xml:space="preserve"
       id="flowRoot5017-5-4"
       style="font-style:normal;font-weight:normal;font-size:40px;line-height:125%;font-family:sans-serif;letter-spacing:0px;word-spacing:0px;fill:#000000;fill-opacity:1;stroke:none;stroke-width:1px;stroke-linecap:butt;stroke-linejoin:miter;stroke-opacity:1"><flowRegion
         id="flowRegion5019-0-4"><rect
           id="rect5021-0-6"
           width="240"
           height="60"
           x="400"
           y="100" /></flowRegion><flowPara
         id="flowPara5023-7-6"
         style="font-style:normal;font-variant:normal;font-weight:normal;font-stretch:normal;font-family:roboto;-inkscape-font-specification:roboto">Org</flowPara></flowRoot>    <flowRoot
       transform="translate(-280.53266,750.06474)"
       xml:space="preserve"
       id="flowRoot5017-5-0"
       style="font-style:normal;font-weight:normal;font-size:40px;line-height:125%;font-family:sans-serif;letter-spacing:0px;word-spacing:0px;fill:#000000;fill-opacity:1;stroke:none;stroke-width:1px;stroke-linecap:butt;stroke-linejoin:miter;stroke-opacity:1"><flowRegion
         id="flowRegion5019-0-41"><rect
           id="rect5021-0-77"
           width="240"
           height="60"
           x="400"
           y="100" /></flowRegion><flowPara
         id="flowPara5023-7-3"
         style="font-style:normal;font-variant:normal;font-weight:normal;font-stretch:normal;font-family:roboto;-inkscape-font-specification:roboto">Plan</flowPara></flowRoot>    <flowRoot
       transform="translate(-363.62865,477.94712)"
       xml:space="preserve"
       id="flowRoot5017-5-05"
       style="font-style:normal;font-weight:normal;font-size:40px;line-height:125%;font-family:sans-serif;letter-spacing:0px;word-spacing:0px;fill:#000000;fill-opacity:1;stroke:none;stroke-width:1px;stroke-linecap:butt;stroke-linejoin:miter;stroke-opacity:1"><flowRegion
         id="flowRegion5019-0-60"><rect
           id="rect5021-0-9"
           width="240"
           height="60"
           x="400"
           y="100" /></flowRegion><flowPara
         id="flowPara5023-7-5"
         style="font-style:normal;font-variant:normal;font-weight:normal;font-stretch:normal;font-family:roboto;-inkscape-font-specification:roboto">Spread</flowPara></flowRoot>    <flowRoot
       transform="translate(-343.09599,186.87635)"
       xml:space="preserve"
       id="flowRoot5017-5-9"
       style="font-style:normal;font-weight:normal;font-size:40px;line-height:125%;font-family:sans-serif;letter-spacing:0px;word-spacing:0px;fill:#000000;fill-opacity:1;stroke:none;stroke-width:1px;stroke-linecap:butt;stroke-linejoin:miter;stroke-opacity:1"><flowRegion
         id="flowRegion5019-0-0"><rect
           id="rect5021-0-1"
           width="240"
           height="60"
           x="400"
           y="100" /></flowRegion><flowPara
         id="flowPara5023-7-35"
         style="font-style:normal;font-variant:normal;font-weight:normal;font-stretch:normal;font-family:roboto;-inkscape-font-specification:roboto">Products</flowPara></flowRoot>    <flowRoot
       transform="translate(-39.963035,543.85428)"
       xml:space="preserve"
       id="flowRoot5017-5-04"
       style="font-style:normal;font-weight:normal;font-size:40px;line-height:125%;font-family:sans-serif;letter-spacing:0px;word-spacing:0px;fill:#000000;fill-opacity:1;stroke:none;stroke-width:1px;stroke-linecap:butt;stroke-linejoin:miter;stroke-opacity:1"><flowRegion
         id="flowRegion5019-0-1"><rect
           id="rect5021-0-66"
           width="240"
           height="60"
           x="400"
           y="100" /></flowRegion><flowPara
         id="flowPara5023-7-2"
         style="font-style:normal;font-variant:normal;font-weight:normal;font-stretch:normal;font-family:roboto;-inkscape-font-specification:roboto">Standard</flowPara></flowRoot>  </g>
</svg>
