<?xml version="1.0" encoding="UTF-8" standalone="no"?>
<!-- Created with Inkscape (http://www.inkscape.org/) -->

<svg
   xmlns:dc="http://purl.org/dc/elements/1.1/"
   xmlns:cc="http://creativecommons.org/ns#"
   xmlns:rdf="http://www.w3.org/1999/02/22-rdf-syntax-ns#"
   xmlns:svg="http://www.w3.org/2000/svg"
   xmlns="http://www.w3.org/2000/svg"
   xmlns:sodipodi="http://sodipodi.sourceforge.net/DTD/sodipodi-0.dtd"
   xmlns:inkscape="http://www.inkscape.org/namespaces/inkscape"
   width="297mm"
   height="210mm"
   id="svg3039"
   version="1.1"
   inkscape:version="0.48.2 r9819"
   sodipodi:docname="Logo_ViCase.svg"
   inkscape:export-filename="C:\Users\PC06\Pictures\Art\Logo\Logo_ViSquared_C.png"
   inkscape:export-xdpi="90"
   inkscape:export-ydpi="90">
  <defs
     id="defs3041">
    <clipPath
       id="clipPath3062"
       clipPathUnits="userSpaceOnUse">
      <path
         id="path3064"
         d="m 0,595.276 841.89,0 L 841.89,0 0,0 0,595.276 z" />
    </clipPath>
  </defs>
  <sodipodi:namedview
     inkscape:document-units="mm"
     pagecolor="#ffffff"
     bordercolor="#666666"
     borderopacity="1.0"
     inkscape:pageopacity="0.0"
     inkscape:pageshadow="2"
     inkscape:zoom="0.9999999994"
     inkscape:cx="607.1665373"
     inkscape:cy="553.0421778"
     inkscape:current-layer="layer1"
     id="namedview3043"
     showgrid="false"
     inkscape:window-width="1680"
     inkscape:window-height="1028"
     inkscape:window-x="-8"
     inkscape:window-y="-8"
     inkscape:window-maximized="1"
     showguides="false"
     inkscape:guide-bbox="true"
     inkscape:snap-global="false">
    <sodipodi:guide
       orientation="0,1"
       position="417.5000004,327.0000003"
       id="guide3031" />
    <sodipodi:guide
       orientation="0,1"
       position="581.5000006,553.5000006"
       id="guide3033" />
    <sodipodi:guide
       orientation="0,1"
       position="722.0000004,534.0000003"
       id="guide3780" />
    <sodipodi:guide
       orientation="0,1"
       position="718.0000004,429.0000003"
       id="guide3798" />
  </sodipodi:namedview>
  <metadata
     id="metadata3045">
    <rdf:RDF>
      <cc:Work
         rdf:about="">
        <dc:format>image/svg+xml</dc:format>
        <dc:type
           rdf:resource="http://purl.org/dc/dcmitype/StillImage" />
        <dc:title></dc:title>
      </cc:Work>
    </rdf:RDF>
  </metadata>
  <g
     inkscape:label="Layer 1"
     inkscape:groupmode="layer"
     id="layer1">
    <rect
       style="fill:#e6e6e6;fill-opacity:1;stroke:#000070;stroke-width:0.7200000286;stroke-linecap:round;stroke-miterlimit:4;stroke-opacity:1;stroke-dasharray:none"
       id="rect3014"
       width="473.5602417"
       height="429.7120972"
       x="-1088.360352"
       y="23.04537201"
       ry="52.97606277"
       rx="52.97606277" />
    <path
       inkscape:connector-curvature="0"
       d="m 346.8838585,259.5280796 c -11.5184847,4.3506117 -27.1316628,6.2975347 -31.6798824,-9.9926931 0,0 15.8561386,5.7986559 32.6441654,-6.3850005 0,0 -29.2837524,1.1824075 -25.220374,-18.034144 0,0 16.135813,10.8900271 32.9065627,3.4036059 0,0 -24.5314462,-6.271619 -16.1736069,-25.190139 0,0 6.4530294,13.3865807 19.0912919,10.5919956 12.0475986,-2.6574473 18.1648027,-7.6106009 23.0186125,1.7104416 19.992945,-10.6157518 23.6038771,-10.4408202 35.9743432,-2.6380106 -19.6700776,4.4369977 -31.2511922,19.3342523 -36.2486186,28.8680202 L 271.3263996,451.1634006 217.5684316,308.9689104 c -14.0215172,-37.0887218 -62.3846835,-47.5176639 -70.9293324,3.5288655 -5.767341,-4.2944608 -7.3168887,-11.3575909 -8.120278,-16.9456812 -4.6605212,-32.6268882 30.7285573,-55.0213622 63.8402866,-33.4723905 -43.9769204,-40.0992717 -85.8687002,-15.7870298 -85.7628775,36.9515841 -14.5614293,-11.1265085 -14.182411,-25.2527687 -14.182411,-30.5978985 0,-27.2752795 19.7769802,-41.6121054 33.3050178,-47.7660235 17.5784582,-8.0025771 36.9882981,-7.0814871 61.282183,11.7052943 -16.627133,-29.6962453 -43.1303382,-42.7696769 -71.3882577,-33.0372214 C 92.07882188,211.7868921 83.39703531,237.1325257 87.11918933,280.642962 76.24104034,271.8618316 72.36447146,264.2080377 69.33988388,254.2391007 49.61365539,154.0573307 191.8794139,119.4025326 231.9365724,234.1705679 l 43.5903433,124.885988 c 5.5751324,15.9738394 11.3997041,15.9803184 19.4465541,0.4783622 l 51.9103887,-100.0068385 z"
       style="fill:#000000;fill-opacity:1;fill-rule:evenodd;stroke:none"
       id="path3066" />
    <g
       style="font-size:62.6089477539px;font-style:normal;font-variant:normal;font-weight:bold;font-stretch:normal;line-height:125%;letter-spacing:0px;word-spacing:0px;fill:#000000;fill-opacity:1;stroke:none;font-family:Adobe Garamond Pro;-inkscape-font-specification:Adobe Garamond Pro Bold"
       id="text3027"
       transform="matrix(0.7770284433,0,0,0.7544133791,49.45259618,106.3660402)">
      <path
         d="m 493.1283878,332.6840244 c -0.1817102,25.686168 5.0839647,42.3129061 21.2493157,60.4966213 10.8305151,12.1827854 25.5220526,26.0351568 49.9872596,27.7137818 14.4685986,-0.3740512 24.9872386,-1.6869688 34.6371609,-3.8810475 9.6495803,-2.194082 12.9494623,0.456774 19.2034749,-0.4795527 2.9415478,-5.7236757 11.1185077,-15.4293806 16.9255473,-24.9032573 6.158523,-10.048017 10.6996049,-21.64715 14.1446702,-32.1144838 -0.726923,-1.8656077 -4.2275939,-3.3511384 -6.966484,-3.7494887 -2.7393171,-0.3982316 -7.6178922,2.8913721 -9.6859853,4.2119578 -11.3199693,15.4983557 -18.2293932,24.8742974 -29.2135863,33.0776081 -10.9845388,8.2033557 -12.7039032,8.8044271 -26.3713335,8.8742947 -10.5639565,0.4961236 -19.3573863,-3.9996551 -26.0752383,-11.0124771 -10.1771593,-10.6240219 -20.114183,-26.9438845 -20.7429711,-53.7829834 0.2048845,-21.1529245 6.8786761,-44.3873782 17.7523125,-63.3448708 10.8048426,-18.8375548 27.8074054,-38.7233989 45.1557642,-49.0000495 17.177424,-10.175394 36.8868618,-21.5085798 54.0885206,-20.918102 15.5190361,0.8133255 16.1613165,4.1410021 22.8136479,12.0087352 6.6518926,7.8681324 9.1953475,20.3058969 7.6303726,37.3133309 0.9710421,1.8448614 2.9694705,2.7672126 5.9952913,2.7670564 3.0253546,1.629e-4 5.2753317,-0.9221883 6.749938,-2.7670564 2.2776857,-8.8949363 6.2299807,-16.5962734 9.6859853,-24.9566746 3.5898906,-8.6852872 9.8463768,-14.042042 13.4661669,-22.434251 -5.1011403,-2.2777111 -20.0639171,-9.4453085 -31.4533263,-12.3104118 -11.3898722,-2.8646592 -17.5046389,-4.4298612 -34.3443425,-4.6956108 -25.3438901,0.4264693 -45.5214541,3.4618085 -63.3778879,11.9305074 -17.1139744,8.1168908 -32.5382708,16.9910249 -43.2919623,26.9759821 -12.9828782,11.4806641 -24.079046,26.3361092 -33.2885366,44.5663801 -9.209585,18.2305575 -14.100838,38.3685578 -14.6737738,60.4140616 z"
         style="font-size:335.405090332px;font-style:italic;text-align:start;writing-mode:lr-tb;text-anchor:start;fill:#000000;fill-opacity:1;font-family:Adobe Garamond Pro Bold;-inkscape-font-specification:'Adobe Garamond Pro Bold, Bold Italic'"
         id="path3038"
         inkscape:connector-curvature="0"
         sodipodi:nodetypes="cscscccccscscsscccccccccccsc" />
    </g>
    <path
       style="fill:#999999;fill-opacity:1;stroke:#000070;stroke-width:0.7200000286;stroke-linecap:round;stroke-miterlimit:4;stroke-opacity:1;stroke-dasharray:none"
       d="m -1740.39971,484.9970253 199.250001,-378.7500005"
       id="path3035"
       inkscape:connector-curvature="0"
       sodipodi:nodetypes="cc" />
    <path
       id="path3003"
       style="fill:#000000;fill-opacity:1;fill-rule:nonzero;stroke:none"
       d="m 438.2613152,271.6553993 c -6.2974899,12.180322 -19.1056118,18.5248549 -28.8848094,18.5248549 -11.3276474,0 -14.0869756,-7.6152563 -8.7077257,-18.0172468 5.7732751,-11.1662416 18.5860056,-18.524855 28.8836574,-18.524855 10.8091931,0 13.9567859,7.8650858 8.7088777,18.0172469 m -64.8759937,117.5487685 c -8.6072787,16.8916899 -8.7498154,19.0642962 -1.1554119,19.7877785 l 4.3376539,0.4826814 c 1.1953654,1.4469644 -1.6326942,6.9983406 -4.5428204,8.445305 -8.2012648,-0.4837612 -17.4888328,-0.7234822 -28.5905054,-0.7234822 -10.8522332,0 -21.1138026,0.239721 -29.3226261,0.7234822 -1.4340066,-1.4469644 1.3951328,-6.9983406 4.0612188,-8.445305 l 4.8311334,-0.4826814 c 8.3330034,-0.7234823 10.4062659,-2.8960886 19.0113849,-19.7877785 l 18.5632578,-36.4321887 c 4.9153598,-9.6536283 11.3903996,-18.5497169 8.2848252,-21.4468852 l -2.2708702,-2.1693668 c -0.952405,-1.4491241 1.2601548,-5.7910972 3.6875996,-7.2380616 12.9406132,-3.1379691 33.3870844,-9.6525485 42.843105,-13.9966813 1.9296458,0 3.00947,0.7234822 3.2362331,2.1726063 -4.1692013,7.2380616 -9.8231608,17.8570528 -15.3551001,28.7125255 z"
       inkscape:connector-curvature="0" />
    <path
       inkscape:connector-curvature="0"
       id="path3789"
       style="font-size:303.8663330078px;font-style:normal;font-variant:normal;font-weight:bold;font-stretch:normal;line-height:125%;letter-spacing:0px;word-spacing:0px;fill:#000000;fill-opacity:1;stroke:none;font-family:Adobe Garamond Pro;-inkscape-font-specification:Adobe Garamond Pro Bold"
       d="m 594.4841327,377.3659179 c -9.2685618,2.7750728 -16.2750838,5.7986165 -21.019587,9.0706404 -4.7445625,3.2720873 -8.2945992,7.2896758 -10.6501208,12.0527775 -1.8065619,3.5050548 -2.8071931,6.7460472 -3.0018963,9.7229869 -0.1947351,2.9769596 0.3423442,5.5345467 1.6112392,7.6727692 1.1455583,1.8690083 2.9304478,3.2875888 5.3546743,4.2557455 2.4241804,0.9681528 5.441808,1.4548199 9.0528915,1.4600029 3.4859451,-0.072481 7.0009113,-0.7351762 10.5449087,-1.9880865 3.5439124,-1.2529131 7.0758761,-2.6611396 10.5959018,-4.2246835 3.2030337,-1.4030493 5.8338938,-2.5731204 7.8925883,-3.5102169 2.0585726,-0.9370841 3.5244907,-1.42375 4.3977591,-1.4599992 0.7287526,0.051783 1.2478656,0.445259 1.5573414,1.1804301 0.3093418,0.7351841 0.5093193,1.5014238 0.599933,2.2987211 0.7302042,2.7129124 2.1764119,4.6802876 4.3386273,5.9021315 2.1620714,1.2218406 4.7577402,1.8224079 7.7870141,1.8017034 6.394739,-0.3779463 12.2675675,-2.0450399 17.6185032,-5.0012855 5.3507413,-2.9562425 8.3417189,-4.9339705 8.9729417,-5.9331897 0.4577994,-0.8956695 0.6873026,-1.6515563 0.6885114,-2.2676629 9.933e-4,-0.6160873 -0.245375,-0.9370794 -0.7391099,-0.9629775 -0.3967622,0.025898 -0.9759295,0.222635 -1.737503,0.5902113 -0.7617823,0.3675964 -1.5626438,0.7507175 -2.4025866,1.1493642 -0.9589891,0.3883058 -2.0488358,0.7300072 -3.2695432,1.0251052 -1.2209052,0.2951139 -2.4618222,0.4504337 -3.7227546,0.4659597 -4.6502452,-0.1863792 -6.6923003,-2.3608478 -6.1261712,-6.5234122 0.5659511,-4.1625366 2.5652252,-9.194874 5.9978284,-15.0970274 l 24.0973731,-43.2408794 c 5.2638754,-9.3656711 7.03762,-16.5414152 5.3212393,-21.5272536 -1.7166296,-4.9856505 -7.0384807,-7.5018181 -15.965569,-7.5485099 -10.1064764,0.4660605 -21.8968607,3.9452082 -35.3711883,10.4374536 -13.4744737,6.4924273 -22.4185122,13.2022121 -26.832142,20.1293748 -1.1495686,2.2780818 -0.5961511,3.4377976 1.6602529,3.4791512 1.9934496,-0.010287 4.5708338,-0.4244708 7.7321607,-1.242554 3.1612155,-0.817946 6.1283657,-1.9776619 8.9014598,-3.4791513 1.3529154,-0.7558185 2.5583656,-1.8534092 3.6163543,-3.2927755 1.0578524,-1.4392155 2.1532106,-3.1580776 3.2860782,-5.1565917 2.4508337,-3.836302 5.771806,-6.6631101 9.9629274,-8.4804328 4.1909587,-1.8171447 8.1203622,-2.7179949 11.7882229,-2.7025531 7.3416498,0.3262646 11.0392422,2.7803081 11.0927883,7.362138 0.053338,4.5819985 -1.364879,9.334761 -4.2546539,14.2583015 l -6.2248913,11.431497 c -0.9121337,1.8535313 -1.940643,3.3653037 -3.0855306,4.5353221 -1.1450688,1.1701264 -2.7806909,2.0606226 -4.9068709,2.671491 z m -10.9753205,18.1412883 c 2.4497552,-4.6957904 6.1727354,-8.3509671 11.1689545,-10.9655409 4.9961174,-2.6145067 11.7675016,-5.089257 20.314173,-7.4242583 2.6834729,-0.7558496 5.0683716,-1.3564192 7.1547033,-1.8017107 2.0861752,-0.4452059 3.5306578,-0.6730047 4.3334526,-0.6833973 0.7747498,-0.036198 1.272462,0.160539 1.4931374,0.5902113 0.2205073,0.4297582 -0.011828,1.3099003 -0.6970064,2.6404291 l -8.162379,14.6621372 c -1.4076672,2.5834965 -2.7682831,4.8097363 -4.081853,6.6787259 -1.3137123,1.8690276 -3.065407,3.5361198 -5.2550891,5.0012817 -2.1120314,1.3461115 -5.0316575,2.6922091 -8.7588869,4.0382968 -3.7273439,1.3461075 -6.9434422,2.0709312 -9.6483047,2.1744732 -6.0105206,-0.3572272 -9.1810085,-2.3142483 -9.5114729,-5.8710694 -0.3305404,-3.556794 0.2196495,-6.569984 1.6505712,-9.0395786 z" />
    <path
       inkscape:connector-curvature="0"
       id="path3791"
       style="font-size:303.8663330078px;font-style:normal;font-variant:normal;font-weight:bold;font-stretch:normal;line-height:125%;letter-spacing:0px;word-spacing:0px;fill:#000000;fill-opacity:1;stroke:none;font-family:Adobe Garamond Pro;-inkscape-font-specification:Adobe Garamond Pro Bold"
       d="m 747.0810357,316.7292826 c -9.6956657,0.046702 -18.9723956,2.5007453 -27.8302176,7.362138 -8.8579652,4.8615807 -15.7840521,11.8509382 -20.7782807,20.9680932 -3.3999064,6.7409248 -4.1218507,12.5187964 -2.1658354,17.333632 1.9559192,4.8149471 5.5519435,9.2260081 10.7880829,13.2331964 3.5018481,2.5213894 6.2543051,5.5552897 8.2573789,9.10171 2.0029394,3.5464869 1.6446699,8.1335769 -1.0748074,13.7612836 -2.9252723,5.3378195 -6.6661617,9.3243423 -11.2226788,11.9595804 -4.5566272,2.6352535 -9.1374586,3.9502891 -13.7425087,3.9451108 -6.9198458,-0.2122654 -11.215647,-2.7698525 -12.8874151,-7.672769 -1.671826,-4.9028938 -1.6961042,-10.8775023 -0.072835,-17.9238434 -0.319794,-0.7351484 -1.0991905,-1.0664957 -2.3381924,-0.9940431 -1.2390548,0.072513 -2.4082125,0.4866974 -3.5074777,1.242554 -2.4856778,4.3386072 -4.7136599,8.9567617 -6.6839674,13.8544771 -1.970335,4.8977459 -3.1223184,8.6461133 -3.4559555,11.2451137 1.7968015,2.4851094 4.5707595,4.3489374 8.3218824,5.5914893 3.7510821,1.2425487 8.5414547,1.8638262 14.3711339,1.8638347 9.5365568,-3.5e-6 19.0337843,-2.360855 28.4917121,-7.0825615 9.4577997,-4.7216994 16.8260832,-11.8042489 22.104873,-21.2476698 4.2898133,-8.651249 5.3005873,-15.5163537 3.0323251,-20.5953344 -2.2684397,-5.0788899 -5.8821191,-9.3967601 -10.8410498,-12.9536236 -3.3495078,-2.3970308 -6.169762,-5.1824205 -8.4607702,-8.3561775 -2.2911477,-3.1736234 -2.2548452,-7.2636923 0.1089078,-12.2702189 2.4333531,-4.5455889 5.7781523,-8.1904103 10.0344109,-10.9344753 4.256099,-2.7438849 8.8545873,-4.1521115 13.7954804,-4.2246835 5.0668301,0.072577 8.5910421,1.729314 10.572646,4.9702159 1.9813961,3.2410805 2.5854116,7.6314335 1.8120487,13.1710725 0.3482445,0.7300743 1.2271877,1.009648 2.6368316,0.8387221 1.4094278,-0.1707756 2.6484894,-0.6988598 3.7171915,-1.5842544 1.7685406,-3.4324806 3.2205554,-6.9426939 4.3560541,-10.5306508 1.135265,-3.5877823 1.8657308,-6.7873538 2.1913991,-9.5987241 -0.6853342,-1.0560693 -2.7853656,-2.0501115 -6.3000999,-2.9821297 -3.5149599,-0.9318183 -7.9250446,-1.4288394 -13.2302669,-1.4910647 z" />
    <path
       inkscape:connector-curvature="0"
       id="path3793"
       style="font-size:303.8663330078px;font-style:normal;font-variant:normal;font-weight:bold;font-stretch:normal;line-height:125%;letter-spacing:0px;word-spacing:0px;fill:#000000;fill-opacity:1;stroke:none;font-family:Adobe Garamond Pro;-inkscape-font-specification:Adobe Garamond Pro Bold"
       d="m 839.7310021,354.5029242 c 5.1197674,0.020772 8.8290777,-0.082776 11.1279408,-0.3106423 2.2986179,-0.2277386 3.7798313,-0.7040492 4.4436457,-1.4289333 0.5131662,-0.4866018 1.1415583,-1.2528438 1.8851782,-2.2987286 0.7433619,-1.0457494 1.5723004,-2.4332655 2.4868186,-4.1625522 3.9198837,-7.7555253 4.2611352,-14.5481469 1.0237538,-20.3778856 -3.2376453,-5.8295543 -10.1881888,-8.8945178 -20.8516507,-9.1948996 -15.3528501,0.429819 -30.301773,5.969534 -44.846814,16.6191616 -14.5451748,10.649797 -26.0338547,23.8312102 -34.4660737,39.5442792 -2.919135,5.5242318 -5.0076356,11.0639467 -6.2655048,16.6191616 -1.257921,5.5552722 -1.320192,10.7843478 -0.1868118,15.6872424 1.127573,4.8149043 3.9686892,8.7289443 8.5233565,11.7421317 4.5545998,3.0131897 10.8665609,4.566382 18.935903,4.6595812 6.7179626,0.093193 14.7203184,-1.6463816 24.0070898,-5.2187269 9.2866175,-3.5723417 18.3172043,-9.5365949 27.0917878,-17.8927776 0.4609945,-1.1493423 0.4497616,-2.0191304 -0.0337,-2.6093671 -0.4836697,-0.5901922 -1.4438156,-0.7144462 -2.8804392,-0.3727625 -6.292638,4.7476106 -11.7353959,7.9886017 -16.3282908,9.7229832 -4.5930663,1.7344073 -8.8933438,2.5524219 -12.9008473,2.4540461 -13.1601634,-0.3675784 -20.9504953,-4.9753789 -23.3710194,-13.8234152 -2.4206223,-8.8479877 -0.2827875,-19.7306783 6.4135127,-32.6481045 1.4428663,-2.9976032 2.744155,-4.8924968 3.9038696,-5.6846864 1.1595961,-0.7920645 3.264193,-1.1337659 6.3137971,-1.0251052 z m -44.3134562,-7.4553241 c -0.8227887,-0.020636 -1.2543776,-0.1656013 -1.2947677,-0.4348938 -0.040523,-0.2691495 0.027745,-0.5383693 0.2047987,-0.8076602 2.6883374,-4.488651 7.9038635,-9.1171607 15.6465939,-13.8855427 7.7425667,-4.7682098 15.4896449,-7.3465061 23.2412592,-7.7348968 6.989469,0.2175425 11.07094,1.9571163 12.2444241,5.2187268 1.1732501,3.2617879 0.741872,6.7409356 -1.2941355,10.4374536 -0.8411847,1.5791529 -1.58656,2.7078032 -2.2361302,3.3859541 -0.649799,0.6783007 -1.2242779,1.1235506 -1.723439,1.3357511 -1.192595,0.7559592 -3.7638765,1.3565251 -7.713851,1.8016995 -3.9501829,0.445318 -10.4270048,0.6731206 -19.4304855,0.6834084 z" />
  </g>
</svg>
