<?xml version="1.0" encoding="UTF-8" standalone="no"?>
<!-- Created with Inkscape (http://www.inkscape.org/) -->

<svg
   xmlns:dc="http://purl.org/dc/elements/1.1/"
   xmlns:cc="http://creativecommons.org/ns#"
   xmlns:rdf="http://www.w3.org/1999/02/22-rdf-syntax-ns#"
   xmlns:svg="http://www.w3.org/2000/svg"
   xmlns="http://www.w3.org/2000/svg"
   xmlns:sodipodi="http://sodipodi.sourceforge.net/DTD/sodipodi-0.dtd"
   xmlns:inkscape="http://www.inkscape.org/namespaces/inkscape"
   width="297mm"
   height="210mm"
   id="svg3039"
   version="1.1"
   inkscape:version="0.48.2 r9819"
   sodipodi:docname="Logo-ViDock-brown.svg"
   inkscape:export-filename="C:\Users\PC06\Pictures\Art\Logo\Village\ViDock\Logo-ViDock-brown.png"
   inkscape:export-xdpi="49.85286713"
   inkscape:export-ydpi="49.85286713">
  <defs
     id="defs3041">
    <clipPath
       id="clipPath3062"
       clipPathUnits="userSpaceOnUse">
      <path
         id="path3064"
         d="m 0,595.276 841.89,0 L 841.89,0 0,0 0,595.276 z" />
    </clipPath>
  </defs>
  <sodipodi:namedview
     inkscape:document-units="mm"
     pagecolor="#ffffff"
     bordercolor="#666666"
     borderopacity="1.0"
     inkscape:pageopacity="0.0"
     inkscape:pageshadow="2"
     inkscape:zoom="0.43415836"
     inkscape:cx="490"
     inkscape:cy="380"
     inkscape:current-layer="layer1"
     id="namedview3043"
     showgrid="false"
     inkscape:window-width="943"
     inkscape:window-height="641"
     inkscape:window-x="41"
     inkscape:window-y="162"
     inkscape:window-maximized="0" />
  <metadata
     id="metadata3045">
    <rdf:RDF>
      <cc:Work
         rdf:about="">
        <dc:format>image/svg+xml</dc:format>
        <dc:type
           rdf:resource="http://purl.org/dc/dcmitype/StillImage" />
        <dc:title></dc:title>
      </cc:Work>
    </rdf:RDF>
  </metadata>
  <g
     inkscape:label="Layer 1"
     inkscape:groupmode="layer"
     id="layer1">
    <g
       transform="matrix(1.0798242,0,0,-1.0798242,65.561579,667.7459)"
       inkscape:label="logo_ViDock"
       id="g3056"
       style="fill:#905c34;fill-opacity:1">
      <g
         id="g3058"
         style="fill:#905c34;fill-opacity:1">
        <g
           clip-path="url(#clipPath3062)"
           id="g3060"
           style="fill:#905c34;fill-opacity:1">
          <path
             id="path3066"
             style="fill:#905c34;fill-opacity:1;fill-rule:evenodd;stroke:none"
             d="m 260.526,378.041 c -10.667,-4.029 -25.126,-5.832 -29.338,9.254 0,0 14.684,-5.37 30.231,5.913 0,0 -27.119,-1.095 -23.356,16.701 0,0 14.943,-10.085 30.474,-3.152 0,0 -22.718,5.808 -14.978,23.328 0,0 5.976,-12.397 17.68,-9.809 11.157,2.461 16.822,7.048 21.317,-1.584 18.515,9.831 21.859,9.669 33.315,2.443 -18.216,-4.109 -28.941,-17.905 -33.569,-26.734 L 190.554,200.572 140.77,332.255 c -12.985,34.347 -57.773,44.005 -65.686,-3.268 -5.341,3.977 -6.776,10.518 -7.52,15.693 -4.316,30.215 28.457,50.954 59.121,30.998 -40.726,37.135 -79.521,14.62 -79.423,-34.22 -13.485,10.304 -13.134,23.386 -13.134,28.336 0,25.259 18.315,38.536 30.843,44.235 16.279,7.411 34.254,6.558 56.752,-10.84 C 106.325,430.69 81.781,442.797 55.612,433.784 24.557,422.253 16.517,398.781 19.964,358.487 9.89,366.619 6.3,373.707 3.499,382.939 -14.769,475.715 116.98,507.808 154.076,401.524 L 194.444,285.87 c 5.163,-14.793 10.557,-14.799 18.009,-0.443 l 48.073,92.614 z"
             inkscape:connector-curvature="0" />
          <path
             id="path3068"
             style="fill:#905c34;fill-opacity:1;fill-rule:nonzero;stroke:none"
             d="m 345.728,358.953 c -5.466,-10.726 -16.583,-16.313 -25.071,-16.313 -9.832,0 -12.227,6.706 -7.558,15.866 5.011,9.833 16.132,16.313 25.07,16.313 9.382,0 12.114,-6.926 7.559,-15.866 M 292.477,257.951 c -7.971,-15.643 -8.103,-17.655 -1.07,-18.325 l 4.017,-0.447 c 1.107,-1.34 -1.512,-6.481 -4.207,-7.821 -7.595,0.448 -16.196,0.67 -26.477,0.67 -10.05,0 -19.553,-0.222 -27.155,-0.67 -1.328,1.34 1.292,6.481 3.761,7.821 l 4.474,0.447 c 7.717,0.67 9.637,2.682 17.606,18.325 l 17.191,33.739 c 4.552,8.94 5.918,11.622 3.042,14.305 l -2.103,2.009 c -0.882,1.342 1.167,5.363 3.415,6.703 11.984,2.906 30.919,8.939 39.676,12.962 1.787,0 2.787,-0.67 2.997,-2.012 -3.861,-6.703 -9.097,-16.537 -14.22,-26.59 l -20.947,-41.116 z"
             inkscape:connector-curvature="0" />
          <path
             id="path3070"
             style="fill:#905c34;fill-opacity:1;fill-rule:nonzero;stroke:none"
             d="m 373.393,272.476 c -6.26,-12.291 -9.913,-20.335 -8.283,-25.028 1.747,-4.469 7.205,-6.48 15.248,-6.48 38.658,0 69.374,34.413 84.858,64.803 20.496,40.223 11.452,64.133 -28.995,64.133 -6.033,0 -10.849,-1.117 -13.102,-2.905 -2.247,-1.79 -4.636,-6.032 -8.166,-12.962 l -41.56,-81.561 z m 4.14,70.835 c 10.816,21.229 12.53,25.476 2.821,26.593 l -4.017,0.447 c -1.666,1.116 1.637,7.599 4.432,7.822 19.339,1.117 37.227,2.01 60.913,2.01 18.326,0 35.738,-1.786 48.309,-7.373 23.921,-10.503 26.574,-36.872 12.343,-64.806 -15.259,-29.941 -41.854,-54.075 -74.043,-66.813 -19.065,-7.599 -38.872,-10.503 -61.889,-10.503 -10.5,0 -20.988,1.34 -29.033,1.34 -10.731,0 -22.239,-0.222 -35.202,-0.67 -1.106,1.34 1.628,6.705 3.984,7.821 l 7.498,1.117 c 10.851,1.565 13.104,3.352 23.578,23.912 l 40.306,79.103 z"
             inkscape:connector-curvature="0" />
          <path
             id="path3072"
             style="fill:#905c34;fill-opacity:1;fill-rule:nonzero;stroke:none"
             d="m 533.355,279.848 c -11.957,-23.462 -13.349,-40.669 -0.388,-40.669 12.738,0 24.385,14.526 34.407,34.635 10.822,21.678 14.127,40.447 1.392,40.447 -9.832,0 -22.999,-10.053 -35.411,-34.413 m -34.686,-4.917 c 16.061,31.956 50.305,49.609 76.675,49.609 26.365,0 41.855,-16.09 25.802,-47.596 -16.622,-32.626 -48.39,-48.045 -75.875,-48.045 -26.592,0 -42.085,15.196 -26.602,46.032"
             inkscape:connector-curvature="0" />
          <path
             id="path3074"
             style="fill:#905c34;fill-opacity:1;fill-rule:nonzero;stroke:none"
             d="m 716.645,320.744 c 1.657,-2.461 1.847,-5.587 -1.228,-11.624 -3.415,-6.702 -9.621,-12.735 -12.3,-12.735 -1.119,0 -2.898,0.446 -3.006,1.116 -1.702,8.94 -6.431,16.76 -14.475,16.76 -14.526,0 -30.772,-16.536 -38.626,-31.953 -8.995,-17.654 -6.708,-35.53 13.847,-35.53 8.271,0 16.338,2.68 25.467,10.947 2.794,0.226 5.129,-1.339 3.308,-4.914 -10.609,-11.173 -30.508,-23.912 -51.739,-23.912 -28.154,0 -37.809,18.773 -24.373,45.139 16.167,31.733 51.43,50.502 81.598,50.502 7.595,0 16.632,-1.563 21.527,-3.796"
             inkscape:connector-curvature="0" />
          <path
             id="path3076"
             style="fill:#905c34;fill-opacity:1;fill-rule:nonzero;stroke:none"
             d="m 758.434,356.273 c 4.553,8.936 5.806,11.396 2.703,14.078 l -2.657,2.235 c -0.881,1.34 1.167,5.364 3.415,6.704 10.297,2.233 26.662,7.597 40.561,12.512 1.342,0 2.679,-0.447 3.005,-1.563 -5.117,-9.162 -10.122,-18.549 -17.293,-32.626 l -35.75,-70.165 c -1.256,-2.461 -0.926,-3.131 1.532,-3.131 3.798,0 9.06,1.117 16.148,6.257 l 14.965,10.949 c 6.865,5.142 9.233,7.597 9.918,8.94 0.569,1.119 -1.21,2.011 -3.106,2.235 l -5.135,0.893 c -0.984,2.013 1.741,6.927 4.432,7.823 l 5.366,0 c 10.499,0 29.617,1.117 43.825,3.126 1.666,-1.116 -0.613,-6.033 -3.088,-7.82 l -7.947,-1.563 c -4.703,-0.896 -10.534,-3.129 -18.959,-7.823 -11.794,-6.48 -16.854,-9.833 -21.577,-12.961 -1.797,-1.339 -2.478,-2.232 -2.817,-2.905 -0.343,-0.67 -0.58,-2.011 -0.372,-3.796 0.376,-7.154 4.555,-37.543 7.523,-42.683 1.651,-2.904 5.325,-4.021 10.569,-5.141 l 3.008,-0.669 c 0.992,-1.564 -2.19,-6.927 -4.879,-7.821 -6.698,0.448 -14.853,0.67 -27.812,0.67 -13.187,0 -21.344,-0.222 -27.829,-0.67 -1.665,1.118 0.276,5.811 3.091,7.821 l 3.247,0.669 c 2.46,0.448 4.032,0.896 4.487,1.79 0.456,0.893 0.265,4.468 -0.156,7.15 l -3.57,24.134 c -0.311,2.459 -1.642,3.352 -3.878,3.352 -1.562,0 -3.251,-1.117 -5.415,-5.362 l -6.6,-12.961 c -7.97,-15.643 -7.992,-17.431 -0.625,-18.325 l 3.347,-0.447 c 1.107,-1.34 -1.513,-6.481 -4.207,-7.821 -6.924,0.448 -16.195,0.67 -26.477,0.67 -10.276,0 -19.553,-0.222 -27.601,-0.67 -1.328,1.34 1.291,6.481 3.761,7.821 l 4.474,0.447 c 8.501,0.894 10.307,2.682 18.276,18.325 l 50.097,98.322 z"
             inkscape:connector-curvature="0" />
        </g>
      </g>
    </g>
  </g>
</svg>
