<?xml version="1.0" encoding="UTF-8" standalone="no"?>
<!-- Created with Inkscape (http://www.inkscape.org/) -->

<svg
   xmlns:dc="http://purl.org/dc/elements/1.1/"
   xmlns:cc="http://creativecommons.org/ns#"
   xmlns:rdf="http://www.w3.org/1999/02/22-rdf-syntax-ns#"
   xmlns:svg="http://www.w3.org/2000/svg"
   xmlns="http://www.w3.org/2000/svg"
   xmlns:sodipodi="http://sodipodi.sourceforge.net/DTD/sodipodi-0.dtd"
   xmlns:inkscape="http://www.inkscape.org/namespaces/inkscape"
   id="svg3336"
   version="1.1"
   inkscape:version="0.91 r13725"
   xml:space="preserve"
   width="2125.9875"
   height="2834.6499"
   viewBox="0 0 2125.9875 2834.6499"
   sodipodi:docname="ViStand-Packaging.svg"><metadata
     id="metadata3342"><rdf:RDF><cc:Work
         rdf:about=""><dc:format>image/svg+xml</dc:format><dc:type
           rdf:resource="http://purl.org/dc/dcmitype/StillImage" /><dc:title></dc:title></cc:Work></rdf:RDF></metadata><defs
     id="defs3340"><clipPath
       clipPathUnits="userSpaceOnUse"
       id="clipPath3362"><path
         d="m 0,2267.72 1700.79,0 L 1700.79,0 0,0 0,2267.72 Z"
         id="path3364"
         inkscape:connector-curvature="0" /></clipPath><clipPath
       clipPathUnits="userSpaceOnUse"
       id="clipPath3422"><path
         d="m 0,2267.72 1700.79,0 L 1700.79,0 0,0 0,2267.72 Z"
         id="path3424"
         inkscape:connector-curvature="0" /></clipPath><clipPath
       clipPathUnits="userSpaceOnUse"
       id="clipPath3454"><path
         d="m 0,2267.72 1700.79,0 L 1700.79,0 0,0 0,2267.72 Z"
         id="path3456"
         inkscape:connector-curvature="0" /></clipPath><clipPath
       clipPathUnits="userSpaceOnUse"
       id="clipPath3474"><path
         d="m 0,2267.72 1700.79,0 L 1700.79,0 0,0 0,2267.72 Z"
         id="path3476"
         inkscape:connector-curvature="0" /></clipPath><clipPath
       clipPathUnits="userSpaceOnUse"
       id="clipPath3536"><path
         d="m 0,2267.72 1700.79,0 L 1700.79,0 0,0 0,2267.72 Z"
         id="path3538"
         inkscape:connector-curvature="0" /></clipPath><clipPath
       clipPathUnits="userSpaceOnUse"
       id="clipPath3570"><path
         d="m 0,2267.72 1700.79,0 L 1700.79,0 0,0 0,2267.72 Z"
         id="path3572"
         inkscape:connector-curvature="0" /></clipPath><clipPath
       clipPathUnits="userSpaceOnUse"
       id="clipPath3592"><path
         d="m 0,2267.72 1700.79,0 L 1700.79,0 0,0 0,2267.72 Z"
         id="path3594"
         inkscape:connector-curvature="0" /></clipPath><clipPath
       clipPathUnits="userSpaceOnUse"
       id="clipPath3608"><path
         d="m 0,2267.72 1700.79,0 L 1700.79,0 0,0 0,2267.72 Z"
         id="path3610"
         inkscape:connector-curvature="0" /></clipPath><clipPath
       clipPathUnits="userSpaceOnUse"
       id="clipPath3624"><path
         d="m 0,2267.72 1700.79,0 L 1700.79,0 0,0 0,2267.72 Z"
         id="path3626"
         inkscape:connector-curvature="0" /></clipPath><clipPath
       clipPathUnits="userSpaceOnUse"
       id="clipPath3640"><path
         d="m 0,2267.72 1700.79,0 L 1700.79,0 0,0 0,2267.72 Z"
         id="path3642"
         inkscape:connector-curvature="0" /></clipPath><clipPath
       clipPathUnits="userSpaceOnUse"
       id="clipPath3664"><path
         d="m 0,2267.72 1700.79,0 L 1700.79,0 0,0 0,2267.72 Z"
         id="path3666"
         inkscape:connector-curvature="0" /></clipPath><clipPath
       clipPathUnits="userSpaceOnUse"
       id="clipPath3696"><path
         d="m 0,2267.72 1700.79,0 L 1700.79,0 0,0 0,2267.72 Z"
         id="path3698"
         inkscape:connector-curvature="0" /></clipPath><clipPath
       clipPathUnits="userSpaceOnUse"
       id="clipPath3714"><path
         d="m 0,2267.72 1700.79,0 L 1700.79,0 0,0 0,2267.72 Z"
         id="path3716"
         inkscape:connector-curvature="0" /></clipPath><clipPath
       clipPathUnits="userSpaceOnUse"
       id="clipPath3794"><path
         d="m 0,2267.72 1700.79,0 L 1700.79,0 0,0 0,2267.72 Z"
         id="path3796"
         inkscape:connector-curvature="0" /></clipPath><clipPath
       clipPathUnits="userSpaceOnUse"
       id="clipPath3812"><path
         d="m 0,2267.72 1700.79,0 L 1700.79,0 0,0 0,2267.72 Z"
         id="path3814"
         inkscape:connector-curvature="0" /></clipPath></defs><sodipodi:namedview
     pagecolor="#ffffff"
     bordercolor="#666666"
     borderopacity="1"
     objecttolerance="10"
     gridtolerance="10"
     guidetolerance="10"
     inkscape:pageopacity="0"
     inkscape:pageshadow="2"
     inkscape:window-width="1920"
     inkscape:window-height="1017"
     id="namedview3338"
     showgrid="false"
     inkscape:zoom="0.415194"
     inkscape:cx="477.14173"
     inkscape:cy="1673.0451"
     inkscape:window-x="-8"
     inkscape:window-y="-8"
     inkscape:window-maximized="1"
     inkscape:current-layer="g3344" /><g
     id="g3344"
     inkscape:groupmode="layer"
     inkscape:label="ViStand-Package"
     transform="matrix(1.25,0,0,-1.25,0,2834.65)"><path
       d="m 1198.639,1357.86 -694.488,0 0,694.488 694.488,0 0,-694.488 z"
       style="fill:#b1845c;fill-opacity:1;fill-rule:nonzero;stroke:#373535;stroke-width:2;stroke-linecap:butt;stroke-linejoin:miter;stroke-miterlimit:10;stroke-dasharray:none;stroke-opacity:1"
       id="path3346"
       inkscape:connector-curvature="0" /><path
       d="m 1198.639,612.349 -694.488,0 0,694.488 694.488,0 0,-694.488 z"
       style="fill:#b1845c;fill-opacity:1;fill-rule:nonzero;stroke:#373535;stroke-width:2;stroke-linecap:butt;stroke-linejoin:miter;stroke-miterlimit:10;stroke-dasharray:none;stroke-opacity:1"
       id="path3348"
       inkscape:connector-curvature="0" /><path
       d="m 1249.867,1357.86 -51.024,0 0,694.488 51.024,0 0,-694.488 z"
       style="fill:#b1845c;fill-opacity:1;fill-rule:nonzero;stroke:#373535;stroke-width:2;stroke-linecap:butt;stroke-linejoin:miter;stroke-miterlimit:10;stroke-dasharray:none;stroke-opacity:1"
       id="path3350"
       inkscape:connector-curvature="0" /><path
       d="m 1198.639,2052.349 -694.488,0 0,51.024 694.488,0 0,-51.024 z"
       style="fill:#67462f;fill-opacity:1;fill-rule:nonzero;stroke:#373535;stroke-width:2;stroke-linecap:butt;stroke-linejoin:miter;stroke-miterlimit:10;stroke-dasharray:none;stroke-opacity:1"
       id="path3352"
       inkscape:connector-curvature="0" /><path
       d="m 1198.639,1306.837 -694.488,0 0,51.024 694.488,0 0,-51.024 z"
       style="fill:#b1845c;fill-opacity:1;fill-rule:nonzero;stroke:#373535;stroke-width:2;stroke-linecap:butt;stroke-linejoin:miter;stroke-miterlimit:10;stroke-dasharray:none;stroke-opacity:1"
       id="path3354"
       inkscape:connector-curvature="0" /><path
       d="m 504.151,1357.86 -51.024,0 0,694.488 51.024,0 0,-694.488 z"
       style="fill:#b1845c;fill-opacity:1;fill-rule:nonzero;stroke:#373535;stroke-width:2;stroke-linecap:butt;stroke-linejoin:miter;stroke-miterlimit:10;stroke-dasharray:none;stroke-opacity:1"
       id="path3356"
       inkscape:connector-curvature="0" /><g
       id="g3358"><g
         id="g3360"
         clip-path="url(#clipPath3362)"><g
           id="g3366"
           transform="translate(576.5291,1176.2699)"><path
             d="m 0,0 c 0.003,0.054 0.006,0.102 0.01,0.156 0.103,0.624 0.457,2.187 1.805,3.559 1.456,1.482 5.466,3.702 6.939,3.883 4.021,0.492 7.317,0.63 8.696,0.479 0.019,-10e-4 0.035,-0.002 0.054,-0.003 107.762,-3.013 215.524,-6.025 323.286,-9.038 0.028,-0.002 0.051,-0.003 0.08,-0.005 0.444,-0.056 2.195,-0.342 3.488,-1.924 1.389,-1.699 1.213,-3.626 1.175,-3.977 -0.798,-62.307 -1.596,-124.614 -2.393,-186.921 -0.013,-0.995 -0.153,-1.982 -0.436,-2.935 -0.269,-0.903 -0.617,-1.886 -1.072,-2.92 -0.707,-1.606 -1.496,-2.936 -2.215,-3.99 -0.023,-0.029 -0.042,-0.053 -0.065,-0.082 -0.423,-0.468 -1.27,-1.274 -2.593,-1.793 -1.229,-0.481 -2.313,-0.495 -2.917,-0.459 -29.77,1.431 -59.541,2.862 -89.312,4.293 -0.51,0.024 -0.927,-0.401 -0.893,-0.911 -0.324,-4.67 -0.376,-10.088 0.16,-16.078 0.377,-4.214 0.988,-8.073 1.704,-11.529 0.266,1.163 0.531,2.325 0.797,3.487 0.095,0.418 0.487,0.701 0.914,0.659 l 2.241,-0.217 c 0.428,-0.041 0.758,-0.394 0.771,-0.823 l 0.331,-10.799 c 0.005,-0.17 -0.041,-0.338 -0.131,-0.482 l -20.581,-32.644 c -0.156,-0.248 -0.429,-0.399 -0.722,-0.399 l -2.298,0 c -0.469,0 -0.85,0.378 -0.854,0.846 l -0.112,12.141 c 0,0.099 0.016,0.198 0.049,0.292 l 0.487,1.378 c 0.113,0.321 0.406,0.544 0.746,0.568 l 2.4,0.165 c 0.327,0.023 0.613,0.231 0.734,0.535 0.909,1.652 1.841,3.554 2.707,5.699 0.919,2.275 1.596,4.407 2.101,6.319 0.015,0.039 0.031,0.086 0.043,0.141 0.01,0.048 0.016,0.097 0.017,0.147 0.424,3.283 0.786,6.671 1.071,10.162 0.895,10.979 0.889,21.216 0.341,30.546 0.002,0.058 0.007,0.357 -0.225,0.608 -0.147,0.16 -0.354,0.264 -0.588,0.275 l -107.446,5.141 c -0.322,0.016 -0.593,-0.244 -0.598,-0.566 -0.139,-8.942 0.345,-15.401 1.098,-20.153 0.299,-1.885 1.349,-8.509 2.721,-8.504 0.815,0.003 0.958,2.212 1.369,4.502 0.051,0.286 0.31,0.488 0.6,0.474 l 2.705,-0.132 c 0.417,-0.049 0.736,-0.394 0.753,-0.813 l 0.438,-10.515 c 0.009,-0.211 -0.06,-0.417 -0.194,-0.58 l -26.381,-31.941 c -0.18,-0.217 -0.455,-0.332 -0.736,-0.306 l -2.752,0.25 c -0.439,0.04 -0.776,0.409 -0.776,0.85 l 0,11.451 c 0,0.121 0.026,0.24 0.075,0.35 l 0.783,1.74 c 0.138,0.307 0.443,0.504 0.779,0.504 l 3.103,0 c 0.342,0 0.65,0.203 0.785,0.516 1.466,1.742 3.286,4.276 4.789,7.629 1.703,3.801 2.364,7.238 2.636,9.659 0.018,0.042 0.037,0.094 0.05,0.157 0.012,0.053 0.018,0.108 0.019,0.163 l 0.703,34.799 c 0.01,0.461 -0.35,0.847 -0.811,0.87 l -108.719,5.364 c -0.235,0.012 -2.777,0.652 -4.152,2.017 -1.811,1.797 -2.002,4.797 -2.008,5.054 C 3.049,-122.407 1.524,-61.204 0,0"
             style="fill:#67462f;fill-opacity:1;fill-rule:nonzero;stroke:none"
             id="path3368"
             inkscape:connector-curvature="0" /></g><g
           id="g3370"
           transform="translate(586.0364,1172.3102)"><path
             d="M 0,0 323.882,-9.096 321.608,-192.462 4.668,-177.501 0,0 Z"
             style="fill:#b1845c;fill-opacity:1;fill-rule:nonzero;stroke:none"
             id="path3372"
             inkscape:connector-curvature="0" /></g><g
           id="g3374"
           transform="translate(587.0785,877.6351)"><path
             d="m 0,0 0,2.211 -1.263,0.947 0,4.264 18.792,26.215 4.738,1.263 243.038,-14.055 0.789,0.79 10.897,-0.79 2.527,-5.053 -1.106,-3.474 -0.316,-6.159 -10.264,-21.793 -3.79,-1.106 L 1.263,-1.263 0,0 Z"
             style="fill:#67462f;fill-opacity:1;fill-rule:nonzero;stroke:none"
             id="path3376"
             inkscape:connector-curvature="0" /></g><g
           id="g3378"
           transform="translate(559.6339,1507.7305)"><path
             d="M 0,0 585.287,0"
             style="fill:none;stroke:#67462f;stroke-width:5;stroke-linecap:butt;stroke-linejoin:miter;stroke-miterlimit:10;stroke-dasharray:none;stroke-opacity:1"
             id="path3380"
             inkscape:connector-curvature="0" /></g><g
           id="g3382"
           transform="translate(558.8535,816.5753)"><path
             d="M 0,0 585.287,0"
             style="fill:none;stroke:#67462f;stroke-width:5;stroke-linecap:butt;stroke-linejoin:miter;stroke-miterlimit:10;stroke-dasharray:none;stroke-opacity:1"
             id="path3384"
             inkscape:connector-curvature="0" /></g><g
           id="g3386"
           transform="translate(986.615,1899.0601)"><path
             d="M 0,0 70.765,0"
             style="fill:none;stroke:#67462f;stroke-width:1;stroke-linecap:butt;stroke-linejoin:miter;stroke-miterlimit:10;stroke-dasharray:none;stroke-opacity:1"
             id="path3388"
             inkscape:connector-curvature="0" /></g><g
           id="g3390"
           transform="translate(901.8102,1757.9812)"><path
             d="M 0,0 155.57,0"
             style="fill:none;stroke:#67462f;stroke-width:1;stroke-linecap:butt;stroke-linejoin:miter;stroke-miterlimit:10;stroke-dasharray:none;stroke-opacity:1"
             id="path3392"
             inkscape:connector-curvature="0" /></g><g
           id="g3394"
           transform="translate(923.0089,1615.2898)"><path
             d="M 0,0 144.371,0"
             style="fill:none;stroke:#67462f;stroke-width:1;stroke-linecap:butt;stroke-linejoin:miter;stroke-miterlimit:10;stroke-dasharray:none;stroke-opacity:1"
             id="path3396"
             inkscape:connector-curvature="0" /></g><path
           d="m 1057.38,1926.879 114.053,0 0,-51.815 -114.053,0 0,51.815 z"
           style="fill:none;stroke:#67462f;stroke-width:1;stroke-linecap:butt;stroke-linejoin:miter;stroke-miterlimit:10;stroke-dasharray:none;stroke-opacity:1"
           id="path3398"
           inkscape:connector-curvature="0" /><path
           d="m 1057.38,1786.754 114.053,0 0,-51.815 -114.053,0 0,51.815 z"
           style="fill:none;stroke:#67462f;stroke-width:1;stroke-linecap:butt;stroke-linejoin:miter;stroke-miterlimit:10;stroke-dasharray:none;stroke-opacity:1"
           id="path3400"
           inkscape:connector-curvature="0" /><path
           d="m 1067.38,1641.197 114.053,0 0,-51.815 -114.053,0 0,51.815 z"
           style="fill:none;stroke:#67462f;stroke-width:1;stroke-linecap:butt;stroke-linejoin:miter;stroke-miterlimit:10;stroke-dasharray:none;stroke-opacity:1"
           id="path3402"
           inkscape:connector-curvature="0" /></g></g><text
       transform="matrix(1,0,0,-1,1068.0337,1903.687)"
       style="font-variant:normal;font-weight:normal;font-stretch:normal;font-size:13px;font-family:Garamond;-inkscape-font-specification:Garamond;writing-mode:lr-tb;fill:#67462f;fill-opacity:1;fill-rule:nonzero;stroke:none"
       id="text3404"><tspan
         x="0 10.023 15.4375 20.182501 26.279499 30.0651 36.695099 43.3251 49.8251 57.274101 62.552101 69.182098 72.970299 79.600304 86.230301"
         y="0"
         sodipodi:role="line"
         id="tspan3406">Desktop/Laptop/</tspan><tspan
         x="11.856 19.2764 24.554399 31.184401 34.1614 39.5746 43.364101 46.614101 57.4431 64.073097 70.4431 77.073097"
         y="15.6"
         sodipodi:role="line"
         id="tspan3408">Tablet Mount</tspan><tspan
         x="6.3569999 13.676 20.046 23.023001 26 29.25 38.050999 41.028 47.397999 57.421001 60.397999 67.028 70.004997 76.375"
         y="140.842"
         sodipodi:role="line"
         id="tspan3410">Full Aluminium</tspan><tspan
         x="13.065 21.32 27.950001 34.580002 39.325001 43.120998 47.875099 54.245098 59.6661 63.462101 66.439102 73.069099"
         y="156.442"
         sodipodi:role="line"
         id="tspan3412">Construction</tspan><tspan
         x="29.627001 37.882 43.16 49.790001 52.766998 58.188 61.438 69.432999 72.410004 77.831001"
         y="285.68799"
         sodipodi:role="line"
         id="tspan3414">Cable Ties</tspan><tspan
         x="33.890999 38.493 45.123001 50.543999 53.521 59.890999 66.390999 71.811996"
         y="301.28799"
         sodipodi:role="line"
         id="tspan3416">Included</tspan></text>
<g
       id="g3418"><g
         id="g3420"
         clip-path="url(#clipPath3422)"><g
           id="g3426"
           transform="translate(804.3417,1618.0054)"><path
             d="M 0,0 -165.248,0"
             style="fill:none;stroke:#67462f;stroke-width:1;stroke-linecap:butt;stroke-linejoin:miter;stroke-miterlimit:10;stroke-dasharray:none;stroke-opacity:1"
             id="path3428"
             inkscape:connector-curvature="0" /></g><g
           id="g3430"
           transform="translate(841.0632,1758.1313)"><path
             d="M 0,0 -201.97,0"
             style="fill:none;stroke:#67462f;stroke-width:1;stroke-linecap:butt;stroke-linejoin:miter;stroke-miterlimit:10;stroke-dasharray:none;stroke-opacity:1"
             id="path3432"
             inkscape:connector-curvature="0" /></g><g
           id="g3434"
           transform="translate(742.7758,1903.6874)"><path
             d="M 0,0 -103.682,0"
             style="fill:none;stroke:#67462f;stroke-width:1;stroke-linecap:butt;stroke-linejoin:miter;stroke-miterlimit:10;stroke-dasharray:none;stroke-opacity:1"
             id="path3436"
             inkscape:connector-curvature="0" /></g><path
           d="m 639.094,1592.098 -114.053,0 0,51.815 114.053,0 0,-51.815 z"
           style="fill:none;stroke:#67462f;stroke-width:1;stroke-linecap:butt;stroke-linejoin:miter;stroke-miterlimit:10;stroke-dasharray:none;stroke-opacity:1"
           id="path3438"
           inkscape:connector-curvature="0" /><path
           d="m 639.094,1732.224 -114.053,0 0,51.815 114.053,0 0,-51.815 z"
           style="fill:none;stroke:#67462f;stroke-width:1;stroke-linecap:butt;stroke-linejoin:miter;stroke-miterlimit:10;stroke-dasharray:none;stroke-opacity:1"
           id="path3440"
           inkscape:connector-curvature="0" /><path
           d="m 639.094,1877.78 -114.053,0 0,51.815 114.053,0 0,-51.815 z"
           style="fill:none;stroke:#67462f;stroke-width:1;stroke-linecap:butt;stroke-linejoin:miter;stroke-miterlimit:10;stroke-dasharray:none;stroke-opacity:1"
           id="path3442"
           inkscape:connector-curvature="0" /><path
           d="m 675.963,665.541 -103.79,0 0,103.79 103.79,0 0,-103.79 z"
           style="fill:#373535;fill-opacity:1;fill-rule:nonzero;stroke:#373535;stroke-width:3;stroke-linecap:butt;stroke-linejoin:miter;stroke-miterlimit:10;stroke-dasharray:none;stroke-opacity:1"
           id="path3444"
           inkscape:connector-curvature="0" /></g></g><text
       transform="matrix(1,0,0,-1,607.249,710.709)"
       style="font-variant:normal;font-weight:normal;font-stretch:normal;font-size:25.53809929px;font-family:'Myriad Pro';-inkscape-font-specification:MyriadPro-Regular;writing-mode:lr-tb;fill:#ffffff;fill-opacity:1;fill-rule:nonzero;stroke:none"
       id="text3446"><tspan
         x="0 17.595751"
         y="0"
         sodipodi:role="line"
         id="tspan3448">QR</tspan></text>
<g
       id="g3450"><g
         id="g3452"
         clip-path="url(#clipPath3454)"><path
           d="m 1198.843,1216.925 -694.692,0 0,89.912 694.692,0 0,-89.912 z"
           style="fill:#67462f;fill-opacity:1;fill-rule:nonzero;stroke:none"
           id="path3458"
           inkscape:connector-curvature="0" /></g></g><text
       transform="matrix(0.9994623,-0.03278893,-0.03278893,-0.9994623,625.3137,1122.8749)"
       style="font-variant:normal;font-weight:bold;font-stretch:normal;font-size:35.99995804px;font-family:Garamond;-inkscape-font-specification:Garamond-Bold;writing-mode:lr-tb;fill:#67462f;fill-opacity:1;fill-rule:nonzero;stroke:none"
       id="text3460"><tspan
         x="0 28.115967 38.231956 61.847927 70.847916 94.46389 103.82388 113.18387 125.17185 135.28784 155.15982 167.1478 195.65977 215.53174 232.41573"
         y="0"
         sodipodi:role="line"
         id="tspan3462">DiY All-in-One </tspan><tspan
         x="-13.031984 11.339987 30.095964 49.370342 65.260719 82.144699 95.126289 110.13827 120.25426 139.01024 158.88222 167.8822 186.24217 197.51016 214.75415 234.62611"
         y="43.199947"
         sodipodi:role="line"
         id="tspan3464">Conversion Stand</tspan></text>
<text
       transform="matrix(1,0,0,-1,772.8398,1232.71)"
       style="font-variant:normal;font-weight:bold;font-stretch:normal;font-size:83px;font-family:Garamond;-inkscape-font-specification:Garamond-Bold;writing-mode:lr-tb;fill:#b1845c;fill-opacity:1;fill-rule:nonzero;stroke:none"
       id="text3466"><tspan
         x="0 23.323 65.653 91.632004 131.38901 177.205"
         y="0"
         sodipodi:role="line"
         id="tspan3468">iStand</tspan></text>
<g
       id="g3470"><g
         id="g3472"
         clip-path="url(#clipPath3474)"><g
           id="g3478"
           transform="translate(732.8939,1042.8444)"><path
             d="m 0,0 c -6.306,3.114 -11.876,0.063 -13.148,-6.738 -0.219,-1.173 0.299,-3.207 -1.215,-3.255 -1.512,-0.048 -2.128,1.855 -2.542,3.304 -1.159,4.059 -0.068,7.635 2.826,10.52 3.297,3.287 7.274,4.834 11.982,3.424 1.063,-0.318 2.07,-0.819 3.827,-1.529 -2.945,3.717 -6.02,5.771 -10.162,5.508 -4.682,-0.297 -8.36,-2.399 -10.392,-6.851 -0.994,-2.177 -1.1,-4.494 -1.131,-6.838 -0.016,-1.278 0.302,-2.591 -0.356,-4.2 -2.654,1.647 -3.879,4.056 -4.28,6.843 -1.835,12.761 9.197,22.109 21.543,18.306 5.871,-1.808 10.09,-5.635 12.616,-11.126 3.509,-7.625 5.752,-15.738 8.615,-23.613 0.923,-2.539 1.783,-5.101 2.759,-7.618 0.607,-1.566 1.731,-1.903 2.582,-0.324 3.741,6.94 7.361,13.944 11.184,21.228 -2.199,0.043 -4.042,-0.143 -5.301,1.435 -0.352,0.441 -0.748,0.988 -0.413,1.501 0.185,0.283 0.792,0.354 1.222,0.404 1.179,0.136 2.431,-0.141 3.592,0.706 -1.543,0.946 -4.4,1.393 -3.512,3.555 0.932,2.267 3.135,-1.137 4.963,0.231 -0.403,1.188 -2.069,1.951 -1.891,3.566 0.06,0.547 -0.05,1.21 0.555,1.468 0.487,0.207 0.844,-0.261 1.157,-0.581 1.212,-1.242 2.644,-1.056 4.169,-0.799 2.773,0.467 5.662,-0.1 8.391,0.985 0.504,0.2 1.28,-0.125 1.87,-0.36 C 49.895,8.999 50.342,8.623 50.455,8.254 50.627,7.687 50.03,7.522 49.604,7.358 45.748,5.866 43.752,2.672 41.956,-0.789 35.004,-14.187 27.998,-27.558 20.984,-40.925 c -0.399,-0.761 -0.554,-2.071 -1.663,-1.925 -0.84,0.111 -0.906,1.314 -1.197,2.077 -3.482,9.14 -6.951,18.285 -10.4,27.438 -0.737,1.955 -1.761,3.686 -3.359,5.065 -4.094,3.534 -8.738,2.396 -10.782,-2.614 -0.326,-0.799 -0.161,-2.254 -1.236,-2.221 -1.31,0.04 -1.478,1.523 -1.731,2.568 -1.108,4.579 1.612,8.882 6.241,9.952 C -2.245,-0.377 -1.328,-0.245 0,0"
             style="fill:#67462f;fill-opacity:1;fill-rule:nonzero;stroke:none"
             id="path3480"
             inkscape:connector-curvature="0" /></g><g
           id="g3482"
           transform="translate(931.5386,1809.109)"><path
             d="m 0,0 21.226,0 c 0.544,0 0.986,-0.442 0.986,-0.986 l 0,-139.586 c 0,-0.545 -0.442,-0.986 -0.986,-0.986 l -21.234,0 c -0.509,0 -0.935,0.387 -0.982,0.894 l -0.768,8.21 c -0.007,0.084 -0.026,0.166 -0.055,0.245 l -2.657,7.309 c -0.04,0.108 -0.06,0.222 -0.06,0.337 l 0,110.435 c 0,0.158 0.038,0.312 0.11,0.452 l 2.734,5.307 c 0.059,0.115 0.095,0.24 0.106,0.369 l 0.597,7.096 C -0.94,-0.393 -0.513,0 0,0"
             style="fill:#b1845c;fill-opacity:1;fill-rule:nonzero;stroke:none"
             id="path3484"
             inkscape:connector-curvature="0" /></g><g
           id="g3486"
           transform="translate(931.5386,1809.109)"><path
             d="m 0,0 21.226,0 c 0.544,0 0.986,-0.442 0.986,-0.986 l 0,-139.586 c 0,-0.545 -0.442,-0.986 -0.986,-0.986 l -21.234,0 c -0.509,0 -0.935,0.387 -0.982,0.894 l -0.768,8.21 c -0.007,0.084 -0.026,0.166 -0.055,0.245 l -2.657,7.309 c -0.04,0.108 -0.06,0.222 -0.06,0.337 l 0,110.435 c 0,0.158 0.038,0.312 0.11,0.452 l 2.734,5.307 c 0.059,0.115 0.095,0.24 0.106,0.369 l 0.597,7.096 C -0.94,-0.393 -0.513,0 0,0 Z"
             style="fill:none;stroke:#67462f;stroke-width:2;stroke-linecap:butt;stroke-linejoin:miter;stroke-miterlimit:10;stroke-dasharray:none;stroke-opacity:1"
             id="path3488"
             inkscape:connector-curvature="0" /></g><g
           id="g3490"
           transform="translate(826.3286,1868.6598)"><path
             d="m 0,0 c 0.292,1.001 11.566,-2.156 11.945,-2.818 3.951,-6.899 4.988,-42.156 2.576,-55.148 -2.751,-14.817 -29.516,-105.384 -35.031,-118.892 -4.885,-11.964 -27.814,-47.243 -34.072,-50.584 -0.515,-0.275 -11.171,2.274 -10.949,3.035 L 0,0 Z"
             style="fill:#b1845c;fill-opacity:1;fill-rule:nonzero;stroke:none"
             id="path3492"
             inkscape:connector-curvature="0" /></g><g
           id="g3494"
           transform="translate(826.3286,1868.6598)"><path
             d="m 0,0 c 0.292,1.001 11.566,-2.156 11.945,-2.818 3.951,-6.899 4.988,-42.156 2.576,-55.148 -2.751,-14.817 -29.516,-105.384 -35.031,-118.892 -4.885,-11.964 -27.814,-47.243 -34.072,-50.584 -0.515,-0.275 -11.171,2.274 -10.949,3.035 L 0,0 Z"
             style="fill:none;stroke:#67462f;stroke-width:2;stroke-linecap:butt;stroke-linejoin:miter;stroke-miterlimit:10;stroke-dasharray:none;stroke-opacity:1"
             id="path3496"
             inkscape:connector-curvature="0" /></g><g
           id="g3498"
           transform="translate(863.06,1766.1151)"><path
             d="m 0,0 5.752,0 c 0.465,0 0.843,-0.377 0.843,-0.843 l 0,-11.503 c 0,-0.552 0.519,-0.945 1.056,-0.815 0.963,0.235 2.382,0.397 3.987,-0.038 0.915,-0.248 1.668,-0.63 2.259,-1.017 0.552,-0.361 1.285,0.065 1.285,0.724 l 0,12.649 c 0,0.466 0.377,0.843 0.843,0.843 l 2.612,0 c 0.464,0 0.841,-0.375 0.843,-0.839 l 0.465,-98.765 c 0.002,-0.464 0.379,-0.839 0.843,-0.839 l 15.557,0 c 0.465,0 0.843,-0.377 0.843,-0.843 l 0,-2.838 c 0,-0.466 -0.378,-0.843 -0.843,-0.843 l -15.553,0 c -0.466,0 -0.843,-0.377 -0.843,-0.843 l 0,-16.792 0.83,0 0,-6.364 -0.83,0 0,-5.639 c 0,-0.406 0.287,-0.756 0.686,-0.827 1.88,-0.337 6.968,-1.646 6.968,-5.955 l 0,-45.008 c 0,0 0.128,-19.051 12.345,-32.126 12.217,-13.075 25.916,-12.284 27.143,-11.885 1.17,0.381 2.831,3.528 2.979,3.813 0.009,0.017 0.013,0.024 0.023,0.04 0.149,0.243 1.723,2.651 5.039,1.898 3.245,-0.738 3.911,-4.48 3.988,-5.001 0.006,-0.042 0.008,-0.077 0.008,-0.12 l 0,-11.135 c 0,-0.465 -0.377,-0.843 -0.842,-0.843 l -143.459,0 c -0.465,0 -0.843,0.378 -0.843,0.843 l 0,11.128 c 0,0.098 0.016,0.192 0.05,0.284 0.297,0.817 1.932,4.91 4.781,4.69 3.163,-0.243 3.91,-1.457 3.91,-1.457 l 0.061,1.414 c 0.01,0.224 -0.07,0.443 -0.222,0.608 l -0.171,0.184 c -0.291,0.316 -0.298,0.8 -0.017,1.124 l 3.033,3.494 -0.844,0.691 6.364,7.59 0.844,-0.843 0.9,1.112 c 0.238,0.294 0.251,0.711 0.03,1.02 l -0.007,0.01 c -0.227,0.317 -0.206,0.749 0.051,1.043 l 5.85,6.706 0.92,-0.69 0.991,1.267 c 0.231,0.294 0.24,0.705 0.023,1.009 l -0.011,0.015 c -0.228,0.32 -0.206,0.754 0.054,1.048 l 5.92,6.705 0.767,-0.537 1.38,1.457 -0.844,0.92 6.441,7.208 0.767,-0.614 0.95,1.055 c 0.254,0.283 0.287,0.7 0.082,1.02 -0.203,0.315 -0.173,0.727 0.073,1.009 l 5.796,6.654 0.766,-0.537 1.457,1.84 -0.69,0.844 6.211,7.13 1.073,-0.383 3.44,3.941 c 0.153,0.176 0.373,0.281 0.607,0.288 l 1.636,0.055 c 0.193,0.006 0.382,-0.054 0.536,-0.17 l 3.825,-2.887 -0.843,-0.997 5.878,-4.888 c 0.553,-0.46 1.391,-0.069 1.382,0.65 -0.076,5.911 -0.284,24.416 0.024,28.39 0.302,3.898 5.592,5.48 7.471,5.92 0.384,0.09 0.657,0.428 0.657,0.822 l 0,6.37 -1.381,0 0,4.6 1.304,0 0,18.096 c 0,0.465 -0.377,0.843 -0.843,0.843 l -0.921,0 c -0.466,0 -0.843,0.377 -0.843,0.842 l 0,2.685 c 0,0.466 0.377,0.843 0.843,0.843 l 0.921,0 c 0.466,0 0.843,0.378 0.843,0.843 l 0,34.735 c 0,0.465 -0.377,0.842 -0.843,0.842 l -2.455,0 c -0.465,0 -0.843,0.378 -0.843,0.843 l 0,1.918 -1.367,0 0,9.201 1.214,0 0,11.655 c 0,0.465 -0.377,0.842 -0.843,0.842 l -5.522,0 c -0.465,0 -0.842,-0.377 -0.842,-0.842 l 0,-38.645 c 0,-0.466 -0.378,-0.843 -0.843,-0.843 l -2.915,0 c -0.465,0 -0.843,0.377 -0.843,0.843 l 0,78.055 C -0.843,-0.377 -0.465,0 0,0"
             style="fill:#67462f;fill-opacity:1;fill-rule:nonzero;stroke:none"
             id="path3500"
             inkscape:connector-curvature="0" /></g><g
           id="g3502"
           transform="translate(870.4369,1592.5895)"><path
             d="m 0,0 -56.184,-58.066 c 0,0 43.6,-0.595 50.239,11.989 C 1.883,-36.068 0,0 0,0"
             style="fill:#b1845c;fill-opacity:1;fill-rule:nonzero;stroke:none"
             id="path3504"
             inkscape:connector-curvature="0" /></g><g
           id="g3506"
           transform="translate(833.407,1742.2714)"><path
             d="M 0,0 15.312,0"
             style="fill:none;stroke:#67462f;stroke-width:2;stroke-linecap:butt;stroke-linejoin:miter;stroke-miterlimit:10;stroke-dasharray:none;stroke-opacity:1"
             id="path3508"
             inkscape:connector-curvature="0" /></g><g
           id="g3510"
           transform="translate(841.0632,1734.6151)"><path
             d="M 0,0 0,15.313"
             style="fill:none;stroke:#67462f;stroke-width:2;stroke-linecap:butt;stroke-linejoin:miter;stroke-miterlimit:10;stroke-dasharray:none;stroke-opacity:1"
             id="path3512"
             inkscape:connector-curvature="0" /></g><g
           id="g3514"
           transform="translate(904.154,1742.2714)"><path
             d="M 0,0 15.312,0"
             style="fill:none;stroke:#67462f;stroke-width:2;stroke-linecap:butt;stroke-linejoin:miter;stroke-miterlimit:10;stroke-dasharray:none;stroke-opacity:1"
             id="path3516"
             inkscape:connector-curvature="0" /></g><g
           id="g3518"
           transform="translate(911.8102,1734.6151)"><path
             d="M 0,0 0,15.313"
             style="fill:none;stroke:#67462f;stroke-width:2;stroke-linecap:butt;stroke-linejoin:miter;stroke-miterlimit:10;stroke-dasharray:none;stroke-opacity:1"
             id="path3520"
             inkscape:connector-curvature="0" /></g><g
           id="g3522"
           transform="translate(716.798,1282.682)"><path
             d="m 0,0 c -7.346,3.636 -13.841,0.085 -15.33,-7.841 -0.256,-1.367 0.346,-3.738 -1.419,-3.792 -1.762,-0.055 -2.478,2.164 -2.959,3.853 -1.348,4.732 -0.073,8.899 3.303,12.258 3.846,3.828 8.482,5.627 13.968,3.98 1.238,-0.372 2.411,-0.957 4.458,-1.786 -3.428,4.335 -7.009,6.732 -11.837,6.429 -5.457,-0.342 -9.746,-2.788 -12.119,-7.975 -1.16,-2.536 -1.285,-5.236 -1.324,-7.968 -0.021,-1.49 0.349,-3.02 -0.42,-4.895 -3.091,1.922 -4.516,4.731 -4.981,7.979 -2.127,14.875 10.74,25.759 25.125,21.315 6.841,-2.113 11.754,-6.576 14.693,-12.979 4.082,-8.89 6.689,-18.347 10.019,-27.529 1.073,-2.959 2.073,-5.946 3.207,-8.881 0.706,-1.825 2.016,-2.219 3.009,-0.38 4.367,8.085 8.593,16.245 13.055,24.73 -2.563,0.052 -4.711,-0.162 -6.176,1.677 -0.41,0.515 -0.872,1.153 -0.481,1.75 0.217,0.331 0.924,0.413 1.426,0.47 1.374,0.158 2.833,-0.166 4.187,0.819 -1.798,1.105 -5.127,1.628 -4.09,4.147 1.087,2.642 3.653,-1.328 5.784,0.265 -0.469,1.384 -2.41,2.276 -2.2,4.158 0.07,0.637 -0.057,1.41 0.648,1.71 0.567,0.241 0.983,-0.305 1.348,-0.679 1.411,-1.448 3.08,-1.233 4.858,-0.935 3.232,0.542 6.599,-0.121 9.78,1.141 0.587,0.233 1.492,-0.148 2.179,-0.422 0.449,-0.179 0.97,-0.617 1.1,-1.048 C 59.012,8.911 58.315,8.72 57.819,8.528 53.324,6.793 50.994,3.072 48.898,-0.959 40.782,-16.568 32.605,-32.145 24.418,-47.717 c -0.466,-0.886 -0.648,-2.413 -1.94,-2.241 -0.979,0.129 -1.055,1.531 -1.394,2.421 -4.049,10.656 -8.084,21.318 -12.095,31.988 -0.857,2.28 -2.048,4.298 -3.909,5.906 -4.769,4.123 -10.182,2.801 -12.569,-3.035 -0.381,-0.931 -0.19,-2.628 -1.443,-2.589 -1.526,0.048 -1.721,1.777 -2.015,2.995 -1.287,5.338 1.887,10.35 7.283,11.593 C -2.616,-0.437 -1.548,-0.284 0,0"
             style="fill:#b1845c;fill-opacity:1;fill-rule:nonzero;stroke:none"
             id="path3524"
             inkscape:connector-curvature="0" /></g><path
           d="m 1197.741,1962.437 -694.692,0 0,89.912 694.692,0 0,-89.912 z"
           style="fill:#67462f;fill-opacity:1;fill-rule:nonzero;stroke:none"
           id="path3526"
           inkscape:connector-curvature="0" /></g></g><text
       transform="matrix(1,0,0,-1,777.7305,1909.9458)"
       style="font-variant:normal;font-weight:normal;font-stretch:normal;font-size:12px;font-family:Garamond;-inkscape-font-specification:Garamond;writing-mode:lr-tb;fill:#67462f;fill-opacity:1;fill-rule:nonzero;stroke:none"
       id="text3528"><tspan
         x="0 9.9960003 16.115999 22.236 24.983999 28.488001 34.608002 72.323997 80.447998 83.195999 88.944 92.447998 97.32 103.44 137.90401 145.524 151.644 160.896 167.01601 172.896 176.39999 181.40401"
         y="0"
         sodipodi:role="line"
         id="tspan3530">MonitorViStandComputer</tspan></text>
<g
       id="g3532"><g
         id="g3534"
         clip-path="url(#clipPath3536)"><g
           id="g3540"
           transform="translate(868.6159,1899.0601)"><path
             d="M 0,0 0,-110.658"
             style="fill:none;stroke:#67462f;stroke-width:1;stroke-linecap:butt;stroke-linejoin:miter;stroke-miterlimit:10;stroke-dasharray:none;stroke-opacity:1"
             id="path3542"
             inkscape:connector-curvature="0" /></g><g
           id="g3544"
           transform="translate(939.3795,1899.0601)"><path
             d="M 0,0 0,-72.273"
             style="fill:none;stroke:#67462f;stroke-width:1;stroke-linecap:butt;stroke-linejoin:miter;stroke-miterlimit:10;stroke-dasharray:none;stroke-opacity:1"
             id="path3546"
             inkscape:connector-curvature="0" /></g><g
           id="g3548"
           transform="translate(797.04,1900.972)"><path
             d="M 0,0 0,-43.548"
             style="fill:none;stroke:#67462f;stroke-width:1;stroke-linecap:butt;stroke-linejoin:miter;stroke-miterlimit:10;stroke-dasharray:none;stroke-opacity:1"
             id="path3550"
             inkscape:connector-curvature="0" /></g></g></g><text
       transform="matrix(1,0,0,-1,561.5552,1621.1382)"
       style="font-variant:normal;font-weight:normal;font-stretch:normal;font-size:13px;font-family:Garamond;-inkscape-font-specification:Garamond;writing-mode:lr-tb;fill:#67462f;fill-opacity:1;fill-rule:nonzero;stroke:none"
       id="text3552"><tspan
         x="0 7.9949999 14.365 17.341999 20.319 24.115 28.184 31.160999 37.791"
         y="0"
         sodipodi:role="line"
         id="tspan3554">Built-in </tspan><tspan
         x="-20.163 -10.7172 -5.2961998 0.1248 6.7547998 13.3848 18.6628 22.9918 29.4918 32.741798 38.9688 42.764801 48.042801 54.672798"
         y="15.6"
         sodipodi:role="line"
         id="tspan3556">Keyboard Stand</tspan><tspan
         x="-31.681 -28.431 -21.4175 -14.7875 -8.1575003 -5.1805 -2.2035 3.2175 7.9625001 12.7075 15.9575 24.758499 31.258499 34.2355 40.605499 45.350498 49.1465 54.4245 61.054501 64.031502 69.452499"
         y="-139.711"
         sodipodi:role="line"
         id="tspan3558"> Toolless Adjustable </tspan><tspan
         x="-9.2819996 1.5470001 8.177 14.807 17.784 21.58 28.209999 32.539001 40.534 43.511002 46.487999"
         y="-124.111"
         sodipodi:role="line"
         id="tspan3560">MonitorTilt</tspan><tspan
         x="-21.462999 -13.208 -6.5780001 3.4449999 10.075 15.353 19.149 22.125999 28.756001 31.733 37.153999 40.403999 49.075001 52.051998 55.848"
         y="-283.77701"
         sodipodi:role="line"
         id="tspan3562">Compatible with</tspan><tspan
         x="-10.699 -5.421 1.209 6.6300001 9.8800001 20.709 27.339001 33.969002 36.945999 40.742001 47.372002"
         y="-268.177"
         sodipodi:role="line"
         id="tspan3564">any Monitor</tspan></text>
<g
       id="g3566"><g
         id="g3568"
         clip-path="url(#clipPath3570)"><g
           id="g3574"
           transform="translate(868.7498,1767.7305)"><path
             d="m 0,0 -5.99,0 c -0.423,0 -0.766,-0.354 -0.766,-0.792 l 0,-79.726 c 0,-0.438 0.343,-0.792 0.766,-0.792 l 3.292,0 c 0.423,0 0.766,0.354 0.766,0.792 l 0,51.026 c 0,0.437 0.343,0.792 0.766,0.792 l 1.028,0 c 0.474,0 0.834,0.439 0.756,0.921 l -0.333,2.08 c 0.421,-0.309 0.836,-0.544 1.229,-0.722 2.959,-1.345 7.943,0.913 7.943,1.22 l 0,9.9 c 0,0.437 -2.141,2.124 -4.496,2.075 -2.355,-0.05 -4.195,-0.71 -4.195,-0.491 l 0,12.925 C 0.766,-0.354 0.423,0 0,0"
             style="fill:#b1845c;fill-opacity:1;fill-rule:nonzero;stroke:none"
             id="path3576"
             inkscape:connector-curvature="0" /></g><path
           d="m 872.899,1751.573 -6.459,0 0,18.399 6.459,0 0,-18.399 z"
           style="fill:#b1845c;fill-opacity:1;fill-rule:nonzero;stroke:none"
           id="path3578"
           inkscape:connector-curvature="0" /><g
           id="g3580"
           transform="translate(874.3727,1767.0466)"><path
             d="M 0,0 -5.834,1.675 C -6.246,1.793 -6.676,1.555 -6.795,1.143 l -21.564,-75.108 c -0.118,-0.412 0.12,-0.842 0.532,-0.96 l 3.207,-0.921 c 0.412,-0.118 0.842,0.12 0.96,0.532 l 13.801,48.071 c 0.119,0.412 0.549,0.65 0.961,0.531 l 1.001,-0.287 c 0.461,-0.132 0.93,0.181 0.986,0.657 l 0.237,2.052 c 0.327,-0.409 0.668,-0.746 1.002,-1.024 1.606,-1.335 4.409,-1.521 6.252,-1.406 1.21,0.076 2.339,0.637 3.13,1.556 0.597,0.694 1.232,1.667 1.606,2.945 0.729,2.491 0.001,4.546 -0.243,5.159 -0.453,0.68 -1.517,2.603 -3.818,3.213 -2.308,0.612 -4.278,0.504 -4.219,0.71 L 0.532,-0.96 C 0.65,-0.548 0.412,-0.118 0,0"
             style="fill:#67462f;fill-opacity:1;fill-rule:nonzero;stroke:none"
             id="path3582"
             inkscape:connector-curvature="0" /></g></g></g><text
       transform="matrix(1,0,0,-1,529.2529,1990.6885)"
       style="font-variant:normal;font-weight:bold;font-stretch:normal;font-size:36px;font-family:Garamond;-inkscape-font-specification:Garamond-Bold;writing-mode:lr-tb;fill:#b1845c;fill-opacity:1;fill-rule:nonzero;stroke:none"
       id="text3584"><tspan
         x="0 33.012001 51.768002 71.639999 91.512001 100.872 118.116 130.5 139.5 163.87199 182.62801 213.01199 232.884 252.756 264.02399 274.14001 294.01199 313.52399 322.52399 352.90799 369.79199 386.67599 397.944 412.95599 421.95599 433.224 453.09601 469.98001 478.98001 502.59601 511.95599 521.31598 533.30402 543.41998 563.29199 575.28003 603.79199 623.664"
         y="0"
         sodipodi:role="line"
         id="tspan3586">Modular Computing meets the All-in-One</tspan></text>
<g
       id="g3588"><g
         id="g3590"
         clip-path="url(#clipPath3592)"><path
           d="m 1249.867,2052.349 -52.126,0 0,-89.912 52.126,0 0,89.912 z"
           style="fill:#67462f;fill-opacity:1;fill-rule:nonzero;stroke:none"
           id="path3596"
           inkscape:connector-curvature="0" /><path
           d="m 453.127,2052.349 49.922,0 0,-89.912 -49.922,0 0,89.912 z"
           style="fill:#67462f;fill-opacity:1;fill-rule:nonzero;stroke:none"
           id="path3598"
           inkscape:connector-curvature="0" /></g></g><text
       transform="matrix(1,0,0,-1,594.2886,2062.1929)"
       style="font-variant:normal;font-weight:bold;font-stretch:normal;font-size:40.8783989px;font-family:Garamond;-inkscape-font-specification:Garamond-Bold;writing-mode:lr-tb;fill:#b1845c;fill-opacity:1;fill-rule:nonzero;stroke:none"
       id="text3600"><tspan
         x="0 11.486831 32.334816 45.109314 64.690071 87.254944"
         y="0"
         sodipodi:role="line"
         id="tspan3602">iStand</tspan></text>
<g
       id="g3604"><g
         id="g3606"
         clip-path="url(#clipPath3608)"><g
           id="g3612"
           transform="translate(566.6872,2086.8042)"><path
             d="m 0,0 c -3.618,1.791 -6.817,0.042 -7.55,-3.862 -0.126,-0.673 0.17,-1.841 -0.699,-1.867 -0.868,-0.027 -1.221,1.065 -1.458,1.897 -0.663,2.331 -0.035,4.383 1.627,6.038 1.894,1.885 4.178,2.771 6.88,1.959 0.609,-0.183 1.187,-0.471 2.195,-0.879 -1.688,2.135 -3.452,3.316 -5.83,3.166 -2.687,-0.168 -4.8,-1.373 -5.968,-3.927 -0.572,-1.249 -0.633,-2.579 -0.652,-3.925 -0.01,-0.734 0.171,-1.487 -0.207,-2.411 -1.523,0.947 -2.224,2.33 -2.453,3.93 -1.048,7.326 5.289,12.687 12.374,10.498 3.369,-1.041 5.789,-3.239 7.237,-6.392 2.01,-4.379 3.294,-9.037 4.934,-13.558 0.528,-1.458 1.021,-2.929 1.58,-4.375 0.347,-0.898 0.992,-1.093 1.482,-0.187 2.15,3.982 4.232,8.001 6.429,12.18 -1.262,0.026 -2.32,-0.08 -3.042,0.826 -0.202,0.254 -0.429,0.568 -0.236,0.862 0.106,0.163 0.454,0.203 0.702,0.231 0.676,0.078 1.395,-0.081 2.062,0.404 -0.885,0.544 -2.525,0.802 -2.015,2.042 0.536,1.301 1.8,-0.654 2.849,0.131 -0.231,0.681 -1.186,1.12 -1.084,2.048 0.035,0.313 -0.027,0.694 0.32,0.842 0.279,0.118 0.484,-0.15 0.664,-0.335 0.695,-0.713 1.516,-0.607 2.392,-0.46 1.592,0.267 3.25,-0.06 4.817,0.562 0.289,0.114 0.735,-0.073 1.074,-0.208 0.22,-0.088 0.477,-0.304 0.541,-0.516 C 29.064,4.388 28.721,4.294 28.477,4.2 26.263,3.345 25.115,1.513 24.083,-0.472 20.086,-8.16 16.058,-15.832 12.026,-23.501 c -0.229,-0.437 -0.319,-1.189 -0.955,-1.104 -0.483,0.064 -0.52,0.754 -0.687,1.192 -1.994,5.249 -3.981,10.5 -5.957,15.755 -0.422,1.123 -1.009,2.117 -1.925,2.909 -2.349,2.03 -5.015,1.379 -6.19,-1.495 -0.188,-0.459 -0.094,-1.294 -0.711,-1.275 -0.752,0.023 -0.848,0.875 -0.992,1.475 -0.634,2.629 0.929,5.097 3.586,5.71 C -1.289,-0.216 -0.762,-0.14 0,0"
             style="fill:#b1845c;fill-opacity:1;fill-rule:nonzero;stroke:none"
             id="path3614"
             inkscape:connector-curvature="0" /></g></g></g><text
       transform="matrix(0,1,1,0,486.6714,1989.3403)"
       style="font-variant:normal;font-weight:bold;font-stretch:normal;font-size:19.64310074px;font-family:Garamond;-inkscape-font-specification:Garamond-Bold;writing-mode:lr-tb;fill:#b1845c;fill-opacity:1;fill-rule:nonzero;stroke:none"
       id="text3616"><tspan
         x="0 5.519711 15.537692 21.676161 31.085205 41.928196"
         y="0"
         sodipodi:role="line"
         id="tspan3618">iStand</tspan></text>
<g
       id="g3620"><g
         id="g3622"
         clip-path="url(#clipPath3624)"><g
           id="g3628"
           transform="translate(474.8445,1976.0771)"><path
             d="m 0,0 c -0.86,-1.739 -0.02,-3.276 1.856,-3.628 0.323,-0.061 0.884,0.082 0.897,-0.336 0.013,-0.417 -0.512,-0.586 -0.912,-0.7 -1.12,-0.319 -2.106,-0.017 -2.901,0.781 -0.906,0.911 -1.332,2.008 -0.942,3.306 0.088,0.293 0.227,0.571 0.423,1.055 -1.026,-0.811 -1.593,-1.659 -1.522,-2.801 0.081,-1.292 0.66,-2.307 1.888,-2.868 0.6,-0.275 1.239,-0.304 1.886,-0.314 0.352,-0.004 0.714,0.083 1.158,-0.099 -0.455,-0.731 -1.12,-1.069 -1.888,-1.179 -3.521,-0.503 -6.097,2.542 -5.045,5.946 0.5,1.619 1.557,2.782 3.072,3.478 2.104,0.966 4.342,1.583 6.515,2.371 0.7,0.254 1.407,0.49 2.102,0.759 0.432,0.167 0.525,0.477 0.09,0.712 C 4.763,7.516 2.832,8.517 0.824,9.573 0.812,8.966 0.862,8.458 0.427,8.111 0.305,8.014 0.154,7.905 0.013,7.997 -0.065,8.048 -0.085,8.216 -0.098,8.335 -0.136,8.66 -0.059,9.005 -0.292,9.325 -0.554,8.9 -0.677,8.112 -1.274,8.358 -1.899,8.615 -0.959,9.222 -1.336,9.727 -1.664,9.616 -1.875,9.156 -2.32,9.206 -2.471,9.222 -2.654,9.192 -2.725,9.359 c -0.057,0.134 0.072,0.233 0.161,0.319 0.342,0.334 0.291,0.729 0.221,1.15 -0.128,0.765 0.029,1.562 -0.27,2.315 -0.055,0.138 0.035,0.353 0.1,0.515 0.042,0.106 0.146,0.23 0.248,0.261 0.156,0.047 0.201,-0.118 0.247,-0.235 0.41,-1.064 1.291,-1.615 2.245,-2.111 C 3.921,9.652 7.608,7.716 11.293,5.779 11.503,5.669 11.864,5.625 11.823,5.32 11.793,5.088 11.461,5.07 11.25,4.99 8.728,4.032 6.205,3.077 3.68,2.127 3.14,1.925 2.663,1.643 2.282,1.202 1.306,0.074 1.619,-1.208 3.001,-1.772 3.221,-1.862 3.622,-1.817 3.613,-2.114 3.602,-2.475 3.193,-2.521 2.904,-2.591 1.641,-2.895 0.455,-2.144 0.161,-0.867 0.104,-0.619 0.067,-0.366 0,0"
             style="fill:#b1845c;fill-opacity:1;fill-rule:nonzero;stroke:none"
             id="path3630"
             inkscape:connector-curvature="0" /></g></g></g><text
       transform="matrix(0,-1,-1,0,1215.771,2026.4165)"
       style="font-variant:normal;font-weight:bold;font-stretch:normal;font-size:19.64310074px;font-family:Garamond;-inkscape-font-specification:Garamond-Bold;writing-mode:lr-tb;fill:#b1845c;fill-opacity:1;fill-rule:nonzero;stroke:none"
       id="text3632"><tspan
         x="0 5.519711 15.537692 21.676161 31.085205 41.928196"
         y="0"
         sodipodi:role="line"
         id="tspan3634">iStand</tspan></text>
<g
       id="g3636"><g
         id="g3638"
         clip-path="url(#clipPath3640)"><g
           id="g3644"
           transform="translate(1227.5984,2039.6799)"><path
             d="M 0,0 C 0.86,1.739 0.02,3.276 -1.856,3.628 -2.179,3.689 -2.74,3.546 -2.753,3.964 -2.766,4.381 -2.241,4.55 -1.841,4.664 -0.721,4.983 0.265,4.682 1.06,3.883 1.966,2.972 2.392,1.875 2.002,0.577 1.914,0.284 1.775,0.006 1.579,-0.478 2.605,0.333 3.172,1.181 3.101,2.323 3.02,3.615 2.441,4.63 1.213,5.191 0.613,5.466 -0.026,5.495 -0.673,5.505 -1.025,5.509 -1.387,5.422 -1.831,5.604 -1.376,6.336 -0.711,6.673 0.057,6.783 3.578,7.286 6.154,4.241 5.102,0.837 4.602,-0.782 3.545,-1.945 2.03,-2.641 c -2.104,-0.966 -4.342,-1.583 -6.515,-2.371 -0.7,-0.254 -1.407,-0.49 -2.102,-0.759 -0.432,-0.167 -0.525,-0.477 -0.09,-0.712 1.914,-1.033 3.845,-2.034 5.853,-3.09 0.012,0.607 -0.038,1.115 0.397,1.462 0.122,0.097 0.273,0.206 0.414,0.114 0.078,-0.051 0.098,-0.219 0.111,-0.337 0.038,-0.326 -0.039,-0.671 0.194,-0.991 0.262,0.425 0.385,1.213 0.982,0.967 0.625,-0.257 -0.315,-0.864 0.062,-1.368 0.328,0.111 0.539,0.57 0.984,0.52 0.151,-0.016 0.334,0.014 0.405,-0.153 0.057,-0.134 -0.072,-0.233 -0.161,-0.319 -0.342,-0.334 -0.291,-0.729 -0.221,-1.15 0.128,-0.765 -0.029,-1.562 0.27,-2.314 0.055,-0.139 -0.035,-0.353 -0.1,-0.516 -0.042,-0.106 -0.146,-0.23 -0.248,-0.26 -0.156,-0.048 -0.201,0.117 -0.247,0.234 -0.41,1.064 -1.291,1.616 -2.245,2.112 -3.694,1.92 -7.381,3.856 -11.066,5.793 -0.21,0.11 -0.571,0.154 -0.53,0.459 0.03,0.232 0.362,0.25 0.573,0.33 2.522,0.958 5.045,1.913 7.57,2.863 0.54,0.202 1.017,0.484 1.398,0.925 0.976,1.128 0.663,2.41 -0.718,2.974 -0.221,0.091 -0.622,0.045 -0.613,0.342 0.011,0.361 0.42,0.407 0.709,0.477 1.263,0.304 2.449,-0.447 2.743,-1.724 C -0.104,0.619 -0.067,0.366 0,0"
             style="fill:#b1845c;fill-opacity:1;fill-rule:nonzero;stroke:none"
             id="path3646"
             inkscape:connector-curvature="0" /></g><g
           id="g3648"
           transform="translate(737.6947,2089.9158)"><path
             d="M 0,0 0,-29.723"
             style="fill:none;stroke:#b1845c;stroke-width:3;stroke-linecap:butt;stroke-linejoin:miter;stroke-miterlimit:10;stroke-dasharray:none;stroke-opacity:1"
             id="path3650"
             inkscape:connector-curvature="0" /></g></g></g><text
       transform="matrix(1,0,0,-1,768.7212,2062.1929)"
       style="font-variant:normal;font-weight:normal;font-stretch:normal;font-size:36px;font-family:Garamond;-inkscape-font-specification:Garamond;writing-mode:lr-tb;fill:#b1845c;fill-opacity:1;fill-rule:nonzero;stroke:none"
       id="text3652"><tspan
         x="0 27.756001 36 59.616001 68.615997 92.987999 101.232 109.476 120.744 128.98801 147.34801 158.616 186.73199 205.092 220.104 229.104 251.964 270.32401 288.22681 304.41599 319.42801 332.13959 342.65161 357.6636"
         y="0"
         sodipodi:role="line"
         id="tspan3654">DiY All-in-One Converter</tspan></text>
<text
       transform="matrix(1,0,0,-1,594.2886,1317.4868)"
       style="font-variant:normal;font-weight:bold;font-stretch:normal;font-size:40.8783989px;font-family:Garamond;-inkscape-font-specification:Garamond-Bold;writing-mode:lr-tb;fill:#67462f;fill-opacity:1;fill-rule:nonzero;stroke:none"
       id="text3656"><tspan
         x="0 11.486831 32.334816 45.109314 64.690071 87.254944"
         y="0"
         sodipodi:role="line"
         id="tspan3658">iStand</tspan></text>
<g
       id="g3660"><g
         id="g3662"
         clip-path="url(#clipPath3664)"><g
           id="g3668"
           transform="translate(566.6872,1342.0985)"><path
             d="m 0,0 c -3.618,1.791 -6.817,0.042 -7.55,-3.862 -0.126,-0.673 0.17,-1.841 -0.699,-1.867 -0.868,-0.027 -1.221,1.065 -1.458,1.897 -0.663,2.331 -0.035,4.383 1.627,6.038 1.894,1.885 4.178,2.771 6.88,1.96 0.609,-0.184 1.187,-0.472 2.195,-0.88 -1.688,2.135 -3.452,3.316 -5.83,3.167 -2.687,-0.169 -4.8,-1.374 -5.968,-3.928 -0.572,-1.249 -0.633,-2.579 -0.652,-3.925 -0.01,-0.733 0.171,-1.487 -0.207,-2.411 -1.523,0.947 -2.224,2.331 -2.453,3.93 -1.048,7.326 5.289,12.687 12.374,10.498 3.369,-1.041 5.789,-3.239 7.237,-6.392 2.01,-4.379 3.294,-9.036 4.934,-13.558 0.528,-1.458 1.021,-2.929 1.58,-4.375 0.347,-0.898 0.992,-1.092 1.482,-0.186 2.15,3.981 4.232,8 6.429,12.179 -1.262,0.026 -2.32,-0.08 -3.042,0.826 -0.202,0.254 -0.429,0.568 -0.236,0.862 0.106,0.163 0.454,0.203 0.702,0.232 0.676,0.077 1.395,-0.082 2.062,0.403 -0.885,0.544 -2.525,0.802 -2.015,2.042 0.536,1.301 1.8,-0.654 2.849,0.131 -0.231,0.682 -1.186,1.12 -1.084,2.048 0.035,0.313 -0.027,0.694 0.32,0.842 0.279,0.118 0.484,-0.15 0.664,-0.334 0.695,-0.714 1.516,-0.608 2.392,-0.461 1.592,0.267 3.25,-0.06 4.817,0.562 0.289,0.114 0.735,-0.073 1.074,-0.208 0.22,-0.088 0.477,-0.304 0.541,-0.516 C 29.064,4.389 28.721,4.295 28.477,4.2 26.263,3.346 25.115,1.513 24.083,-0.472 20.086,-8.16 16.058,-15.832 12.026,-23.501 c -0.229,-0.436 -0.319,-1.188 -0.955,-1.104 -0.483,0.064 -0.52,0.754 -0.687,1.192 -1.994,5.249 -3.981,10.5 -5.957,15.755 -0.422,1.123 -1.009,2.117 -1.925,2.909 -2.349,2.03 -5.015,1.379 -6.19,-1.495 -0.188,-0.459 -0.094,-1.294 -0.711,-1.275 -0.752,0.024 -0.848,0.875 -0.992,1.475 -0.634,2.629 0.929,5.097 3.586,5.71 C -1.289,-0.215 -0.762,-0.14 0,0"
             style="fill:#67462f;fill-opacity:1;fill-rule:nonzero;stroke:none"
             id="path3670"
             inkscape:connector-curvature="0" /></g><g
           id="g3672"
           transform="translate(737.6947,1345.2102)"><path
             d="M 0,0 0,-29.723"
             style="fill:none;stroke:#67462f;stroke-width:3;stroke-linecap:butt;stroke-linejoin:miter;stroke-miterlimit:10;stroke-dasharray:none;stroke-opacity:1"
             id="path3674"
             inkscape:connector-curvature="0" /></g></g></g><text
       transform="matrix(1,0,0,-1,768.7212,1317.4868)"
       style="font-variant:normal;font-weight:normal;font-stretch:normal;font-size:36px;font-family:Garamond;-inkscape-font-specification:Garamond;writing-mode:lr-tb;fill:#67462f;fill-opacity:1;fill-rule:nonzero;stroke:none"
       id="text3676"><tspan
         x="0 27.756001 36 59.616001 68.615997 92.987999 101.232 109.476 120.744 128.98801 147.34801 158.616 186.73199 205.092 220.104 229.104 251.964 270.32401 288.22681 304.41599 319.42801 332.13959 342.65161 357.6636"
         y="0"
         sodipodi:role="line"
         id="tspan3678">DiY All-in-One Converter</tspan></text>
<text
       transform="matrix(1,0,0,-1,694.1021,760.8037)"
       style="font-variant:normal;font-weight:normal;font-stretch:normal;font-size:13px;font-family:Garamond;-inkscape-font-specification:Garamond;writing-mode:lr-tb;fill:#67462f;fill-opacity:1;fill-rule:nonzero;stroke:none"
       id="text3680"><tspan
         x="0 10.5313 15.8093 22.439301 26.2353 29.4853 33.2813 39.911301 43.161301 46.138302 51.559299 56.837299 61.4263 68.056297 71.306297 81.3293 87.959297 92.2883 97.709297 100.9593 106.2373 112.8673 119.4973 125.8673 129.6633 132.9133 141.7247 145.7937 149.0437 154.3217 160.95171 167.45171"
         y="0"
         sodipodi:role="line"
         id="tspan3682">Want to learn more about V² and </tspan><tspan
         x="0 6.6300001 13 17.329 20.579 27.209 31.538 38.167999 44.667999 51.037998 56.459 60.255001 65 69.745003 72.995003 79.222 84.642998 89.920998 96.551003 99.801003 106.431 112.801 117.13 120.38 130.403 138.528 141.778 147.19901 153.82899 160.32899 165.7435"
         y="15.6"
         sodipodi:role="line"
         id="tspan3684">our products? Scan our QR code </tspan><tspan
         x="0 8.6709995 11.648 15.444 22.073999 25.323999 30.5578 37.187801 43.5578 47.886799 51.136799 57.7668 64.396797 71.026802 77.656799 83.077797 86.327797 90.123802 96.753799 100.0038 105.2571 111.8871 117.3081 122.5484 128.6454 131.8954 138.52541 144.8954 148.68359"
         y="31.200001"
         sodipodi:role="line"
         id="tspan3686">with your phone to check out </tspan><tspan
         x="0 6.6300001 13 17.329 20.579 29.0784 34.499401 41.129398 45.874401 48.851398 52.6474 58.068401 61.318401 66.739403 71.068398 76.489403 81.767403 85.5634 90.984398 97.484398 100.7344 106.0124 112.6424 119.1424 122.3924 128.8924 134.3134 139.0584 141.9964 147.8204 154.45039 159.8649 166.3649"
         y="46.799999"
         sodipodi:role="line"
         id="tspan3688">our website created and designed </tspan><tspan
         x="0 4.1989999 10.829 15.158 18.408001 28.431 35.061001 41.561001 47.931 50.908001 56.186001 60.514999 63.764999 69.185997 75.816002 85.838997 92.469002 98.838997 102.635 105.612 112.242 117.5018"
         y="62.400002"
         sodipodi:role="line"
         id="tspan3690">for modular computing.</tspan></text>
<g
       id="g3692"><g
         id="g3694"
         clip-path="url(#clipPath3696)"><path
           d="m 871.802,1683.29 -12.274,0 0,5.806 12.274,0 0,-5.806 z"
           style="fill:#b1845c;fill-opacity:1;fill-rule:nonzero;stroke:none"
           id="path3700"
           inkscape:connector-curvature="0" /><g
           id="g3702"
           transform="translate(760.7941,1563.7114)"><path
             d="M 0,0 43.548,0"
             style="fill:none;stroke:#67462f;stroke-width:1;stroke-linecap:butt;stroke-linejoin:miter;stroke-miterlimit:10;stroke-dasharray:none;stroke-opacity:1"
             id="path3704"
             inkscape:connector-curvature="0" /></g></g></g><text
       transform="matrix(1,0,0,-1,703.9658,1559.8892)"
       style="font-variant:normal;font-weight:normal;font-stretch:normal;font-size:12px;font-family:Garamond;-inkscape-font-specification:Garamond;writing-mode:lr-tb;fill:#67462f;fill-opacity:1;fill-rule:nonzero;stroke:none"
       id="text3706"><tspan
         x="0 8.7192001 13.7232 18.7272 24.8472 30.967199 35.839199 39.835201"
         y="0"
         sodipodi:role="line"
         id="tspan3708">Keyboard</tspan></text>
<g
       id="g3710"><g
         id="g3712"
         clip-path="url(#clipPath3714)"><g
           id="g3718"
           transform="translate(869.9669,1594.6354)"><path
             d="M 0,0 -6.625,6.006 C -6.838,6.2 -6.871,6.524 -6.702,6.757 l 0.259,0.354 c 0.175,0.24 0.133,0.576 -0.094,0.765 l -2.33,1.943 c -0.019,0.015 -0.033,0.027 -0.054,0.04 -0.258,0.164 -1.474,0.879 -2.991,0.455 -1.421,-0.396 -2.097,-1.51 -2.254,-1.794 -0.015,-0.027 -0.029,-0.047 -0.047,-0.071 -0.565,-0.719 -1.13,-1.439 -1.695,-2.158 -0.185,-0.236 -0.521,-0.284 -0.764,-0.109 l -0.244,0.175 c -0.24,0.173 -0.573,0.127 -0.759,-0.103 l -5.431,-6.743 c -0.18,-0.224 -0.164,-0.548 0.039,-0.752 l 0.006,-0.005 c 0.199,-0.201 0.219,-0.519 0.045,-0.743 L -23.65,-2.81 c -0.106,-0.137 -0.269,-0.217 -0.441,-0.217 l -0.652,0 c -0.165,0 -0.321,-0.073 -0.427,-0.2 l -5.912,-7.03 0.632,-0.635 -0.938,-1.146 c -0.106,-0.13 -0.264,-0.205 -0.431,-0.205 l -1.045,0 c -0.171,0 -0.333,-0.079 -0.439,-0.214 l -5.202,-6.635 c -0.142,-0.181 -0.16,-0.432 -0.044,-0.631 l 0.169,-0.292 c 0.116,-0.199 0.098,-0.45 -0.044,-0.631 l -0.667,-0.85 c -0.164,-0.209 -0.451,-0.274 -0.688,-0.155 l -0.155,0.078 c -0.228,0.115 -0.503,0.061 -0.67,-0.131 l -5.654,-6.481 c -0.175,-0.2 -0.186,-0.496 -0.027,-0.709 l 0.155,-0.208 c 0.163,-0.219 0.146,-0.525 -0.042,-0.724 l -0.867,-0.918 c -0.18,-0.191 -0.468,-0.23 -0.692,-0.095 -0.234,0.142 -0.535,0.092 -0.713,-0.117 l -5.462,-6.436 c -0.141,-0.166 -0.174,-0.399 -0.084,-0.598 l 0.117,-0.26 c 0.081,-0.179 0.063,-0.387 -0.047,-0.549 l -0.722,-1.066 c -0.162,-0.239 -0.477,-0.315 -0.729,-0.177 l -0.032,0.017 c -0.229,0.126 -0.515,0.075 -0.687,-0.122 l -5.63,-6.454 c -0.181,-0.206 -0.186,-0.514 -0.013,-0.727 l 0.126,-0.155 c 0.167,-0.204 0.169,-0.497 0.007,-0.704 l -2.652,-3.384 c -0.175,-0.224 -0.157,-0.544 0.044,-0.746 l 0.138,-0.139 c 0.092,-0.093 0.149,-0.214 0.161,-0.345 l 0.117,-1.233 c 0.014,-0.152 0.089,-0.291 0.207,-0.386 l 6.929,-5.574 c 0.221,-0.177 0.539,-0.161 0.74,0.039 l 42.976,42.531 c 0.012,0.012 0.023,0.024 0.034,0.037 L 0.051,-2.073 c 0.086,0.102 0.134,0.231 0.134,0.365 l 0,1.29 C 0.185,-0.258 0.118,-0.107 0,0"
             style="fill:#b1845c;fill-opacity:1;fill-rule:nonzero;stroke:none"
             id="path3720"
             inkscape:connector-curvature="0" /></g><g
           id="g3722"
           transform="translate(869.9669,1594.6354)"><path
             d="M 0,0 -6.625,6.006 C -6.838,6.2 -6.871,6.524 -6.702,6.757 l 0.259,0.354 c 0.175,0.24 0.133,0.576 -0.094,0.765 l -2.33,1.943 c -0.019,0.015 -0.033,0.027 -0.054,0.04 -0.258,0.164 -1.474,0.879 -2.991,0.455 -1.421,-0.396 -2.097,-1.51 -2.254,-1.794 -0.015,-0.027 -0.029,-0.047 -0.047,-0.071 -0.565,-0.719 -1.13,-1.439 -1.695,-2.158 -0.185,-0.236 -0.521,-0.284 -0.764,-0.109 l -0.244,0.175 c -0.24,0.173 -0.573,0.127 -0.759,-0.103 l -5.431,-6.743 c -0.18,-0.224 -0.164,-0.548 0.039,-0.752 l 0.006,-0.005 c 0.199,-0.201 0.219,-0.519 0.045,-0.743 L -23.65,-2.81 c -0.106,-0.137 -0.269,-0.217 -0.441,-0.217 l -0.652,0 c -0.165,0 -0.321,-0.073 -0.427,-0.2 l -5.912,-7.03 0.632,-0.635 -0.938,-1.146 c -0.106,-0.13 -0.264,-0.205 -0.431,-0.205 l -1.045,0 c -0.171,0 -0.333,-0.079 -0.439,-0.214 l -5.202,-6.635 c -0.142,-0.181 -0.16,-0.432 -0.044,-0.631 l 0.169,-0.292 c 0.116,-0.199 0.098,-0.45 -0.044,-0.631 l -0.667,-0.85 c -0.164,-0.209 -0.451,-0.274 -0.688,-0.155 l -0.155,0.078 c -0.228,0.115 -0.503,0.061 -0.67,-0.131 l -5.654,-6.481 c -0.175,-0.2 -0.186,-0.496 -0.027,-0.709 l 0.155,-0.208 c 0.163,-0.219 0.146,-0.525 -0.042,-0.724 l -0.867,-0.918 c -0.18,-0.191 -0.468,-0.23 -0.692,-0.095 -0.234,0.142 -0.535,0.092 -0.713,-0.117 l -5.462,-6.436 c -0.141,-0.166 -0.174,-0.399 -0.084,-0.598 l 0.117,-0.26 c 0.081,-0.179 0.063,-0.387 -0.047,-0.549 l -0.722,-1.066 c -0.162,-0.239 -0.477,-0.315 -0.729,-0.177 l -0.032,0.017 c -0.229,0.126 -0.515,0.075 -0.687,-0.122 l -5.63,-6.454 c -0.181,-0.206 -0.186,-0.514 -0.013,-0.727 l 0.126,-0.155 c 0.167,-0.204 0.169,-0.497 0.007,-0.704 l -2.652,-3.384 c -0.175,-0.224 -0.157,-0.544 0.044,-0.746 l 0.138,-0.139 c 0.092,-0.093 0.149,-0.214 0.161,-0.345 l 0.117,-1.233 c 0.014,-0.152 0.089,-0.291 0.207,-0.386 l 6.929,-5.574 c 0.221,-0.177 0.539,-0.161 0.74,0.039 l 42.976,42.531 c 0.012,0.012 0.023,0.024 0.034,0.037 L 0.051,-2.073 c 0.086,0.102 0.134,0.231 0.134,0.365 l 0,1.29 C 0.185,-0.258 0.118,-0.107 0,0 Z"
             style="fill:none;stroke:#67462f;stroke-width:2;stroke-linecap:butt;stroke-linejoin:miter;stroke-miterlimit:10;stroke-dasharray:none;stroke-opacity:1"
             id="path3724"
             inkscape:connector-curvature="0" /></g><g
           id="g3726"
           transform="translate(1021.1363,1172.3102)"><path
             d="m 0,0 7.409,0 c 0.6,0 1.086,-0.486 1.086,-1.086 l 0,-14.817 c 0,-0.712 0.669,-1.218 1.36,-1.05 1.241,0.302 3.069,0.511 5.136,-0.049 1.179,-0.32 2.15,-0.812 2.911,-1.31 0.71,-0.465 1.655,0.083 1.655,0.932 l 0,16.294 c 0,0.6 0.486,1.086 1.085,1.086 l 3.365,0 c 0.598,0 1.083,-0.483 1.086,-1.08 l 0.599,-127.225 c 0.003,-0.598 0.488,-1.081 1.086,-1.081 l 20.04,0 c 0.599,0 1.085,-0.486 1.085,-1.085 l 0,-3.656 c 0,-0.6 -0.486,-1.086 -1.085,-1.086 l -20.035,0 c -0.6,0 -1.086,-0.486 -1.086,-1.086 l 0,-21.631 1.07,0 0,-8.197 -1.07,0 0,-7.264 c 0,-0.523 0.369,-0.974 0.884,-1.066 2.421,-0.433 8.976,-2.12 8.976,-7.671 l 0,-57.976 c 0,0 0.164,-24.541 15.902,-41.384 15.738,-16.843 33.384,-15.823 34.964,-15.309 1.507,0.491 3.647,4.545 3.838,4.912 0.011,0.021 0.016,0.031 0.029,0.052 0.192,0.312 2.219,3.414 6.491,2.444 4.181,-0.95 5.038,-5.77 5.137,-6.441 0.008,-0.054 0.011,-0.1 0.011,-0.155 l 0,-14.344 c 0,-0.6 -0.486,-1.086 -1.086,-1.086 l -184.796,0 c -0.599,0 -1.085,0.486 -1.085,1.086 l 0,14.334 c 0,0.127 0.02,0.247 0.063,0.367 0.384,1.052 2.49,6.323 6.159,6.041 4.075,-0.313 5.037,-1.876 5.037,-1.876 l 0.08,1.82 c 0.012,0.289 -0.091,0.571 -0.287,0.783 l -0.22,0.238 c -0.375,0.407 -0.385,1.03 -0.022,1.448 l 3.906,4.501 -1.086,0.889 8.197,9.778 1.087,-1.087 1.159,1.432 c 0.307,0.38 0.324,0.917 0.04,1.315 l -0.009,0.012 c -0.292,0.409 -0.265,0.966 0.065,1.345 l 7.535,8.637 1.186,-0.889 1.277,1.633 c 0.297,0.379 0.308,0.908 0.028,1.3 l -0.014,0.019 c -0.293,0.412 -0.265,0.971 0.07,1.35 l 7.626,8.637 0.988,-0.691 1.778,1.876 -1.087,1.185 8.297,9.285 0.988,-0.791 1.223,1.36 c 0.327,0.363 0.371,0.901 0.106,1.313 -0.261,0.406 -0.222,0.936 0.095,1.3 l 7.465,8.571 0.987,-0.691 1.877,2.37 -0.889,1.086 8,9.186 1.383,-0.494 4.431,5.077 c 0.197,0.227 0.481,0.361 0.781,0.371 l 2.108,0.07 c 0.248,0.008 0.492,-0.069 0.69,-0.218 l 4.929,-3.72 -1.087,-1.284 7.572,-6.296 c 0.712,-0.593 1.791,-0.089 1.78,0.838 -0.098,7.613 -0.365,31.451 0.031,36.57 0.389,5.021 7.203,7.058 9.624,7.626 0.494,0.115 0.845,0.551 0.845,1.058 l 0,8.205 -1.777,0 0,5.926 1.679,0 0,23.31 c 0,0.6 -0.486,1.086 -1.086,1.086 l -1.187,0 c -0.599,0 -1.085,0.486 -1.085,1.086 l 0,3.458 c 0,0.6 0.486,1.086 1.085,1.086 l 1.187,0 c 0.6,0 1.086,0.486 1.086,1.085 l 0,44.744 c 0,0.599 -0.486,1.086 -1.086,1.086 l -3.162,0 c -0.6,0 -1.086,0.486 -1.086,1.085 l 0,2.47 -1.762,0 0,11.852 1.565,0 0,15.014 c 0,0.599 -0.486,1.085 -1.086,1.085 l -7.113,0 c -0.6,0 -1.086,-0.486 -1.086,-1.085 l 0,-49.781 c 0,-0.599 -0.486,-1.085 -1.085,-1.085 l -3.755,0 c -0.6,0 -1.086,0.486 -1.086,1.085 l 0,100.547 C -1.086,-0.486 -0.6,0 0,0"
             style="fill:#67462f;fill-opacity:1;fill-rule:nonzero;stroke:none"
             id="path3728"
             inkscape:connector-curvature="0" /></g><g
           id="g3730"
           transform="translate(1030.6388,948.7834)"><path
             d="m 0,0 -72.373,-74.798 c 0,0 56.162,-0.766 64.714,15.445 C 2.425,-46.462 0,0 0,0"
             style="fill:#b1845c;fill-opacity:1;fill-rule:nonzero;stroke:none"
             id="path3732"
             inkscape:connector-curvature="0" /></g><g
           id="g3734"
           transform="translate(1030.0333,951.4189)"><path
             d="M 0,0 -8.534,7.737 C -8.808,7.986 -8.851,8.404 -8.633,8.704 L -8.3,9.16 c 0.226,0.309 0.172,0.741 -0.121,0.986 l -3.001,2.502 c -0.024,0.02 -0.043,0.035 -0.069,0.051 -0.333,0.212 -1.899,1.133 -3.853,0.587 -1.831,-0.51 -2.702,-1.945 -2.904,-2.311 -0.019,-0.034 -0.037,-0.06 -0.061,-0.091 C -19.036,9.957 -19.764,9.03 -20.492,8.103 -20.73,7.8 -21.163,7.738 -21.475,7.963 l -0.315,0.226 c -0.31,0.222 -0.738,0.164 -0.978,-0.134 l -6.996,-8.685 c -0.232,-0.288 -0.211,-0.706 0.05,-0.968 l 0.008,-0.008 c 0.256,-0.258 0.282,-0.668 0.059,-0.956 l -0.818,-1.058 c -0.136,-0.177 -0.346,-0.28 -0.568,-0.28 l -0.84,0 c -0.212,0 -0.413,-0.094 -0.549,-0.256 l -7.616,-9.056 0.814,-0.819 -1.208,-1.476 c -0.137,-0.167 -0.341,-0.263 -0.556,-0.263 l -1.346,0 c -0.22,0 -0.428,-0.102 -0.565,-0.276 l -6.701,-8.547 c -0.183,-0.234 -0.206,-0.556 -0.057,-0.814 l 0.218,-0.375 c 0.149,-0.257 0.127,-0.58 -0.057,-0.814 l -0.858,-1.094 c -0.212,-0.27 -0.582,-0.353 -0.887,-0.199 l -0.2,0.1 c -0.293,0.148 -0.647,0.078 -0.863,-0.17 l -7.283,-8.348 c -0.225,-0.257 -0.24,-0.638 -0.035,-0.912 l 0.2,-0.268 c 0.21,-0.283 0.187,-0.677 -0.054,-0.933 l -1.116,-1.182 c -0.233,-0.246 -0.604,-0.297 -0.893,-0.123 -0.301,0.182 -0.689,0.119 -0.917,-0.15 l -7.037,-8.292 c -0.182,-0.213 -0.224,-0.514 -0.108,-0.77 l 0.151,-0.335 c 0.104,-0.23 0.081,-0.498 -0.06,-0.707 l -0.931,-1.373 c -0.208,-0.308 -0.614,-0.406 -0.939,-0.228 l -0.041,0.022 c -0.296,0.163 -0.663,0.097 -0.886,-0.158 l -7.252,-8.313 c -0.232,-0.266 -0.239,-0.662 -0.016,-0.936 l 0.163,-0.2 c 0.214,-0.263 0.217,-0.641 0.008,-0.908 l -3.416,-4.359 c -0.226,-0.288 -0.202,-0.701 0.056,-0.96 l 0.178,-0.179 c 0.119,-0.12 0.192,-0.276 0.208,-0.444 l 0.15,-1.589 c 0.019,-0.195 0.115,-0.375 0.267,-0.497 l 8.925,-7.18 c 0.285,-0.229 0.695,-0.207 0.955,0.05 l 55.359,54.786 c 0.015,0.015 0.029,0.031 0.043,0.047 L 0.066,-2.67 c 0.111,0.131 0.172,0.297 0.172,0.469 l 0,1.663 C 0.238,-0.333 0.151,-0.137 0,0"
             style="fill:#b1845c;fill-opacity:1;fill-rule:nonzero;stroke:none"
             id="path3736"
             inkscape:connector-curvature="0" /></g><g
           id="g3738"
           transform="translate(1030.0333,951.4189)"><path
             d="M 0,0 -8.534,7.737 C -8.808,7.986 -8.851,8.404 -8.633,8.704 L -8.3,9.16 c 0.226,0.309 0.172,0.741 -0.121,0.986 l -3.001,2.502 c -0.024,0.02 -0.043,0.035 -0.069,0.051 -0.333,0.212 -1.899,1.133 -3.853,0.587 -1.831,-0.51 -2.702,-1.945 -2.904,-2.311 -0.019,-0.034 -0.037,-0.06 -0.061,-0.091 C -19.036,9.957 -19.764,9.03 -20.492,8.103 -20.73,7.8 -21.163,7.738 -21.475,7.963 l -0.315,0.226 c -0.31,0.222 -0.738,0.164 -0.978,-0.134 l -6.996,-8.685 c -0.232,-0.288 -0.211,-0.706 0.05,-0.968 l 0.008,-0.008 c 0.256,-0.258 0.282,-0.668 0.059,-0.956 l -0.818,-1.058 c -0.136,-0.177 -0.346,-0.28 -0.568,-0.28 l -0.84,0 c -0.212,0 -0.413,-0.094 -0.549,-0.256 l -7.616,-9.056 0.814,-0.819 -1.208,-1.476 c -0.137,-0.167 -0.341,-0.263 -0.556,-0.263 l -1.346,0 c -0.22,0 -0.428,-0.102 -0.565,-0.276 l -6.701,-8.547 c -0.183,-0.234 -0.206,-0.556 -0.057,-0.814 l 0.218,-0.375 c 0.149,-0.257 0.127,-0.58 -0.057,-0.814 l -0.858,-1.094 c -0.212,-0.27 -0.582,-0.353 -0.887,-0.199 l -0.2,0.1 c -0.293,0.148 -0.647,0.078 -0.863,-0.17 l -7.283,-8.348 c -0.225,-0.257 -0.24,-0.638 -0.035,-0.912 l 0.2,-0.268 c 0.21,-0.283 0.187,-0.677 -0.054,-0.933 l -1.116,-1.182 c -0.233,-0.246 -0.604,-0.297 -0.893,-0.123 -0.301,0.182 -0.689,0.119 -0.917,-0.15 l -7.037,-8.292 c -0.182,-0.213 -0.224,-0.514 -0.108,-0.77 l 0.151,-0.335 c 0.104,-0.23 0.081,-0.498 -0.06,-0.707 l -0.931,-1.373 c -0.208,-0.308 -0.614,-0.406 -0.939,-0.228 l -0.041,0.022 c -0.296,0.163 -0.663,0.097 -0.886,-0.158 l -7.252,-8.313 c -0.232,-0.266 -0.239,-0.662 -0.016,-0.936 l 0.163,-0.2 c 0.214,-0.263 0.217,-0.641 0.008,-0.908 l -3.416,-4.359 c -0.226,-0.288 -0.202,-0.701 0.056,-0.96 l 0.178,-0.179 c 0.119,-0.12 0.192,-0.276 0.208,-0.444 l 0.15,-1.589 c 0.019,-0.195 0.115,-0.375 0.267,-0.497 l 8.925,-7.18 c 0.285,-0.229 0.695,-0.207 0.955,0.05 l 55.359,54.786 c 0.015,0.015 0.029,0.031 0.043,0.047 L 0.066,-2.67 c 0.111,0.131 0.172,0.297 0.172,0.469 l 0,1.663 C 0.238,-0.333 0.151,-0.137 0,0 Z"
             style="fill:none;stroke:#b1845c;stroke-width:1;stroke-linecap:butt;stroke-linejoin:miter;stroke-miterlimit:10;stroke-dasharray:none;stroke-opacity:1"
             id="path3740"
             inkscape:connector-curvature="0" /></g></g></g><text
       transform="matrix(1,0,0,-1,574.9668,1452.9224)"
       style="font-variant:normal;font-weight:normal;font-stretch:normal;font-size:12px;font-family:Garamond;-inkscape-font-specification:Garamond;writing-mode:lr-tb;fill:#67462f;fill-opacity:1;fill-rule:nonzero;stroke:none"
       id="text3742"><tspan
         x="0 5.7480001 11.868 14.616 20.736 26.856001 29.604 35.723999 41.099998 44.099998 51.48 57.380402"
         y="0"
         sodipodi:role="line"
         id="tspan3744">Shipping Box</tspan><tspan
         x="30.504 40.142399 45.1464 47.894402 53.270401 59.3904"
         y="28.799999"
         sodipodi:role="line"
         id="tspan3746">Weight</tspan><tspan
         x="-10.992 -3.612 -0.86400002 1.8839999 5.388 8.3879995 16.511999 22.511999 25.26 31.139999 35.52 39.023998 48.276001 53.279999 59.400002"
         y="57.599998"
         sodipodi:role="line"
         id="tspan3748">Tilt Adjustment</tspan></text>
<text
       transform="matrix(1,0,0,-1,656.3868,1452.9944)"
       style="font-variant:normal;font-weight:bold;font-stretch:normal;font-size:12px;font-family:Garamond;-inkscape-font-specification:Garamond-Bold;writing-mode:lr-tb;fill:#67462f;fill-opacity:1;fill-rule:nonzero;stroke:none"
       id="text3750"><tspan
         x="0 5.6279998 11.256 16.884001 22.884001 28.511999 34.139999 39.768002 45.768002 50.52 56.147999 66.276001"
         y="0"
         sodipodi:role="line"
         id="tspan3752">250x250x18mm</tspan><tspan
         x="0 5.6279998 8.6280003 15"
         y="28.799999"
         sodipodi:role="line"
         id="tspan3754">2 kg</tspan><tspan
         x="0 5.6279998 10.38 13.38 25.379999 28.379999 34.007999 39.636002"
         y="57.599998"
         sodipodi:role="line"
         id="tspan3756">0° … 25°</tspan><tspan
         x="-35.375999 -29.256001 -22.632 -17.004 -11.376 -8.0039997 -4.3800001 -1.008 4.6199999 10.368 14.124 17.496 23.747999 30.372"
         y="-28.872"
         sodipodi:role="line"
         id="tspan3758">Specifications</tspan></text>
<text
       transform="matrix(1,0,0,-1,808.1028,1452.9104)"
       style="font-variant:normal;font-weight:normal;font-stretch:normal;font-size:12px;font-family:Garamond;-inkscape-font-specification:Garamond;writing-mode:lr-tb;fill:#67462f;fill-opacity:1;fill-rule:nonzero;stroke:none"
       id="text3760"><tspan
         x="0 9.2519999 12 16.379999 22.5 25.247999 29.9652 34.9692 37.9692 43.717201 46.465199 51.589199"
         y="0"
         sodipodi:role="line"
         id="tspan3762">Display Size</tspan><tspan
         x="-7.9200001 0.204 8.0760002 13.824 21.948 24.948 34.944 41.063999 46.944 53.063999"
         y="28.799999"
         sodipodi:role="line"
         id="tspan3764">VESA Mount</tspan><tspan
         x="-24.132 -14.136 -9.2639999 -3.7679999 -1.14 1.86 11.112 13.86 18.24 24.360001 27.108 31.8372 36.841202 39.841202 50.461201 53.965199"
         y="57.599998"
         sodipodi:role="line"
         id="tspan3766">Max, Display Wt.</tspan></text>
<text
       transform="matrix(1,0,0,-1,883.2228,1452.9824)"
       style="font-variant:normal;font-weight:bold;font-stretch:normal;font-size:12px;font-family:Garamond;-inkscape-font-specification:Garamond-Bold;writing-mode:lr-tb;fill:#67462f;fill-opacity:1;fill-rule:nonzero;stroke:none"
       id="text3768"><tspan
         x="0 5.6279998 11.256 14.256 17.375999 20.496 23.615999 26.615999 32.243999 37.872002"
         y="0"
         sodipodi:role="line"
         id="tspan3770">22 ... 29”</tspan><tspan
         x="0 5.6279998 11.256 14.256 23.879999 26.879999 31.632 37.259998 42.888 53.015999"
         y="28.799999"
         sodipodi:role="line"
         id="tspan3772">75 &amp; 100mm</tspan><tspan
         x="0 5.6279998 8.6280003 15"
         y="57.599998"
         sodipodi:role="line"
         id="tspan3774">6 kg</tspan><tspan
         x="-63.492001 -54.119999 -50.748001 -45.743999 -39.119999 -36 -30.252001 -24.624001 -21.624001 -13.5 -7.2480001 2.8800001 9.5039997 15.252 19.007999 22.379999 29.004 32.375999 35.495998 38.868 42.624001"
         y="-28.872"
         sodipodi:role="line"
         id="tspan3776">Display Compatibility</tspan><tspan
         x="139.98 147.8604 151.23241 157.3524 161.1084 166.8564 173.48039"
         y="-1.0658141e-014"
         sodipodi:role="line"
         id="tspan3778">ViStand</tspan><tspan
         x="107.364 115.368 123.864 129.98399 137.856 140.856 151.86 158.112 164.73599 171.36 175.116"
         y="28.799999"
         sodipodi:role="line"
         id="tspan3780">VESA Mounts</tspan><tspan
         x="125.592 133.716 139.464 143.9904 148.6188 154.2468 157.2468 165.9948 170.1228 173.4948"
         y="57.599998"
         sodipodi:role="line"
         id="tspan3782">Carry Grip</tspan><tspan
         x="198.66 206.784 212.3064 218.9304 222.0504 227.67841 230.67841 238.9344 242.3064 247.9344"
         y="-1.0658141e-014"
         sodipodi:role="line"
         id="tspan3784">Cable Ties</tspan><tspan
         x="198.66 204.78 210.408 214.64999 220.278 228.774"
         y="28.799999"
         sodipodi:role="line"
         id="tspan3786">Screws</tspan><tspan
         x="149.28 160.24921 166.8732 172.6212 176.3772 179.1684 184.17239 187.17239 191.92439 198.5484 204.17641 207.2964 213.92039 220.5444 226.17239"
         y="-28.872"
         sodipodi:role="line"
         id="tspan3788">What’s Included</tspan></text>
<g
       id="g3790"><g
         id="g3792"
         clip-path="url(#clipPath3794)"><path
           d="m 888.575,1758.573 8.25,0 0,-55.721 -8.25,0 0,55.721 z"
           style="fill:#67462f;fill-opacity:1;fill-rule:nonzero;stroke:none"
           id="path3798"
           inkscape:connector-curvature="0" /></g></g><text
       transform="matrix(1,0,0,-1,913.1597,760.7705)"
       style="font-variant:normal;font-weight:normal;font-stretch:normal;font-size:13px;font-family:Garamond;-inkscape-font-specification:Garamond;writing-mode:lr-tb;fill:#67462f;fill-opacity:1;fill-rule:nonzero;stroke:none"
       id="text3800"><tspan
         x="0 8.8009996 11.778 18.004999 21.7945 27.0725 33.702499 40.202499 43.452499 46.429501 51.1745 54.4245 59.702499 66.332497 69.582497 74.860497 77.837502 80.814499 84.883499 87.852699 94.482697 98.551697 105.1817 111.8117 117.2249 120.4749 125.7178 132.34779 137.62579 142.3708 147.1158 150.0928 154.4348 157.2818 160.5318 166.3493 169.15469 175.25169 178.2287 184.8587 190.68269 193.93269 199.1743 205.80431 212.1743 215.4243 219.21381 225.8438 231.2583"
         y="0"
         sodipodi:role="line"
         id="tspan3802">ViStand is an all-in-one chassis, giving you the </tspan><tspan
         x="0 4.1989999 8.5358 13.949 19.363501 25.863501 32.4935 42.516499 45.766499 52.3965 58.293301 61.543301 66.786201 73.416199 80.046204 86.676201 91.421204 94.398201 101.0282 106.8522 110.1022 116.7322 123.1945 131.8577 135.1077 140.3519 146.9819 153.3519 156.6019 165.09351 170.37151 177.0015 180.7897 184.0397 189.28259 195.9126 202.28259 206.6116 209.8616 217.1806 225.43559"
         y="15.6"
         sodipodi:role="line"
         id="tspan3804">freedom of choosing how you want your PC </tspan><tspan
         x="0 5.4145002 12.0445 18.6745 22.873501 25.8505 31.6745 38.044498 42.373501 47.787998 54.287998 57.537998 60.514999 67.144997 70.394997 74.183197 80.813202 86.227699 89.477699 94.222702 97.199699 107.2227 113.8527 116.8297 119.8067 125.2199 128.1969 131.98511 137.3996 140.6496 147.2796 153.17641 156.42641 161.70441 168.3344 171.5844 176.8624 179.8394 182.81641 186.88541 189.8546 196.4846 200.5536 207.18359 213.8136 218.9798 221.8268"
         y="31.200001"
         sodipodi:role="line"
         id="tspan3806">configured in the simplicity of an all-in-one. </tspan></text>
<g
       id="g3808"><g
         id="g3810"
         clip-path="url(#clipPath3812)"><g
           id="g3816"
           transform="translate(886.1973,794.8693)"><path
             d="M 0,0 0,-153.4"
             style="fill:none;stroke:#67462f;stroke-width:5;stroke-linecap:butt;stroke-linejoin:miter;stroke-miterlimit:10;stroke-dasharray:none;stroke-opacity:1"
             id="path3818"
             inkscape:connector-curvature="0" /></g></g></g></g></svg>