<?xml version="1.0" encoding="UTF-8" standalone="no"?>
<!-- Created with Inkscape (http://www.inkscape.org/) -->

<svg
   xmlns:dc="http://purl.org/dc/elements/1.1/"
   xmlns:cc="http://creativecommons.org/ns#"
   xmlns:rdf="http://www.w3.org/1999/02/22-rdf-syntax-ns#"
   xmlns:svg="http://www.w3.org/2000/svg"
   xmlns="http://www.w3.org/2000/svg"
   xmlns:sodipodi="http://sodipodi.sourceforge.net/DTD/sodipodi-0.dtd"
   xmlns:inkscape="http://www.inkscape.org/namespaces/inkscape"
   id="svg3336"
   version="1.1"
   inkscape:version="0.91 r13725"
   xml:space="preserve"
   width="998.42499"
   height="1866.28"
   viewBox="0 0 998.42496 1866.28"
   sodipodi:docname="ViStand-Packaging.svg"><metadata
     id="metadata3342"><rdf:RDF><cc:Work
         rdf:about=""><dc:format>image/svg+xml</dc:format><dc:type
           rdf:resource="http://purl.org/dc/dcmitype/StillImage" /><dc:title></dc:title></cc:Work></rdf:RDF></metadata><defs
     id="defs3340"><clipPath
       clipPathUnits="userSpaceOnUse"
       id="clipPath3362"><path
         d="m 0,2267.72 1700.79,0 L 1700.79,0 0,0 0,2267.72 Z"
         id="path3364"
         inkscape:connector-curvature="0" /></clipPath><clipPath
       clipPathUnits="userSpaceOnUse"
       id="clipPath3422"><path
         d="m 0,2267.72 1700.79,0 L 1700.79,0 0,0 0,2267.72 Z"
         id="path3424"
         inkscape:connector-curvature="0" /></clipPath><clipPath
       clipPathUnits="userSpaceOnUse"
       id="clipPath3454"><path
         d="m 0,2267.72 1700.79,0 L 1700.79,0 0,0 0,2267.72 Z"
         id="path3456"
         inkscape:connector-curvature="0" /></clipPath><clipPath
       clipPathUnits="userSpaceOnUse"
       id="clipPath3486"><path
         d="m 0,2267.72 1700.79,0 L 1700.79,0 0,0 0,2267.72 Z"
         id="path3488"
         inkscape:connector-curvature="0" /></clipPath><clipPath
       clipPathUnits="userSpaceOnUse"
       id="clipPath3548"><path
         d="m 0,2267.72 1700.79,0 L 1700.79,0 0,0 0,2267.72 Z"
         id="path3550"
         inkscape:connector-curvature="0" /></clipPath><clipPath
       clipPathUnits="userSpaceOnUse"
       id="clipPath3582"><path
         d="m 0,2267.72 1700.79,0 L 1700.79,0 0,0 0,2267.72 Z"
         id="path3584"
         inkscape:connector-curvature="0" /></clipPath><clipPath
       clipPathUnits="userSpaceOnUse"
       id="clipPath3604"><path
         d="m 0,2267.72 1700.79,0 L 1700.79,0 0,0 0,2267.72 Z"
         id="path3606"
         inkscape:connector-curvature="0" /></clipPath><clipPath
       clipPathUnits="userSpaceOnUse"
       id="clipPath3650"><path
         d="m 0,2267.72 1700.79,0 L 1700.79,0 0,0 0,2267.72 Z"
         id="path3652"
         inkscape:connector-curvature="0" /></clipPath><clipPath
       clipPathUnits="userSpaceOnUse"
       id="clipPath3666"><path
         d="m 0,2267.72 1700.79,0 L 1700.79,0 0,0 0,2267.72 Z"
         id="path3668"
         inkscape:connector-curvature="0" /></clipPath><clipPath
       clipPathUnits="userSpaceOnUse"
       id="clipPath3682"><path
         d="m 0,2267.72 1700.79,0 L 1700.79,0 0,0 0,2267.72 Z"
         id="path3684"
         inkscape:connector-curvature="0" /></clipPath><clipPath
       clipPathUnits="userSpaceOnUse"
       id="clipPath3706"><path
         d="m 0,2267.72 1700.79,0 L 1700.79,0 0,0 0,2267.72 Z"
         id="path3708"
         inkscape:connector-curvature="0" /></clipPath></defs><sodipodi:namedview
     pagecolor="#ffffff"
     bordercolor="#666666"
     borderopacity="1"
     objecttolerance="10"
     gridtolerance="10"
     guidetolerance="10"
     inkscape:pageopacity="0"
     inkscape:pageshadow="2"
     inkscape:window-width="1920"
     inkscape:window-height="1017"
     id="namedview3338"
     showgrid="false"
     fit-margin-top="0"
     fit-margin-left="0"
     fit-margin-right="0"
     fit-margin-bottom="0"
     inkscape:zoom="0.42306921"
     inkscape:cx="197.76598"
     inkscape:cy="1193.5359"
     inkscape:window-x="-8"
     inkscape:window-y="-8"
     inkscape:window-maximized="1"
     inkscape:current-layer="g3344" /><g
     id="g3344"
     inkscape:groupmode="layer"
     inkscape:label="ViStand-Package"
     transform="matrix(1.25,0,0,-1.25,-565.15875,2630.4663)"><path
       d="m 1198.639,1357.86 -694.488,0 0,694.488 694.488,0 0,-694.488 z"
       style="fill:#b1845c;fill-opacity:1;fill-rule:nonzero;stroke:#373535;stroke-width:2;stroke-linecap:butt;stroke-linejoin:miter;stroke-miterlimit:10;stroke-dasharray:none;stroke-opacity:1"
       id="path3346"
       inkscape:connector-curvature="0" /><path
       d="m 1198.639,612.349 -694.488,0 0,694.488 694.488,0 0,-694.488 z"
       style="fill:#b1845c;fill-opacity:1;fill-rule:nonzero;stroke:#373535;stroke-width:2;stroke-linecap:butt;stroke-linejoin:miter;stroke-miterlimit:10;stroke-dasharray:none;stroke-opacity:1"
       id="path3348"
       inkscape:connector-curvature="0" /><path
       d="m 1249.867,1357.86 -51.024,0 0,694.488 51.024,0 0,-694.488 z"
       style="fill:#b1845c;fill-opacity:1;fill-rule:nonzero;stroke:#373535;stroke-width:2;stroke-linecap:butt;stroke-linejoin:miter;stroke-miterlimit:10;stroke-dasharray:none;stroke-opacity:1"
       id="path3350"
       inkscape:connector-curvature="0" /><path
       d="m 1198.639,2052.349 -694.488,0 0,51.024 694.488,0 0,-51.024 z"
       style="fill:#67462f;fill-opacity:1;fill-rule:nonzero;stroke:#373535;stroke-width:2;stroke-linecap:butt;stroke-linejoin:miter;stroke-miterlimit:10;stroke-dasharray:none;stroke-opacity:1"
       id="path3352"
       inkscape:connector-curvature="0" /><path
       d="m 1198.639,1306.837 -694.488,0 0,51.024 694.488,0 0,-51.024 z"
       style="fill:#b1845c;fill-opacity:1;fill-rule:nonzero;stroke:#373535;stroke-width:2;stroke-linecap:butt;stroke-linejoin:miter;stroke-miterlimit:10;stroke-dasharray:none;stroke-opacity:1"
       id="path3354"
       inkscape:connector-curvature="0" /><path
       d="m 504.151,1357.86 -51.024,0 0,694.488 51.024,0 0,-694.488 z"
       style="fill:#b1845c;fill-opacity:1;fill-rule:nonzero;stroke:#373535;stroke-width:2;stroke-linecap:butt;stroke-linejoin:miter;stroke-miterlimit:10;stroke-dasharray:none;stroke-opacity:1"
       id="path3356"
       inkscape:connector-curvature="0" /><g
       id="g3358"><g
         id="g3360"
         clip-path="url(#clipPath3362)"><g
           id="g3366"
           transform="translate(674.5291,1176.2699)"><path
             d="m 0,0 c 0.003,0.054 0.006,0.102 0.01,0.156 0.103,0.624 0.457,2.187 1.805,3.559 1.456,1.482 5.466,3.702 6.939,3.883 4.021,0.492 7.317,0.63 8.696,0.479 0.019,-10e-4 0.035,-0.002 0.054,-0.003 107.762,-3.013 215.524,-6.025 323.286,-9.038 0.028,-0.002 0.051,-0.003 0.08,-0.005 0.444,-0.056 2.195,-0.342 3.488,-1.924 1.389,-1.699 1.213,-3.626 1.175,-3.977 -0.798,-62.307 -1.596,-124.614 -2.393,-186.921 -0.013,-0.995 -0.153,-1.982 -0.436,-2.935 -0.269,-0.903 -0.617,-1.886 -1.072,-2.92 -0.707,-1.606 -1.496,-2.936 -2.215,-3.99 -0.023,-0.029 -0.042,-0.053 -0.065,-0.082 -0.423,-0.468 -1.27,-1.274 -2.593,-1.793 -1.229,-0.481 -2.313,-0.495 -2.917,-0.459 -29.77,1.431 -59.541,2.862 -89.312,4.293 -0.51,0.024 -0.927,-0.401 -0.893,-0.911 -0.324,-4.67 -0.376,-10.088 0.16,-16.078 0.377,-4.214 0.988,-8.073 1.704,-11.529 0.266,1.163 0.531,2.325 0.797,3.487 0.095,0.418 0.487,0.701 0.914,0.659 l 2.241,-0.217 c 0.428,-0.041 0.758,-0.394 0.771,-0.823 l 0.331,-10.799 c 0.005,-0.17 -0.041,-0.338 -0.131,-0.482 l -20.581,-32.644 c -0.156,-0.248 -0.429,-0.399 -0.722,-0.399 l -2.298,0 c -0.469,0 -0.85,0.378 -0.854,0.846 l -0.112,12.141 c 0,0.099 0.016,0.198 0.049,0.292 l 0.487,1.378 c 0.113,0.321 0.406,0.544 0.746,0.568 l 2.4,0.165 c 0.327,0.023 0.613,0.231 0.734,0.535 0.909,1.652 1.841,3.554 2.707,5.699 0.919,2.275 1.596,4.407 2.101,6.319 0.015,0.039 0.031,0.086 0.043,0.141 0.01,0.048 0.016,0.097 0.017,0.147 0.424,3.283 0.786,6.671 1.071,10.162 0.895,10.979 0.889,21.216 0.341,30.546 0.002,0.058 0.007,0.357 -0.225,0.608 -0.147,0.16 -0.354,0.264 -0.588,0.275 l -107.446,5.141 c -0.322,0.016 -0.593,-0.244 -0.598,-0.566 -0.139,-8.942 0.345,-15.401 1.098,-20.153 0.299,-1.885 1.349,-8.509 2.721,-8.504 0.815,0.003 0.958,2.212 1.369,4.502 0.051,0.286 0.31,0.488 0.6,0.474 l 2.705,-0.132 c 0.417,-0.049 0.736,-0.394 0.753,-0.813 l 0.438,-10.515 c 0.009,-0.211 -0.06,-0.417 -0.194,-0.58 l -26.381,-31.941 c -0.18,-0.217 -0.455,-0.332 -0.736,-0.306 l -2.752,0.25 c -0.439,0.04 -0.776,0.409 -0.776,0.85 l 0,11.451 c 0,0.121 0.026,0.24 0.075,0.35 l 0.783,1.74 c 0.138,0.307 0.443,0.504 0.779,0.504 l 3.103,0 c 0.342,0 0.65,0.203 0.785,0.516 1.466,1.742 3.286,4.276 4.789,7.629 1.703,3.801 2.364,7.238 2.636,9.659 0.018,0.042 0.037,0.094 0.05,0.157 0.012,0.053 0.018,0.108 0.019,0.163 l 0.703,34.799 c 0.01,0.461 -0.35,0.847 -0.811,0.87 l -108.719,5.364 c -0.235,0.012 -2.777,0.652 -4.152,2.017 -1.811,1.797 -2.002,4.797 -2.008,5.054 C 3.049,-122.407 1.524,-61.204 0,0"
             style="fill:#67462f;fill-opacity:1;fill-rule:nonzero;stroke:none"
             id="path3368"
             inkscape:connector-curvature="0" /></g><g
           id="g3370"
           transform="translate(684.0364,1172.3102)"><path
             d="M 0,0 323.882,-9.096 321.608,-192.462 4.668,-177.501 0,0 Z"
             style="fill:#b1845c;fill-opacity:1;fill-rule:nonzero;stroke:none"
             id="path3372"
             inkscape:connector-curvature="0" /></g><g
           id="g3374"
           transform="translate(685.0785,877.6351)"><path
             d="m 0,0 0,2.211 -1.263,0.947 0,4.264 18.792,26.215 4.738,1.263 243.038,-14.055 0.789,0.79 10.897,-0.79 2.527,-5.053 -1.106,-3.474 -0.316,-6.159 -10.264,-21.793 -3.79,-1.106 L 1.263,-1.263 0,0 Z"
             style="fill:#67462f;fill-opacity:1;fill-rule:nonzero;stroke:none"
             id="path3376"
             inkscape:connector-curvature="0" /></g><g
           id="g3378"
           transform="translate(559.6339,1507.7305)"><path
             d="M 0,0 585.287,0"
             style="fill:none;stroke:#67462f;stroke-width:5;stroke-linecap:butt;stroke-linejoin:miter;stroke-miterlimit:10;stroke-dasharray:none;stroke-opacity:1"
             id="path3380"
             inkscape:connector-curvature="0" /></g><g
           id="g3382"
           transform="translate(558.8535,816.5753)"><path
             d="M 0,0 585.287,0"
             style="fill:none;stroke:#67462f;stroke-width:5;stroke-linecap:butt;stroke-linejoin:miter;stroke-miterlimit:10;stroke-dasharray:none;stroke-opacity:1"
             id="path3384"
             inkscape:connector-curvature="0" /></g><g
           id="g3386"
           transform="translate(986.615,1899.0601)"><path
             d="M 0,0 70.765,0"
             style="fill:none;stroke:#67462f;stroke-width:1;stroke-linecap:butt;stroke-linejoin:miter;stroke-miterlimit:10;stroke-dasharray:none;stroke-opacity:1"
             id="path3388"
             inkscape:connector-curvature="0" /></g><g
           id="g3390"
           transform="translate(901.8102,1757.9812)"><path
             d="M 0,0 155.57,0"
             style="fill:none;stroke:#67462f;stroke-width:1;stroke-linecap:butt;stroke-linejoin:miter;stroke-miterlimit:10;stroke-dasharray:none;stroke-opacity:1"
             id="path3392"
             inkscape:connector-curvature="0" /></g><g
           id="g3394"
           transform="translate(923.0089,1615.2898)"><path
             d="M 0,0 144.371,0"
             style="fill:none;stroke:#67462f;stroke-width:1;stroke-linecap:butt;stroke-linejoin:miter;stroke-miterlimit:10;stroke-dasharray:none;stroke-opacity:1"
             id="path3396"
             inkscape:connector-curvature="0" /></g><path
           d="m 1057.38,1926.879 114.053,0 0,-51.815 -114.053,0 0,51.815 z"
           style="fill:none;stroke:#67462f;stroke-width:1;stroke-linecap:butt;stroke-linejoin:miter;stroke-miterlimit:10;stroke-dasharray:none;stroke-opacity:1"
           id="path3398"
           inkscape:connector-curvature="0" /><path
           d="m 1057.38,1786.754 114.053,0 0,-51.815 -114.053,0 0,51.815 z"
           style="fill:none;stroke:#67462f;stroke-width:1;stroke-linecap:butt;stroke-linejoin:miter;stroke-miterlimit:10;stroke-dasharray:none;stroke-opacity:1"
           id="path3400"
           inkscape:connector-curvature="0" /><path
           d="m 1067.38,1641.197 114.053,0 0,-51.815 -114.053,0 0,51.815 z"
           style="fill:none;stroke:#67462f;stroke-width:1;stroke-linecap:butt;stroke-linejoin:miter;stroke-miterlimit:10;stroke-dasharray:none;stroke-opacity:1"
           id="path3402"
           inkscape:connector-curvature="0" /></g></g><text
       transform="matrix(1,0,0,-1,1065.5425,1903.687)"
       style="font-variant:normal;font-weight:normal;font-stretch:normal;font-size:13px;font-family:'Microsoft PhagsPa';-inkscape-font-specification:MicrosoftPhagsPa;writing-mode:lr-tb;fill:#67462f;fill-opacity:1;fill-rule:nonzero;stroke:none"
       id="text3404"><tspan
         x="0 9.1129999 15.912 21.424 27.885 32.292 39.91 47.554001 52.624001 58.747002 65.363998 73.008003 77.415001 85.032997 92.677002"
         y="0"
         sodipodi:role="line"
         id="tspan3406">Desktop/Laptop/</tspan><tspan
         x="10.166 16.978001 23.594999 31.239 34.384998 41.183998 45.591 49.153 60.827 68.445 75.803001 83.161003"
         y="15.6"
         sodipodi:role="line"
         id="tspan3408">Tablet Mount</tspan><tspan
         x="5.928 12.272 19.629999 22.775999 25.922001 29.483999 37.868999 41.014999 48.373001 59.566002 62.712002 70.07 73.216003 80.573997"
         y="140.842"
         sodipodi:role="line"
         id="tspan3410">Full Aluminium</tspan><tspan
         x="12.181 20.228001 27.846001 35.203999 40.716 45.123001 49.646999 57.005001 63.011002 67.417999 70.564003 78.181999"
         y="156.442"
         sodipodi:role="line"
         id="tspan3412">Construction</tspan><tspan
         x="29.523001 37.57 44.187 51.831001 54.977001 61.776001 65.337997 72.150002 75.295998 82.095001"
         y="285.68799"
         sodipodi:role="line"
         id="tspan3414">Cable Ties</tspan><tspan
         x="33.852001 37.310001 44.667999 50.674 53.82 61.178001 68.834999 75.634003"
         y="301.28799"
         sodipodi:role="line"
         id="tspan3416">Included</tspan></text>
<g
       id="g3418"><g
         id="g3420"
         clip-path="url(#clipPath3422)"><g
           id="g3426"
           transform="translate(742.7757,1618.0052)"><path
             d="M 0,0 -103.682,0"
             style="fill:none;stroke:#67462f;stroke-width:1;stroke-linecap:butt;stroke-linejoin:miter;stroke-miterlimit:10;stroke-dasharray:none;stroke-opacity:1"
             id="path3428"
             inkscape:connector-curvature="0" /></g><g
           id="g3430"
           transform="translate(841.0632,1758.1313)"><path
             d="M 0,0 -201.97,0"
             style="fill:none;stroke:#67462f;stroke-width:1;stroke-linecap:butt;stroke-linejoin:miter;stroke-miterlimit:10;stroke-dasharray:none;stroke-opacity:1"
             id="path3432"
             inkscape:connector-curvature="0" /></g><g
           id="g3434"
           transform="translate(742.7758,1903.6874)"><path
             d="M 0,0 -103.682,0"
             style="fill:none;stroke:#67462f;stroke-width:1;stroke-linecap:butt;stroke-linejoin:miter;stroke-miterlimit:10;stroke-dasharray:none;stroke-opacity:1"
             id="path3436"
             inkscape:connector-curvature="0" /></g><path
           d="m 639.094,1592.098 -114.053,0 0,51.815 114.053,0 0,-51.815 z"
           style="fill:none;stroke:#67462f;stroke-width:1;stroke-linecap:butt;stroke-linejoin:miter;stroke-miterlimit:10;stroke-dasharray:none;stroke-opacity:1"
           id="path3438"
           inkscape:connector-curvature="0" /><path
           d="m 639.094,1732.224 -114.053,0 0,51.815 114.053,0 0,-51.815 z"
           style="fill:none;stroke:#67462f;stroke-width:1;stroke-linecap:butt;stroke-linejoin:miter;stroke-miterlimit:10;stroke-dasharray:none;stroke-opacity:1"
           id="path3440"
           inkscape:connector-curvature="0" /><path
           d="m 639.094,1877.78 -114.053,0 0,51.815 114.053,0 0,-51.815 z"
           style="fill:none;stroke:#67462f;stroke-width:1;stroke-linecap:butt;stroke-linejoin:miter;stroke-miterlimit:10;stroke-dasharray:none;stroke-opacity:1"
           id="path3442"
           inkscape:connector-curvature="0" /><path
           d="m 703.198,638.306 -126.025,0 0,126.025 126.025,0 0,-126.025 z"
           style="fill:#373535;fill-opacity:1;fill-rule:nonzero;stroke:#373535;stroke-width:3;stroke-linecap:butt;stroke-linejoin:miter;stroke-miterlimit:10;stroke-dasharray:none;stroke-opacity:1"
           id="path3444"
           inkscape:connector-curvature="0" /></g></g><text
       transform="matrix(1,0,0,-1,621.4224,693.1528)"
       style="font-variant:normal;font-weight:normal;font-stretch:normal;font-size:31.00900078px;font-family:'Myriad Pro';-inkscape-font-specification:MyriadPro-Regular;writing-mode:lr-tb;fill:#ffffff;fill-opacity:1;fill-rule:nonzero;stroke:none"
       id="text3446"><tspan
         x="0 21.365202"
         y="0"
         sodipodi:role="line"
         id="tspan3448">QR</tspan></text>
<g
       id="g3450"><g
         id="g3452"
         clip-path="url(#clipPath3454)"><path
           d="m 1198.843,1216.925 -694.692,0 0,89.912 694.692,0 0,-89.912 z"
           style="fill:#67462f;fill-opacity:1;fill-rule:nonzero;stroke:none"
           id="path3458"
           inkscape:connector-curvature="0" /></g></g><text
       transform="matrix(0.9994623,-0.03278893,-0.03278893,-0.9994623,724.8333,1122.8251)"
       style="font-variant:normal;font-weight:normal;font-stretch:normal;font-size:35.99995804px;font-family:'Microsoft PhagsPa';-inkscape-font-specification:MicrosoftPhagsPa;writing-mode:lr-tb;fill:#67462f;fill-opacity:1;fill-rule:nonzero;stroke:none"
       id="text3460"><tspan
         x="0 25.23597 33.94796 53.855934 63.719925 86.939896 95.651886 104.36388 118.76386 127.47585 147.85182 162.2518 189.39578 209.77174 228.59973"
         y="0"
         sodipodi:role="line"
         id="tspan3462">DiY All-in-One </tspan><tspan
         x="-20.195976 2.0879974 23.183973 43.559948 60.803928 79.631905 92.159889 107.42387 116.13586 137.23184 157.60782 167.4718 186.58778 198.79176 217.11574 237.49171"
         y="43.199947"
         sodipodi:role="line"
         id="tspan3464">Conversion Stand</tspan></text>
<text
       transform="matrix(1,0,0,-1,772.8398,1232.71)"
       style="font-variant:normal;font-weight:normal;font-stretch:normal;font-size:83px;font-family:'Microsoft PhagsPa';-inkscape-font-specification:MicrosoftPhagsPa;writing-mode:lr-tb;fill:#b1845c;fill-opacity:1;fill-rule:nonzero;stroke:none"
       id="text3466"><tspan
         x="0 20.086 64.158997 92.295998 134.543 181.521"
         y="0"
         sodipodi:role="line"
         id="tspan3468">iStand</tspan></text>
<text
       transform="matrix(1,0,0,-1,598.3994,1480.8149)"
       style="font-variant:normal;font-weight:bold;font-stretch:normal;font-size:12px;font-family:'Microsoft PhagsPa';-inkscape-font-specification:MicrosoftPhagsPa-Bold;writing-mode:lr-tb;fill:#67462f;fill-opacity:1;fill-rule:nonzero;stroke:none"
       id="text3470"><tspan
         x="0 6.7319999 14.172 20.664 26.424 29.832001 34.428001 37.835999 43.596001 50.051998 54.720001 58.127998 65.459999 72.720001"
         y="0"
         sodipodi:role="line"
         id="tspan3472">Specifications</tspan></text>
<text
       transform="matrix(1,0,0,-1,540.6314,1452.0149)"
       style="font-variant:normal;font-weight:normal;font-stretch:normal;font-size:12px;font-family:'Microsoft PhagsPa';-inkscape-font-specification:MicrosoftPhagsPa;writing-mode:lr-tb;fill:#67462f;fill-opacity:1;fill-rule:nonzero;stroke:none"
       id="text3474"><tspan
         x="0 6.3720002 13.164 16.068001 23.124001 30.18 33.084 39.875999 46.944 50.231998 57.108002 64.139999 69.648003 108 114.468 120.936 127.404 132.912 139.38 145.84801 152.31599 157.82401 164.29201 170.75999 181.092"
         y="0"
         sodipodi:role="line"
         id="tspan3476">Shipping Box 250x250x18mm</tspan><tspan
         x="0 11.208 17.483999 20.388 27.455999 34.248001 38.316002 108 114.468 117.756 123.72"
         y="28.799999"
         sodipodi:role="line"
         id="tspan3478">Weight 2 kg</tspan><tspan
         x="0 6.2880001 9.1920004 12.096 16.164 19.452 27.191999 34.259998 37.164001 43.956001 49.043999 53.112 63.444 69.720001 76.512001 80.580002 108 114.468 118.992 122.28 131.076 134.364 140.832 147.3"
         y="57.599998"
         sodipodi:role="line"
         id="tspan3480">Tilt Adjustment 0° … 25°</tspan></text>
<g
       id="g3482"><g
         id="g3484"
         clip-path="url(#clipPath3486)"><g
           id="g3490"
           transform="translate(830.8939,1042.8444)"><path
             d="m 0,0 c -6.306,3.114 -11.876,0.063 -13.148,-6.738 -0.219,-1.173 0.299,-3.207 -1.215,-3.255 -1.512,-0.048 -2.128,1.855 -2.542,3.304 -1.159,4.059 -0.068,7.635 2.826,10.52 3.297,3.287 7.274,4.834 11.982,3.424 1.063,-0.318 2.07,-0.819 3.827,-1.529 -2.945,3.717 -6.02,5.771 -10.162,5.508 -4.682,-0.297 -8.36,-2.399 -10.392,-6.851 -0.994,-2.177 -1.1,-4.494 -1.131,-6.838 -0.016,-1.278 0.302,-2.591 -0.356,-4.2 -2.654,1.647 -3.879,4.056 -4.28,6.843 -1.835,12.761 9.197,22.109 21.543,18.306 5.871,-1.808 10.09,-5.635 12.616,-11.126 3.509,-7.625 5.752,-15.738 8.615,-23.613 0.923,-2.539 1.783,-5.101 2.759,-7.618 0.607,-1.566 1.731,-1.903 2.582,-0.324 3.741,6.94 7.361,13.944 11.184,21.228 -2.199,0.043 -4.042,-0.143 -5.301,1.435 -0.352,0.441 -0.748,0.988 -0.413,1.501 0.185,0.283 0.792,0.354 1.222,0.404 1.179,0.136 2.431,-0.141 3.592,0.706 -1.543,0.946 -4.4,1.393 -3.512,3.555 0.932,2.267 3.135,-1.137 4.963,0.231 -0.403,1.188 -2.069,1.951 -1.891,3.566 0.06,0.547 -0.05,1.21 0.555,1.468 0.487,0.207 0.844,-0.261 1.157,-0.581 1.212,-1.242 2.644,-1.056 4.169,-0.799 2.773,0.467 5.662,-0.1 8.391,0.985 0.504,0.2 1.28,-0.125 1.87,-0.36 C 49.895,8.999 50.342,8.623 50.455,8.254 50.627,7.687 50.03,7.522 49.604,7.358 45.748,5.866 43.752,2.672 41.956,-0.789 35.004,-14.187 27.998,-27.558 20.984,-40.925 c -0.399,-0.761 -0.554,-2.071 -1.663,-1.925 -0.84,0.111 -0.906,1.314 -1.197,2.077 -3.482,9.14 -6.951,18.285 -10.4,27.438 -0.737,1.955 -1.761,3.686 -3.359,5.065 -4.094,3.534 -8.738,2.396 -10.782,-2.614 -0.326,-0.799 -0.161,-2.254 -1.236,-2.221 -1.31,0.04 -1.478,1.523 -1.731,2.568 -1.108,4.579 1.612,8.882 6.241,9.952 C -2.245,-0.377 -1.328,-0.245 0,0"
             style="fill:#67462f;fill-opacity:1;fill-rule:nonzero;stroke:none"
             id="path3492"
             inkscape:connector-curvature="0" /></g><g
           id="g3494"
           transform="translate(927.5386,1809.109)"><path
             d="m 0,0 21.226,0 c 0.544,0 0.986,-0.442 0.986,-0.986 l 0,-139.586 c 0,-0.545 -0.442,-0.986 -0.986,-0.986 l -21.234,0 c -0.509,0 -0.935,0.387 -0.982,0.894 l -0.768,8.21 c -0.007,0.084 -0.026,0.166 -0.055,0.245 l -2.657,7.309 c -0.04,0.108 -0.06,0.222 -0.06,0.337 l 0,110.435 c 0,0.158 0.038,0.312 0.11,0.452 l 2.734,5.307 c 0.059,0.115 0.095,0.24 0.106,0.369 l 0.597,7.096 C -0.94,-0.393 -0.513,0 0,0"
             style="fill:#b1845c;fill-opacity:1;fill-rule:nonzero;stroke:none"
             id="path3496"
             inkscape:connector-curvature="0" /></g><g
           id="g3498"
           transform="translate(927.5386,1809.109)"><path
             d="m 0,0 21.226,0 c 0.544,0 0.986,-0.442 0.986,-0.986 l 0,-139.586 c 0,-0.545 -0.442,-0.986 -0.986,-0.986 l -21.234,0 c -0.509,0 -0.935,0.387 -0.982,0.894 l -0.768,8.21 c -0.007,0.084 -0.026,0.166 -0.055,0.245 l -2.657,7.309 c -0.04,0.108 -0.06,0.222 -0.06,0.337 l 0,110.435 c 0,0.158 0.038,0.312 0.11,0.452 l 2.734,5.307 c 0.059,0.115 0.095,0.24 0.106,0.369 l 0.597,7.096 C -0.94,-0.393 -0.513,0 0,0 Z"
             style="fill:none;stroke:#67462f;stroke-width:2;stroke-linecap:butt;stroke-linejoin:miter;stroke-miterlimit:10;stroke-dasharray:none;stroke-opacity:1"
             id="path3500"
             inkscape:connector-curvature="0" /></g><g
           id="g3502"
           transform="translate(772.2822,1858.9939)"><path
             d="m 0,0 c -0.004,1.042 1.123,1.697 2.022,1.169 9.376,-5.501 47.993,-39.429 47.489,-52.667 -0.574,-15.066 0,-109.355 0.005,-123.945 0.004,-13.036 -38.778,-54.237 -47.04,-59.211 -0.679,-0.409 -1.54,0.082 -1.544,0.875 L 0,0 Z"
             style="fill:#b1845c;fill-opacity:1;fill-rule:nonzero;stroke:none"
             id="path3504"
             inkscape:connector-curvature="0" /></g><g
           id="g3506"
           transform="translate(772.2822,1858.9939)"><path
             d="m 0,0 c -0.004,1.042 1.123,1.697 2.022,1.169 9.376,-5.501 47.993,-39.429 47.489,-52.667 -0.574,-15.066 0,-109.355 0.005,-123.945 0.004,-13.036 -38.778,-54.237 -47.04,-59.211 -0.679,-0.409 -1.54,0.082 -1.544,0.875 L 0,0 Z"
             style="fill:none;stroke:#67462f;stroke-width:2;stroke-linecap:butt;stroke-linejoin:miter;stroke-miterlimit:10;stroke-dasharray:none;stroke-opacity:1"
             id="path3508"
             inkscape:connector-curvature="0" /></g><g
           id="g3510"
           transform="translate(863.06,1766.1151)"><path
             d="m 0,0 5.752,0 c 0.465,0 0.843,-0.377 0.843,-0.843 l 0,-11.503 c 0,-0.552 0.519,-0.945 1.056,-0.815 0.963,0.235 2.382,0.397 3.987,-0.038 0.915,-0.248 1.668,-0.63 2.259,-1.017 0.552,-0.361 1.285,0.065 1.285,0.724 l 0,12.649 c 0,0.466 0.377,0.843 0.843,0.843 l 2.612,0 c 0.464,0 0.841,-0.375 0.843,-0.839 l 0.465,-98.765 c 0.002,-0.464 0.379,-0.839 0.843,-0.839 l 15.557,0 c 0.465,0 0.843,-0.377 0.843,-0.843 l 0,-2.838 c 0,-0.466 -0.378,-0.843 -0.843,-0.843 l -15.553,0 c -0.466,0 -0.843,-0.377 -0.843,-0.843 l 0,-16.792 0.83,0 0,-6.364 -0.83,0 0,-5.639 c 0,-0.406 0.287,-0.756 0.686,-0.827 1.88,-0.337 6.968,-1.646 6.968,-5.955 l 0,-45.008 c 0,0 0.128,-19.051 12.345,-32.126 12.217,-13.075 25.916,-12.284 27.143,-11.885 1.17,0.381 2.831,3.528 2.979,3.813 0.009,0.017 0.013,0.024 0.023,0.04 0.149,0.243 1.723,2.651 5.039,1.898 3.245,-0.738 3.911,-4.48 3.988,-5.001 0.006,-0.042 0.008,-0.077 0.008,-0.12 l 0,-11.135 c 0,-0.465 -0.377,-0.843 -0.842,-0.843 l -143.459,0 c -0.465,0 -0.843,0.378 -0.843,0.843 l 0,11.128 c 0,0.098 0.016,0.192 0.05,0.284 0.297,0.817 1.932,4.91 4.781,4.69 3.163,-0.243 3.91,-1.457 3.91,-1.457 l 0.061,1.414 c 0.01,0.224 -0.07,0.443 -0.222,0.608 l -0.171,0.184 c -0.291,0.316 -0.298,0.8 -0.017,1.124 l 3.033,3.494 -0.844,0.691 6.364,7.59 0.844,-0.843 0.9,1.112 c 0.238,0.294 0.251,0.711 0.03,1.02 l -0.007,0.01 c -0.227,0.317 -0.206,0.749 0.051,1.043 l 5.85,6.706 0.92,-0.69 0.991,1.267 c 0.231,0.294 0.24,0.705 0.023,1.009 l -0.011,0.015 c -0.228,0.32 -0.206,0.754 0.054,1.048 l 5.92,6.705 0.767,-0.537 1.38,1.457 -0.844,0.92 6.441,7.208 0.767,-0.614 0.95,1.055 c 0.254,0.283 0.287,0.7 0.082,1.02 -0.203,0.315 -0.173,0.727 0.073,1.009 l 5.796,6.654 0.766,-0.537 1.457,1.84 -0.69,0.844 6.211,7.13 1.073,-0.383 3.44,3.941 c 0.153,0.176 0.373,0.281 0.607,0.288 l 1.636,0.055 c 0.193,0.006 0.382,-0.054 0.536,-0.17 l 3.825,-2.887 -0.843,-0.997 5.878,-4.888 c 0.553,-0.46 1.391,-0.069 1.382,0.65 -0.076,5.911 -0.284,24.416 0.024,28.39 0.302,3.898 5.592,5.48 7.471,5.92 0.384,0.09 0.657,0.428 0.657,0.822 l 0,6.37 -1.381,0 0,4.6 1.304,0 0,18.096 c 0,0.465 -0.377,0.843 -0.843,0.843 l -0.921,0 c -0.466,0 -0.843,0.377 -0.843,0.842 l 0,2.685 c 0,0.466 0.377,0.843 0.843,0.843 l 0.921,0 c 0.466,0 0.843,0.378 0.843,0.843 l 0,34.735 c 0,0.465 -0.377,0.842 -0.843,0.842 l -2.455,0 c -0.465,0 -0.843,0.378 -0.843,0.843 l 0,1.918 -1.367,0 0,9.201 1.214,0 0,11.655 c 0,0.465 -0.377,0.842 -0.843,0.842 l -5.522,0 c -0.465,0 -0.842,-0.377 -0.842,-0.842 l 0,-38.645 c 0,-0.466 -0.378,-0.843 -0.843,-0.843 l -2.915,0 c -0.465,0 -0.843,0.377 -0.843,0.843 l 0,78.055 C -0.843,-0.377 -0.465,0 0,0"
             style="fill:#67462f;fill-opacity:1;fill-rule:nonzero;stroke:none"
             id="path3512"
             inkscape:connector-curvature="0" /></g><g
           id="g3514"
           transform="translate(870.4369,1592.5895)"><path
             d="m 0,0 -56.184,-58.066 c 0,0 43.6,-0.595 50.239,11.989 C 1.883,-36.068 0,0 0,0"
             style="fill:#b1845c;fill-opacity:1;fill-rule:nonzero;stroke:none"
             id="path3516"
             inkscape:connector-curvature="0" /></g><g
           id="g3518"
           transform="translate(833.407,1742.2714)"><path
             d="M 0,0 15.312,0"
             style="fill:none;stroke:#67462f;stroke-width:2;stroke-linecap:butt;stroke-linejoin:miter;stroke-miterlimit:10;stroke-dasharray:none;stroke-opacity:1"
             id="path3520"
             inkscape:connector-curvature="0" /></g><g
           id="g3522"
           transform="translate(841.0632,1734.6151)"><path
             d="M 0,0 0,15.313"
             style="fill:none;stroke:#67462f;stroke-width:2;stroke-linecap:butt;stroke-linejoin:miter;stroke-miterlimit:10;stroke-dasharray:none;stroke-opacity:1"
             id="path3524"
             inkscape:connector-curvature="0" /></g><g
           id="g3526"
           transform="translate(894.154,1742.2714)"><path
             d="M 0,0 15.312,0"
             style="fill:none;stroke:#67462f;stroke-width:2;stroke-linecap:butt;stroke-linejoin:miter;stroke-miterlimit:10;stroke-dasharray:none;stroke-opacity:1"
             id="path3528"
             inkscape:connector-curvature="0" /></g><g
           id="g3530"
           transform="translate(901.8102,1734.6151)"><path
             d="M 0,0 0,15.313"
             style="fill:none;stroke:#67462f;stroke-width:2;stroke-linecap:butt;stroke-linejoin:miter;stroke-miterlimit:10;stroke-dasharray:none;stroke-opacity:1"
             id="path3532"
             inkscape:connector-curvature="0" /></g><g
           id="g3534"
           transform="translate(716.798,1282.682)"><path
             d="m 0,0 c -7.346,3.636 -13.841,0.085 -15.33,-7.841 -0.256,-1.367 0.346,-3.738 -1.419,-3.792 -1.762,-0.055 -2.478,2.164 -2.959,3.853 -1.348,4.732 -0.073,8.899 3.303,12.258 3.846,3.828 8.482,5.627 13.968,3.98 1.238,-0.372 2.411,-0.957 4.458,-1.786 -3.428,4.335 -7.009,6.732 -11.837,6.429 -5.457,-0.342 -9.746,-2.788 -12.119,-7.975 -1.16,-2.536 -1.285,-5.236 -1.324,-7.968 -0.021,-1.49 0.349,-3.02 -0.42,-4.895 -3.091,1.922 -4.516,4.731 -4.981,7.979 -2.127,14.875 10.74,25.759 25.125,21.315 6.841,-2.113 11.754,-6.576 14.693,-12.979 4.082,-8.89 6.689,-18.347 10.019,-27.529 1.073,-2.959 2.073,-5.946 3.207,-8.881 0.706,-1.825 2.016,-2.219 3.009,-0.38 4.367,8.085 8.593,16.245 13.055,24.73 -2.563,0.052 -4.711,-0.162 -6.176,1.677 -0.41,0.515 -0.872,1.153 -0.481,1.75 0.217,0.331 0.924,0.413 1.426,0.47 1.374,0.158 2.833,-0.166 4.187,0.819 -1.798,1.105 -5.127,1.628 -4.09,4.147 1.087,2.642 3.653,-1.328 5.784,0.265 -0.469,1.384 -2.41,2.276 -2.2,4.158 0.07,0.637 -0.057,1.41 0.648,1.71 0.567,0.241 0.983,-0.305 1.348,-0.679 1.411,-1.448 3.08,-1.233 4.858,-0.935 3.232,0.542 6.599,-0.121 9.78,1.141 0.587,0.233 1.492,-0.148 2.179,-0.422 0.449,-0.179 0.97,-0.617 1.1,-1.048 C 59.012,8.911 58.315,8.72 57.819,8.528 53.324,6.793 50.994,3.072 48.898,-0.959 40.782,-16.568 32.605,-32.145 24.418,-47.717 c -0.466,-0.886 -0.648,-2.413 -1.94,-2.241 -0.979,0.129 -1.055,1.531 -1.394,2.421 -4.049,10.656 -8.084,21.318 -12.095,31.988 -0.857,2.28 -2.048,4.298 -3.909,5.906 -4.769,4.123 -10.182,2.801 -12.569,-3.035 -0.381,-0.931 -0.19,-2.628 -1.443,-2.589 -1.526,0.048 -1.721,1.777 -2.015,2.995 -1.287,5.338 1.887,10.35 7.283,11.593 C -2.616,-0.437 -1.548,-0.284 0,0"
             style="fill:#b1845c;fill-opacity:1;fill-rule:nonzero;stroke:none"
             id="path3536"
             inkscape:connector-curvature="0" /></g><path
           d="m 1197.741,1962.437 -694.692,0 0,89.912 694.692,0 0,-89.912 z"
           style="fill:#67462f;fill-opacity:1;fill-rule:nonzero;stroke:none"
           id="path3538"
           inkscape:connector-curvature="0" /></g></g><text
       transform="matrix(1,0,0,-1,775.6533,1909.9458)"
       style="font-variant:normal;font-weight:normal;font-stretch:normal;font-size:12px;font-family:'Microsoft PhagsPa';-inkscape-font-specification:MicrosoftPhagsPa;writing-mode:lr-tb;fill:#67462f;fill-opacity:1;fill-rule:nonzero;stroke:none"
       id="text3540"><tspan
         x="0 10.776 17.808001 24.6 27.504 31.572001 38.604 72.575996 80.028 82.931999 89.304001 93.372002 99.480003 106.272 137.14799 144.576 151.608 161.94 168.996 175.78799 179.856 186.132"
         y="0"
         sodipodi:role="line"
         id="tspan3542">MonitorViStandComputer</tspan></text>
<g
       id="g3544"><g
         id="g3546"
         clip-path="url(#clipPath3548)"><g
           id="g3552"
           transform="translate(868.6159,1899.0601)"><path
             d="M 0,0 0,-110.658"
             style="fill:none;stroke:#67462f;stroke-width:1;stroke-linecap:butt;stroke-linejoin:miter;stroke-miterlimit:10;stroke-dasharray:none;stroke-opacity:1"
             id="path3554"
             inkscape:connector-curvature="0" /></g><g
           id="g3556"
           transform="translate(939.3795,1899.0601)"><path
             d="M 0,0 0,-72.273"
             style="fill:none;stroke:#67462f;stroke-width:1;stroke-linecap:butt;stroke-linejoin:miter;stroke-miterlimit:10;stroke-dasharray:none;stroke-opacity:1"
             id="path3558"
             inkscape:connector-curvature="0" /></g><g
           id="g3560"
           transform="translate(797.04,1900.972)"><path
             d="M 0,0 0,-43.548"
             style="fill:none;stroke:#67462f;stroke-width:1;stroke-linecap:butt;stroke-linejoin:miter;stroke-miterlimit:10;stroke-dasharray:none;stroke-opacity:1"
             id="path3562"
             inkscape:connector-curvature="0" /></g></g></g><text
       transform="matrix(1,0,0,-1,559.6792,1621.1382)"
       style="font-variant:normal;font-weight:normal;font-stretch:normal;font-size:13px;font-family:'Microsoft PhagsPa';-inkscape-font-specification:MicrosoftPhagsPa;writing-mode:lr-tb;fill:#67462f;fill-opacity:1;fill-rule:nonzero;stroke:none"
       id="text3564"><tspan
         x="0 7.4489999 14.807 17.952999 21.099001 25.506001 30.705999 33.852001 41.209999"
         y="0"
         sodipodi:role="line"
         id="tspan3566">Built-in </tspan><tspan
         x="-23.205 -15.665 -8.8660002 -2.5739999 5.0700002 12.688 19.305 23.829 31.486 35.048 41.951 46.358002 52.974998 60.333"
         y="15.6"
         sodipodi:role="line"
         id="tspan3568">Keyboard Stand</tspan><tspan
         x="-36.374001 -32.812 -26 -18.382 -10.764 -7.618 -4.4720001 2.3269999 7.8390002 13.351 16.913 25.298 32.955002 36.101002 43.459 48.971001 53.377998 59.994999 67.639 70.785004 77.584"
         y="-139.711"
         sodipodi:role="line"
         id="tspan3570"> Toolless Adjustable </tspan><tspan
         x="-9.5419998 2.132 9.75 17.108 20.254 24.660999 32.278999 36.803001 43.615002 46.761002 49.907001"
         y="-124.111"
         sodipodi:role="line"
         id="tspan3572">MonitorTilt</tspan><tspan
         x="-24.687 -16.639999 -9.0220003 2.171 9.8149996 16.431999 20.839001 23.985001 31.629 34.775002 41.574001 45.136002 54.535 57.681 62.088001"
         y="-283.77701"
         sodipodi:role="line"
         id="tspan3574">Compatible with</tspan><tspan
         x="-12.701 -6.0840001 1.274 7.566 11.128 22.802 30.42 37.778 40.924 45.331001 52.949001"
         y="-268.177"
         sodipodi:role="line"
         id="tspan3576">any Monitor</tspan></text>
<g
       id="g3578"><g
         id="g3580"
         clip-path="url(#clipPath3582)"><g
           id="g3586"
           transform="translate(868.7498,1767.7305)"><path
             d="m 0,0 -5.99,0 c -0.423,0 -0.766,-0.354 -0.766,-0.792 l 0,-79.726 c 0,-0.438 0.343,-0.792 0.766,-0.792 l 3.292,0 c 0.423,0 0.766,0.354 0.766,0.792 l 0,51.026 c 0,0.437 0.343,0.792 0.766,0.792 l 1.028,0 c 0.474,0 0.834,0.439 0.756,0.921 l -0.333,2.08 c 0.421,-0.309 0.836,-0.544 1.229,-0.722 2.959,-1.345 7.943,0.913 7.943,1.22 l 0,9.9 c 0,0.437 -2.141,2.124 -4.496,2.075 -2.355,-0.05 -4.195,-0.71 -4.195,-0.491 l 0,12.925 C 0.766,-0.354 0.423,0 0,0"
             style="fill:#b1845c;fill-opacity:1;fill-rule:nonzero;stroke:none"
             id="path3588"
             inkscape:connector-curvature="0" /></g><path
           d="m 872.899,1751.573 -6.459,0 0,18.399 6.459,0 0,-18.399 z"
           style="fill:#b1845c;fill-opacity:1;fill-rule:nonzero;stroke:none"
           id="path3590"
           inkscape:connector-curvature="0" /><g
           id="g3592"
           transform="translate(874.3727,1767.0466)"><path
             d="M 0,0 -5.834,1.675 C -6.246,1.793 -6.676,1.555 -6.795,1.143 l -21.564,-75.108 c -0.118,-0.412 0.12,-0.842 0.532,-0.96 l 3.207,-0.921 c 0.412,-0.118 0.842,0.12 0.96,0.532 l 13.801,48.071 c 0.119,0.412 0.549,0.65 0.961,0.531 l 1.001,-0.287 c 0.461,-0.132 0.93,0.181 0.986,0.657 l 0.237,2.052 c 0.327,-0.409 0.668,-0.746 1.002,-1.024 1.606,-1.335 4.409,-1.521 6.252,-1.406 1.21,0.076 2.339,0.637 3.13,1.556 0.597,0.694 1.232,1.667 1.606,2.945 0.729,2.491 0.001,4.546 -0.243,5.159 -0.453,0.68 -1.517,2.603 -3.818,3.213 -2.308,0.612 -4.278,0.504 -4.219,0.71 L 0.532,-0.96 C 0.65,-0.548 0.412,-0.118 0,0"
             style="fill:#67462f;fill-opacity:1;fill-rule:nonzero;stroke:none"
             id="path3594"
             inkscape:connector-curvature="0" /></g></g></g><text
       transform="matrix(1,0,0,-1,520.041,1990.6885)"
       style="font-variant:normal;font-weight:normal;font-stretch:normal;font-size:36px;font-family:'Microsoft PhagsPa';-inkscape-font-specification:MicrosoftPhagsPa;writing-mode:lr-tb;fill:#b1845c;fill-opacity:1;fill-rule:nonzero;stroke:none"
       id="text3596"><tspan
         x="0 32.327999 53.424 74.627998 95.003998 103.716 122.04 134.56799 144.43201 166.716 187.812 218.808 239.976 260.35199 272.556 281.26801 301.64401 322.84799 332.71201 363.70801 382.53601 401.36401 413.56799 428.832 438.69601 450.89999 471.276 490.104 499.96799 523.18799 531.90002 540.612 555.01202 563.724 584.09998 598.5 625.64398 646.02002"
         y="0"
         sodipodi:role="line"
         id="tspan3598">Modular Computing meets the All-in-One</tspan></text>
<g
       id="g3600"><g
         id="g3602"
         clip-path="url(#clipPath3604)"><path
           d="m 1249.867,2052.349 -52.126,0 0,-89.912 52.126,0 0,89.912 z"
           style="fill:#67462f;fill-opacity:1;fill-rule:nonzero;stroke:none"
           id="path3608"
           inkscape:connector-curvature="0" /><path
           d="m 453.127,2052.349 49.922,0 0,-89.912 -49.922,0 0,89.912 z"
           style="fill:#67462f;fill-opacity:1;fill-rule:nonzero;stroke:none"
           id="path3610"
           inkscape:connector-curvature="0" /></g></g><text
       transform="matrix(1,0,0,-1,812.0562,1480.8145)"
       style="font-variant:normal;font-weight:bold;font-stretch:normal;font-size:12px;font-family:'Microsoft PhagsPa';-inkscape-font-specification:MicrosoftPhagsPa-Bold;writing-mode:lr-tb;fill:#67462f;fill-opacity:1;fill-rule:nonzero;stroke:none"
       id="text3612"><tspan
         x="0 8.8439999 12.252 17.532 24.972 28.379999 34.8456 41.301601 44.613602 52.101601 59.433601 70.425598 77.865601 84.321602 88.989601 92.397598 99.837601 103.2456 106.6536 110.0616 114.7296"
         y="0"
         sodipodi:role="line"
         id="tspan3614">Display Compatibility</tspan></text>
<text
       transform="matrix(1,0,0,-1,782.5722,1452.0145)"
       style="font-variant:normal;font-weight:normal;font-stretch:normal;font-size:12px;font-family:'Microsoft PhagsPa';-inkscape-font-specification:MicrosoftPhagsPa;writing-mode:lr-tb;fill:#67462f;fill-opacity:1;fill-rule:nonzero;stroke:none"
       id="text3616"><tspan
         x="0 8.4119997 11.316 16.403999 23.459999 26.364 32.472 38.279999 41.568001 47.939999 50.844002 56.268002 62.543999 108 114.468 120.936 124.224 126.828 129.43201 132.036 135.32401 141.79201 148.25999"
         y="0"
         sodipodi:role="line"
         id="tspan3618">Display Size 22 ... 29”</tspan><tspan
         x="0 7.4520001 13.524 19.896 27.636 30.924 41.700001 48.731998 55.523998 62.316002 66.384003 108.0024 114.4704 120.9384 124.2264 133.8264 137.1144 143.5824 150.0504 156.5184 166.8504"
         y="28.799999"
         sodipodi:role="line"
         id="tspan3620">VESA Mount 75 &amp; 100mm</tspan><tspan
         x="0 10.776 16.884001 22.392 24.996 28.284 36.695999 39.599998 44.688 51.743999 54.647999 60.756001 66.564003 69.851997 81.059998 85.127998 87.732002 108.0012 114.4692 117.7572 123.7212"
         y="57.599998"
         sodipodi:role="line"
         id="tspan3622">Max. Display Wt. 6 kg</tspan></text>
<text
       transform="matrix(1,0,0,-1,1031.7402,1480.8145)"
       style="font-variant:normal;font-weight:bold;font-stretch:normal;font-size:12px;font-family:'Microsoft PhagsPa';-inkscape-font-specification:MicrosoftPhagsPa-Bold;writing-mode:lr-tb;fill:#67462f;fill-opacity:1;fill-rule:nonzero;stroke:none"
       id="text3624"><tspan
         x="0 12.06 19.284 25.74 30.408001 33.888 39.167999 42.48 46.284 53.543999 59.304001 62.712002 69.972 77.400002 83.891998"
         y="0"
         sodipodi:role="line"
         id="tspan3626">What’s Included</tspan></text>
<text
       transform="matrix(1,0,0,-1,994.2402,1452.0145)"
       style="font-variant:normal;font-weight:normal;font-stretch:normal;font-size:12px;font-family:'Microsoft PhagsPa';-inkscape-font-specification:MicrosoftPhagsPa;writing-mode:lr-tb;fill:#67462f;fill-opacity:1;fill-rule:nonzero;stroke:none"
       id="text3628"><tspan
         x="0 7.4520001 10.356 16.728001 20.796 26.903999 33.695999 40.764 108 115.428 121.536 128.592 131.496 137.772 141.06 147.34801 150.252 156.528"
         y="0"
         sodipodi:role="line"
         id="tspan3630">ViStand Cable Ties</tspan><tspan
         x="0 7.4520001 13.524 19.896 27.636 30.926399 41.7024 48.734402 55.526402 62.318401 66.386398 71.474403 108.0024 114.3744 119.9184 124.0944 130.37041 139.0464"
         y="28.799999"
         sodipodi:role="line"
         id="tspan3632">VESA Mounts Screws</tspan><tspan
         x="0 7.428 13.536 17.712 21.888 27.695999 30.983999 39.216 43.391998 46.296001 53.352001"
         y="57.599998"
         sodipodi:role="line"
         id="tspan3634">Carry Grip </tspan></text>
<text
       transform="matrix(0,-1,-1,0,1224.9121,1867.0366)"
       style="font-variant:normal;font-weight:normal;font-stretch:normal;font-size:12px;font-family:'Microsoft PhagsPa';-inkscape-font-specification:MicrosoftPhagsPa;writing-mode:lr-tb;fill:#67462f;fill-opacity:1;fill-rule:nonzero;stroke:none"
       id="text3636"><tspan
         x="0 7.4520001 10.356 16.728001 20.796 26.903999 33.695999 40.764 44.051998 46.956001 52.043999 55.332001 61.439999 64.727997 71.783997 75.959999 82.991997 90.059998 96.851997 102.396 106.464 109.752 116.784 120.54 123.828 131.28 134.18401 140.556 147.62399 154.416 160.524 164.7 170.976 178.04401 180.64799 183.936 190.04401 196.836 200.12399 207.15601 214.21201 220.48801 227.28 230.56799 235.65601 242.688 249.48 253.65601 259.20001 265.47601 268.76401 273.85199 277.92001 283.99319 290.78519 297.85321 303.96121 308.13721 315.2052 318.49319 323.58121 330.3732 333.27719 337.34521 343.62119 350.68921 353.9772 357.73318 364.7652 368.94119 372.22919 377.3172 387.6492 393.7572 396.66119 399.56519"
         y="0"
         sodipodi:role="line"
         id="tspan3638">ViStand is a product of ViSquared, an open source standard suited for small </tspan><tspan
         x="0 6.1079998 12.9 19.968 23.256001 30.312 37.344002 41.52 45.588001 51.695999 58.751999 61.655998 67.931999 71.220001 76.764 83.795998 94.127998 101.184 107.976 112.044 114.948 121.74 128.808 131.412 134.7 142.15199 145.056 150.144 153.048 157.116 160.40401 166.15199 170.952 176.03999 183.108 189.89999 196.008 200.18401 206.46001 213.528 216.132 223.2 226.104 230.172 236.964 243.756 250.812 253.416 256.32001 263.35199 266.64001 270.396 277.42801 281.604 284.85361 295.18561 302.21759 306.39359 312.66959 315.95761 318.8616 325.65359 329.40961 336.44159 340.61761 350.94958 357.05759 361.12561 364.0296 371.06161 377.85361"
         y="14.4"
         sodipodi:role="line"
         id="tspan3640">and portable computing. Visit v-squared.github.io for more information.</tspan></text>
<text
       transform="matrix(1,0,0,-1,594.2886,2062.1929)"
       style="font-variant:normal;font-weight:normal;font-stretch:normal;font-size:40.8783989px;font-family:'Microsoft PhagsPa';-inkscape-font-specification:MicrosoftPhagsPa;writing-mode:lr-tb;fill:#b1845c;fill-opacity:1;fill-rule:nonzero;stroke:none"
       id="text3642"><tspan
         x="0 9.8925724 31.599003 45.456779 66.263885 89.401062"
         y="0"
         sodipodi:role="line"
         id="tspan3644">iStand</tspan></text>
<g
       id="g3646"><g
         id="g3648"
         clip-path="url(#clipPath3650)"><g
           id="g3654"
           transform="translate(566.6872,2086.8042)"><path
             d="m 0,0 c -3.618,1.791 -6.817,0.042 -7.55,-3.862 -0.126,-0.673 0.17,-1.841 -0.699,-1.867 -0.868,-0.027 -1.221,1.065 -1.458,1.897 -0.663,2.331 -0.035,4.383 1.627,6.038 1.894,1.885 4.178,2.771 6.88,1.959 0.609,-0.183 1.187,-0.471 2.195,-0.879 -1.688,2.135 -3.452,3.316 -5.83,3.166 -2.687,-0.168 -4.8,-1.373 -5.968,-3.927 -0.572,-1.249 -0.633,-2.579 -0.652,-3.925 -0.01,-0.734 0.171,-1.487 -0.207,-2.411 -1.523,0.947 -2.224,2.33 -2.453,3.93 -1.048,7.326 5.289,12.687 12.374,10.498 3.369,-1.041 5.789,-3.239 7.237,-6.392 2.01,-4.379 3.294,-9.037 4.934,-13.558 0.528,-1.458 1.021,-2.929 1.58,-4.375 0.347,-0.898 0.992,-1.093 1.482,-0.187 2.15,3.982 4.232,8.001 6.429,12.18 -1.262,0.026 -2.32,-0.08 -3.042,0.826 -0.202,0.254 -0.429,0.568 -0.236,0.862 0.106,0.163 0.454,0.203 0.702,0.231 0.676,0.078 1.395,-0.081 2.062,0.404 -0.885,0.544 -2.525,0.802 -2.015,2.042 0.536,1.301 1.8,-0.654 2.849,0.131 -0.231,0.681 -1.186,1.12 -1.084,2.048 0.035,0.313 -0.027,0.694 0.32,0.842 0.279,0.118 0.484,-0.15 0.664,-0.335 0.695,-0.713 1.516,-0.607 2.392,-0.46 1.592,0.267 3.25,-0.06 4.817,0.562 0.289,0.114 0.735,-0.073 1.074,-0.208 0.22,-0.088 0.477,-0.304 0.541,-0.516 C 29.064,4.388 28.721,4.294 28.477,4.2 26.263,3.345 25.115,1.513 24.083,-0.472 20.086,-8.16 16.058,-15.832 12.026,-23.501 c -0.229,-0.437 -0.319,-1.189 -0.955,-1.104 -0.483,0.064 -0.52,0.754 -0.687,1.192 -1.994,5.249 -3.981,10.5 -5.957,15.755 -0.422,1.123 -1.009,2.117 -1.925,2.909 -2.349,2.03 -5.015,1.379 -6.19,-1.495 -0.188,-0.459 -0.094,-1.294 -0.711,-1.275 -0.752,0.023 -0.848,0.875 -0.992,1.475 -0.634,2.629 0.929,5.097 3.586,5.71 C -1.289,-0.216 -0.762,-0.14 0,0"
             style="fill:#b1845c;fill-opacity:1;fill-rule:nonzero;stroke:none"
             id="path3656"
             inkscape:connector-curvature="0" /></g></g></g><text
       transform="matrix(0,1,1,0,486.6714,1989.3403)"
       style="font-variant:normal;font-weight:normal;font-stretch:normal;font-size:19.64310074px;font-family:'Microsoft PhagsPa';-inkscape-font-specification:MicrosoftPhagsPa;writing-mode:lr-tb;fill:#b1845c;fill-opacity:1;fill-rule:nonzero;stroke:none"
       id="text3658"><tspan
         x="0 4.7536302 15.184116 21.843126 31.841465 42.959461"
         y="0"
         sodipodi:role="line"
         id="tspan3660">iStand</tspan></text>
<g
       id="g3662"><g
         id="g3664"
         clip-path="url(#clipPath3666)"><g
           id="g3670"
           transform="translate(474.8445,1976.0771)"><path
             d="m 0,0 c -0.86,-1.739 -0.02,-3.276 1.856,-3.628 0.323,-0.061 0.884,0.082 0.897,-0.336 0.013,-0.417 -0.512,-0.586 -0.912,-0.7 -1.12,-0.319 -2.106,-0.017 -2.901,0.781 -0.906,0.911 -1.332,2.008 -0.942,3.306 0.088,0.293 0.227,0.571 0.423,1.055 -1.026,-0.811 -1.593,-1.659 -1.522,-2.801 0.081,-1.292 0.66,-2.307 1.888,-2.868 0.6,-0.275 1.239,-0.304 1.886,-0.314 0.352,-0.004 0.714,0.083 1.158,-0.099 -0.455,-0.731 -1.12,-1.069 -1.888,-1.179 -3.521,-0.503 -6.097,2.542 -5.045,5.946 0.5,1.619 1.557,2.782 3.072,3.478 2.104,0.966 4.342,1.583 6.515,2.371 0.7,0.254 1.407,0.49 2.102,0.759 0.432,0.167 0.525,0.477 0.09,0.712 C 4.763,7.516 2.832,8.517 0.824,9.573 0.812,8.966 0.862,8.458 0.427,8.111 0.305,8.014 0.154,7.905 0.013,7.997 -0.065,8.048 -0.085,8.216 -0.098,8.335 -0.136,8.66 -0.059,9.005 -0.292,9.325 -0.554,8.9 -0.677,8.112 -1.274,8.358 -1.899,8.615 -0.959,9.222 -1.336,9.727 -1.664,9.616 -1.875,9.156 -2.32,9.206 -2.471,9.222 -2.654,9.192 -2.725,9.359 c -0.057,0.134 0.072,0.233 0.161,0.319 0.342,0.334 0.291,0.729 0.221,1.15 -0.128,0.765 0.029,1.562 -0.27,2.315 -0.055,0.138 0.035,0.353 0.1,0.515 0.042,0.106 0.146,0.23 0.248,0.261 0.156,0.047 0.201,-0.118 0.247,-0.235 0.41,-1.064 1.291,-1.615 2.245,-2.111 C 3.921,9.652 7.608,7.716 11.293,5.779 11.503,5.669 11.864,5.625 11.823,5.32 11.793,5.088 11.461,5.07 11.25,4.99 8.728,4.032 6.205,3.077 3.68,2.127 3.14,1.925 2.663,1.643 2.282,1.202 1.306,0.074 1.619,-1.208 3.001,-1.772 3.221,-1.862 3.622,-1.817 3.613,-2.114 3.602,-2.475 3.193,-2.521 2.904,-2.591 1.641,-2.895 0.455,-2.144 0.161,-0.867 0.104,-0.619 0.067,-0.366 0,0"
             style="fill:#b1845c;fill-opacity:1;fill-rule:nonzero;stroke:none"
             id="path3672"
             inkscape:connector-curvature="0" /></g></g></g><text
       transform="matrix(0,-1,-1,0,1215.771,2026.4165)"
       style="font-variant:normal;font-weight:normal;font-stretch:normal;font-size:19.64310074px;font-family:'Microsoft PhagsPa';-inkscape-font-specification:MicrosoftPhagsPa;writing-mode:lr-tb;fill:#b1845c;fill-opacity:1;fill-rule:nonzero;stroke:none"
       id="text3674"><tspan
         x="0 4.7536302 15.184116 21.843126 31.841465 42.959461"
         y="0"
         sodipodi:role="line"
         id="tspan3676">iStand</tspan></text>
<g
       id="g3678"><g
         id="g3680"
         clip-path="url(#clipPath3682)"><g
           id="g3686"
           transform="translate(1227.5984,2039.6799)"><path
             d="M 0,0 C 0.86,1.739 0.02,3.276 -1.856,3.628 -2.179,3.689 -2.74,3.546 -2.753,3.964 -2.766,4.381 -2.241,4.55 -1.841,4.664 -0.721,4.983 0.265,4.682 1.06,3.883 1.966,2.972 2.392,1.875 2.002,0.577 1.914,0.284 1.775,0.006 1.579,-0.478 2.605,0.333 3.172,1.181 3.101,2.323 3.02,3.615 2.441,4.63 1.213,5.191 0.613,5.466 -0.026,5.495 -0.673,5.505 -1.025,5.509 -1.387,5.422 -1.831,5.604 -1.376,6.336 -0.711,6.673 0.057,6.783 3.578,7.286 6.154,4.241 5.102,0.837 4.602,-0.782 3.545,-1.945 2.03,-2.641 c -2.104,-0.966 -4.342,-1.583 -6.515,-2.371 -0.7,-0.254 -1.407,-0.49 -2.102,-0.759 -0.432,-0.167 -0.525,-0.477 -0.09,-0.712 1.914,-1.033 3.845,-2.034 5.853,-3.09 0.012,0.607 -0.038,1.115 0.397,1.462 0.122,0.097 0.273,0.206 0.414,0.114 0.078,-0.051 0.098,-0.219 0.111,-0.337 0.038,-0.326 -0.039,-0.671 0.194,-0.991 0.262,0.425 0.385,1.213 0.982,0.967 0.625,-0.257 -0.315,-0.864 0.062,-1.368 0.328,0.111 0.539,0.57 0.984,0.52 0.151,-0.016 0.334,0.014 0.405,-0.153 0.057,-0.134 -0.072,-0.233 -0.161,-0.319 -0.342,-0.334 -0.291,-0.729 -0.221,-1.15 0.128,-0.765 -0.029,-1.562 0.27,-2.314 0.055,-0.139 -0.035,-0.353 -0.1,-0.516 -0.042,-0.106 -0.146,-0.23 -0.248,-0.26 -0.156,-0.048 -0.201,0.117 -0.247,0.234 -0.41,1.064 -1.291,1.616 -2.245,2.112 -3.694,1.92 -7.381,3.856 -11.066,5.793 -0.21,0.11 -0.571,0.154 -0.53,0.459 0.03,0.232 0.362,0.25 0.573,0.33 2.522,0.958 5.045,1.913 7.57,2.863 0.54,0.202 1.017,0.484 1.398,0.925 0.976,1.128 0.663,2.41 -0.718,2.974 -0.221,0.091 -0.622,0.045 -0.613,0.342 0.011,0.361 0.42,0.407 0.709,0.477 1.263,0.304 2.449,-0.447 2.743,-1.724 C -0.104,0.619 -0.067,0.366 0,0"
             style="fill:#b1845c;fill-opacity:1;fill-rule:nonzero;stroke:none"
             id="path3688"
             inkscape:connector-curvature="0" /></g><g
           id="g3690"
           transform="translate(737.6947,2089.9158)"><path
             d="M 0,0 0,-29.723"
             style="fill:none;stroke:#b1845c;stroke-width:3;stroke-linecap:butt;stroke-linejoin:miter;stroke-miterlimit:10;stroke-dasharray:none;stroke-opacity:1"
             id="path3692"
             inkscape:connector-curvature="0" /></g></g></g><text
       transform="matrix(1,0,0,-1,768.7212,2062.1929)"
       style="font-variant:normal;font-weight:normal;font-stretch:normal;font-size:36px;font-family:'Microsoft PhagsPa';-inkscape-font-specification:MicrosoftPhagsPa;writing-mode:lr-tb;fill:#b1845c;fill-opacity:1;fill-rule:nonzero;stroke:none"
       id="text3694"><tspan
         x="0 25.236 33.948002 53.855999 63.720001 86.940002 95.652 104.364 118.764 127.476 147.85201 162.252 189.396 209.772 228.60001 238.464 260.74799 281.84399 302.22 319.46399 338.29199 350.82001 363.02399 381.85199"
         y="0"
         sodipodi:role="line"
         id="tspan3696">DiY All-in-One Converter</tspan></text>
<text
       transform="matrix(1,0,0,-1,594.2886,1317.4868)"
       style="font-variant:normal;font-weight:normal;font-stretch:normal;font-size:40.8783989px;font-family:'Microsoft PhagsPa';-inkscape-font-specification:MicrosoftPhagsPa;writing-mode:lr-tb;fill:#67462f;fill-opacity:1;fill-rule:nonzero;stroke:none"
       id="text3698"><tspan
         x="0 9.8925724 31.599003 45.456779 66.263885 89.401062"
         y="0"
         sodipodi:role="line"
         id="tspan3700">iStand</tspan></text>
<g
       id="g3702"><g
         id="g3704"
         clip-path="url(#clipPath3706)"><g
           id="g3710"
           transform="translate(566.6872,1342.0985)"><path
             d="m 0,0 c -3.618,1.791 -6.817,0.042 -7.55,-3.862 -0.126,-0.673 0.17,-1.841 -0.699,-1.867 -0.868,-0.027 -1.221,1.065 -1.458,1.897 -0.663,2.331 -0.035,4.383 1.627,6.038 1.894,1.885 4.178,2.771 6.88,1.96 0.609,-0.184 1.187,-0.472 2.195,-0.88 -1.688,2.135 -3.452,3.316 -5.83,3.167 -2.687,-0.169 -4.8,-1.374 -5.968,-3.928 -0.572,-1.249 -0.633,-2.579 -0.652,-3.925 -0.01,-0.733 0.171,-1.487 -0.207,-2.411 -1.523,0.947 -2.224,2.331 -2.453,3.93 -1.048,7.326 5.289,12.687 12.374,10.498 3.369,-1.041 5.789,-3.239 7.237,-6.392 2.01,-4.379 3.294,-9.036 4.934,-13.558 0.528,-1.458 1.021,-2.929 1.58,-4.375 0.347,-0.898 0.992,-1.092 1.482,-0.186 2.15,3.981 4.232,8 6.429,12.179 -1.262,0.026 -2.32,-0.08 -3.042,0.826 -0.202,0.254 -0.429,0.568 -0.236,0.862 0.106,0.163 0.454,0.203 0.702,0.232 0.676,0.077 1.395,-0.082 2.062,0.403 -0.885,0.544 -2.525,0.802 -2.015,2.042 0.536,1.301 1.8,-0.654 2.849,0.131 -0.231,0.682 -1.186,1.12 -1.084,2.048 0.035,0.313 -0.027,0.694 0.32,0.842 0.279,0.118 0.484,-0.15 0.664,-0.334 0.695,-0.714 1.516,-0.608 2.392,-0.461 1.592,0.267 3.25,-0.06 4.817,0.562 0.289,0.114 0.735,-0.073 1.074,-0.208 0.22,-0.088 0.477,-0.304 0.541,-0.516 C 29.064,4.389 28.721,4.295 28.477,4.2 26.263,3.346 25.115,1.513 24.083,-0.472 20.086,-8.16 16.058,-15.832 12.026,-23.501 c -0.229,-0.436 -0.319,-1.188 -0.955,-1.104 -0.483,0.064 -0.52,0.754 -0.687,1.192 -1.994,5.249 -3.981,10.5 -5.957,15.755 -0.422,1.123 -1.009,2.117 -1.925,2.909 -2.349,2.03 -5.015,1.379 -6.19,-1.495 -0.188,-0.459 -0.094,-1.294 -0.711,-1.275 -0.752,0.024 -0.848,0.875 -0.992,1.475 -0.634,2.629 0.929,5.097 3.586,5.71 C -1.289,-0.215 -0.762,-0.14 0,0"
             style="fill:#67462f;fill-opacity:1;fill-rule:nonzero;stroke:none"
             id="path3712"
             inkscape:connector-curvature="0" /></g><g
           id="g3714"
           transform="translate(737.6947,1345.2102)"><path
             d="M 0,0 0,-29.723"
             style="fill:none;stroke:#67462f;stroke-width:3;stroke-linecap:butt;stroke-linejoin:miter;stroke-miterlimit:10;stroke-dasharray:none;stroke-opacity:1"
             id="path3716"
             inkscape:connector-curvature="0" /></g></g></g><text
       transform="matrix(1,0,0,-1,768.7212,1317.4868)"
       style="font-variant:normal;font-weight:normal;font-stretch:normal;font-size:36px;font-family:'Microsoft PhagsPa';-inkscape-font-specification:MicrosoftPhagsPa;writing-mode:lr-tb;fill:#67462f;fill-opacity:1;fill-rule:nonzero;stroke:none"
       id="text3718"><tspan
         x="0 25.236 33.948002 53.855999 63.720001 86.940002 95.652 104.364 118.764 127.476 147.85201 162.252 189.396 209.772 228.60001 238.464 260.74799 281.84399 302.22 319.46399 338.29199 350.82001 363.02399 381.85199"
         y="0"
         sodipodi:role="line"
         id="tspan3720">DiY All-in-One Converter</tspan></text>
<text
       transform="matrix(1,0,0,-1,727.3437,738.7598)"
       style="font-variant:normal;font-weight:normal;font-stretch:normal;font-size:13px;font-family:'Microsoft PhagsPa';-inkscape-font-specification:MicrosoftPhagsPa;writing-mode:lr-tb;fill:#67462f;fill-opacity:1;fill-rule:nonzero;stroke:none"
       id="text3722"><tspan
         x="0 12.142 18.759001 26.117001 30.524 34.085999 38.493 46.111 49.673 52.819 59.618 66.235001 70.759003 78.116997 81.679001 92.872002 100.49 105.014 111.813 115.375 121.992 129.636 137.254 144.612 149.019 152.5524 160.6254 165.38341"
         y="0"
         sodipodi:role="line"
         id="tspan3724">Want to learn more about V² </tspan><tspan
         x="0 6.6170001 13.975 21.632 25.194 32.812 40.169998 44.694 48.256001 55.900002 60.424 68.042 75.698997 83.056999 89.063004 93.470001 98.982002 104.806 108.368 115.271 121.277 127.894 135.252 138.814 146.4086 153.7666 158.2906"
         y="15.6"
         sodipodi:role="line"
         id="tspan3726">and our products? Scan our </tspan><tspan
         x="0 9.802 17.576 21.138 27.143999 34.762001 42.418999 49.217999 52.779999 62.179001 65.324997 69.732002 77.089996 80.652 86.944 94.561996 101.92 106.444 110.006 117.65 125.008 132.62601 139.98399 146.783"
         y="31.200001"
         sodipodi:role="line"
         id="tspan3728">QR code with your phone </tspan><tspan
         x="0 4.4070001 12.025 15.587 21.593 28.951 35.75 41.756001 48.216999 51.778999 59.396999 66.754997 71.162003 74.723999 82.342003 89.699997 94.223999 97.786003 107.185 113.984 121.628 127.14 130.286 134.69299 141.47121"
         y="46.799999"
         sodipodi:role="line"
         id="tspan3730">to check out our website </tspan><tspan
         x="0 6.006 10.53 17.329 23.945999 28.353001 35.152 42.808998 46.370998 52.987999 60.346001 68.002998 71.565002 79.222 86.021004 91.532997 94.679001 102.336 109.694 116.493 124.15 127.712 134.32899 141.6597 149.3167"
         y="62.400002"
         sodipodi:role="line"
         id="tspan3732">created and designed and </tspan><tspan
         x="0 11.193 18.811001 26.468 33.826 36.972 43.589001 48.112999 51.674999 57.681 65.299004 76.491997 84.136002 91.494003 95.901001 99.046997 106.405 114.062"
         y="78"
         sodipodi:role="line"
         id="tspan3734">modular computing.</tspan></text>
</g></svg>