<?xml version="1.0" encoding="UTF-8" standalone="no"?>
<!-- Created with Inkscape (http://www.inkscape.org/) -->

<svg
   xmlns:dc="http://purl.org/dc/elements/1.1/"
   xmlns:cc="http://creativecommons.org/ns#"
   xmlns:rdf="http://www.w3.org/1999/02/22-rdf-syntax-ns#"
   xmlns:svg="http://www.w3.org/2000/svg"
   xmlns="http://www.w3.org/2000/svg"
   xmlns:sodipodi="http://sodipodi.sourceforge.net/DTD/sodipodi-0.dtd"
   xmlns:inkscape="http://www.inkscape.org/namespaces/inkscape"
   id="svg3336"
   version="1.1"
   inkscape:version="0.91 r13725"
   xml:space="preserve"
   width="2125.9875"
   height="2834.6499"
   viewBox="0 0 2125.9875 2834.6499"
   sodipodi:docname="ViStand_Packaging.svg"><metadata
     id="metadata3342"><rdf:RDF><cc:Work
         rdf:about=""><dc:format>image/svg+xml</dc:format><dc:type
           rdf:resource="http://purl.org/dc/dcmitype/StillImage" /><dc:title></dc:title></cc:Work></rdf:RDF></metadata><defs
     id="defs3340"><clipPath
       clipPathUnits="userSpaceOnUse"
       id="clipPath3362"><path
         d="m 0,2267.72 1700.79,0 L 1700.79,0 0,0 0,2267.72 Z"
         id="path3364"
         inkscape:connector-curvature="0" /></clipPath><clipPath
       clipPathUnits="userSpaceOnUse"
       id="clipPath3452"><path
         d="m 0,2267.72 1700.79,0 L 1700.79,0 0,0 0,2267.72 Z"
         id="path3454"
         inkscape:connector-curvature="0" /></clipPath><clipPath
       clipPathUnits="userSpaceOnUse"
       id="clipPath3468"><path
         d="m 0,2267.72 1700.79,0 L 1700.79,0 0,0 0,2267.72 Z"
         id="path3470"
         inkscape:connector-curvature="0" /></clipPath><clipPath
       clipPathUnits="userSpaceOnUse"
       id="clipPath3484"><path
         d="m 0,2267.72 1700.79,0 L 1700.79,0 0,0 0,2267.72 Z"
         id="path3486"
         inkscape:connector-curvature="0" /></clipPath><clipPath
       clipPathUnits="userSpaceOnUse"
       id="clipPath3512"><path
         d="m 0,2267.72 1700.79,0 L 1700.79,0 0,0 0,2267.72 Z"
         id="path3514"
         inkscape:connector-curvature="0" /></clipPath><clipPath
       clipPathUnits="userSpaceOnUse"
       id="clipPath3526"><path
         d="m 0,2267.72 1700.79,0 L 1700.79,0 0,0 0,2267.72 Z"
         id="path3528"
         inkscape:connector-curvature="0" /></clipPath><clipPath
       clipPathUnits="userSpaceOnUse"
       id="clipPath3546"><path
         d="m 0,2267.72 1700.79,0 L 1700.79,0 0,0 0,2267.72 Z"
         id="path3548"
         inkscape:connector-curvature="0" /></clipPath></defs><sodipodi:namedview
     pagecolor="#ffffff"
     bordercolor="#666666"
     borderopacity="1"
     objecttolerance="10"
     gridtolerance="10"
     guidetolerance="10"
     inkscape:pageopacity="0"
     inkscape:pageshadow="2"
     inkscape:window-width="1920"
     inkscape:window-height="1017"
     id="namedview3338"
     showgrid="false"
     inkscape:zoom="0.43438961"
     inkscape:cx="732.66088"
     inkscape:cy="1850.7469"
     inkscape:window-x="-8"
     inkscape:window-y="-8"
     inkscape:window-maximized="1"
     inkscape:current-layer="g3344" /><g
     id="g3344"
     inkscape:groupmode="layer"
     inkscape:label="ViStand-Package"
     transform="matrix(1.25,0,0,-1.25,0,2834.65)"><path
       d="m 1198.639,1357.86 -694.488,0 0,694.488 694.488,0 0,-694.488 z"
       style="fill:#b1845c;fill-opacity:1;fill-rule:nonzero;stroke:#373535;stroke-width:2;stroke-linecap:butt;stroke-linejoin:miter;stroke-miterlimit:10;stroke-dasharray:none;stroke-opacity:1"
       id="path3346"
       inkscape:connector-curvature="0" /><path
       d="m 1198.639,612.349 -694.488,0 0,694.488 694.488,0 0,-694.488 z"
       style="fill:#b1845c;fill-opacity:1;fill-rule:nonzero;stroke:#373535;stroke-width:2;stroke-linecap:butt;stroke-linejoin:miter;stroke-miterlimit:10;stroke-dasharray:none;stroke-opacity:1"
       id="path3348"
       inkscape:connector-curvature="0" /><path
       d="m 1249.867,1357.86 -51.024,0 0,694.488 51.024,0 0,-694.488 z"
       style="fill:#b1845c;fill-opacity:1;fill-rule:nonzero;stroke:#373535;stroke-width:2;stroke-linecap:butt;stroke-linejoin:miter;stroke-miterlimit:10;stroke-dasharray:none;stroke-opacity:1"
       id="path3350"
       inkscape:connector-curvature="0" /><path
       d="m 1198.639,2052.349 -694.488,0 0,51.024 694.488,0 0,-51.024 z"
       style="fill:#b1845c;fill-opacity:1;fill-rule:nonzero;stroke:#373535;stroke-width:2;stroke-linecap:butt;stroke-linejoin:miter;stroke-miterlimit:10;stroke-dasharray:none;stroke-opacity:1"
       id="path3352"
       inkscape:connector-curvature="0" /><path
       d="m 1198.639,1306.837 -694.488,0 0,51.024 694.488,0 0,-51.024 z"
       style="fill:#b1845c;fill-opacity:1;fill-rule:nonzero;stroke:#373535;stroke-width:2;stroke-linecap:butt;stroke-linejoin:miter;stroke-miterlimit:10;stroke-dasharray:none;stroke-opacity:1"
       id="path3354"
       inkscape:connector-curvature="0" /><path
       d="m 504.151,1357.86 -51.024,0 0,694.488 51.024,0 0,-694.488 z"
       style="fill:#b1845c;fill-opacity:1;fill-rule:nonzero;stroke:#373535;stroke-width:2;stroke-linecap:butt;stroke-linejoin:miter;stroke-miterlimit:10;stroke-dasharray:none;stroke-opacity:1"
       id="path3356"
       inkscape:connector-curvature="0" /><g
       id="g3358"><g
         id="g3360"
         clip-path="url(#clipPath3362)"><g
           id="g3366"
           transform="translate(776.8002,1999.6034)"><path
             d="m 0,0 21.027,0 c 0.266,0 0.511,-0.143 0.642,-0.374 l 30.85,-54.515 c 0.062,-0.111 0.095,-0.236 0.095,-0.363 l 0,-35.347 c 0,-0.407 0.331,-0.737 0.738,-0.737 l 5.347,0 2.567,0 c 0.408,0 0.738,-0.331 0.738,-0.738 0,0 0.245,-15.959 0.587,-16.03 0.53,0.204 4.674,1.73 7.541,-0.49 0.393,-0.305 1.576,-1.404 1.843,-1.187 0.165,0.134 0.272,17.648 0.272,17.648 0,0.43 0.366,0.768 0.795,0.735 0,0 4.754,0.002 4.754,0.431 l 0,35.171 c 0,0.408 0.33,0.738 0.737,0.738 l 4.074,0 c 0.407,0 0.737,0.33 0.737,0.738 l 0,18.158 c 0,0.407 0.331,0.737 0.738,0.737 l 4.927,0 c 0.407,0 0.737,-0.33 0.737,-0.737 l 0,-3.22 c 0,-0.408 0.331,-0.738 0.738,-0.738 l 76.203,0 c 0.408,0 0.738,0.33 0.738,0.738 l 0,3.22 c 0,0.407 0.33,0.737 0.738,0.737 l 6.207,0 c 0.407,0 0.738,-0.33 0.738,-0.737 l 0,-214.489 c 0,-0.407 -0.331,-0.738 -0.738,-0.738 l -5.858,0 c -0.376,0 -0.692,0.283 -0.733,0.656 l -0.281,2.53 c -0.042,0.373 -0.357,0.656 -0.733,0.656 l -75.427,0 c -0.408,0 -0.738,-0.331 -0.738,-0.738 l 0,-2.366 c 0,-0.407 -0.33,-0.738 -0.738,-0.738 l -5.125,0 c -0.073,0.012 -0.146,0.023 -0.22,0.034 l -5.764,1.801 c -0.474,0.149 -0.957,-0.206 -0.957,-0.704 l 0,-4.037 c 0,-0.306 0.189,-0.58 0.475,-0.689 l 5.465,-2.082 c 2.151,-0.82 3.642,-2.794 3.835,-5.088 0.562,-6.663 1.471,-22.674 0.804,-52.147 -1.147,-50.723 41.778,-55.642 45.332,-56.167 2.182,-0.321 4.578,3.084 6.85,5.3 1.64,1.599 5.32,1.682 6.945,0.068 3.962,-3.286 3.278,-18.288 3.278,-18.288 0,-0.407 -0.331,-0.737 -0.738,-0.737 l -175.222,0 c -0.408,0 -0.738,0.33 -0.738,0.737 l 0,13.866 c 0,1.443 0.457,2.876 1.402,3.965 2.373,2.735 6.562,2.807 9.03,0.202 l 2.506,-3.102 c 0.501,-0.609 3.204,-5.734 29.508,-2.466 0.153,0.012 0.31,0.024 0.463,0.036 18.881,0.61 32.145,7.391 33.393,8.051 0.059,0.043 0.115,0.085 0.174,0.128 l 2.653,2.654 c 0.162,0.162 0.234,0.39 0.204,0.617 -1.322,9.722 6.725,19.343 7.995,20.793 0.11,0.125 0.172,0.282 0.179,0.448 l 1.694,36.845 c 10e-4,0.018 10e-4,0.031 10e-4,0.048 -0.022,0.939 -0.75,32.208 0,38.817 0.638,5.612 6.478,7.211 8.373,7.584 0.346,0.068 0.59,0.369 0.59,0.722 l 0,63.825 0,5.781 0,14.395 c 0,0.407 -0.33,0.737 -0.737,0.737 l -4.009,0 c -0.407,0 -0.738,0.33 -0.738,0.738 l 0,27.974 c 0,0.407 -0.33,0.738 -0.737,0.738 l -6.59,0 c -0.407,0 -0.737,-0.331 -0.737,-0.738 l 0,-47.181 c 0,-0.407 -0.331,-0.737 -0.738,-0.737 l -4.609,0 c -0.407,0 -0.738,-0.33 -0.738,-0.738 l 0,-34.917 c 0,-0.129 -0.033,-0.256 -0.097,-0.367 l -31.274,-54.517 c -0.131,-0.23 -0.375,-0.371 -0.639,-0.371 l -21.029,0 c -0.407,0 -0.738,0.331 -0.737,0.739 L -0.738,-0.736 C -0.737,-0.329 -0.407,0 0,0"
             style="fill:#67462f;fill-opacity:1;fill-rule:nonzero;stroke:none"
             id="path3368"
             inkscape:connector-curvature="0" /></g><g
           id="g3370"
           transform="translate(674.5291,1176.2699)"><path
             d="m 0,0 c 0.003,0.054 0.006,0.102 0.01,0.156 0.103,0.624 0.457,2.187 1.805,3.559 1.456,1.482 5.466,3.702 6.939,3.883 4.021,0.492 7.317,0.63 8.696,0.479 0.019,-10e-4 0.035,-0.002 0.054,-0.003 107.762,-3.013 215.524,-6.025 323.286,-9.038 0.028,-0.002 0.051,-0.003 0.08,-0.005 0.444,-0.056 2.195,-0.342 3.488,-1.924 1.389,-1.699 1.213,-3.626 1.175,-3.977 -0.798,-62.307 -1.596,-124.614 -2.393,-186.921 -0.013,-0.995 -0.153,-1.982 -0.436,-2.935 -0.269,-0.903 -0.617,-1.886 -1.072,-2.92 -0.707,-1.606 -1.496,-2.936 -2.215,-3.99 -0.023,-0.029 -0.042,-0.053 -0.065,-0.082 -0.423,-0.468 -1.27,-1.274 -2.593,-1.793 -1.229,-0.481 -2.313,-0.495 -2.917,-0.459 -29.77,1.431 -59.541,2.862 -89.312,4.293 -0.51,0.024 -0.927,-0.401 -0.893,-0.911 -0.324,-4.67 -0.376,-10.088 0.16,-16.078 0.377,-4.214 0.988,-8.073 1.704,-11.529 0.266,1.163 0.531,2.325 0.797,3.487 0.095,0.418 0.487,0.701 0.914,0.659 l 2.241,-0.217 c 0.428,-0.041 0.758,-0.394 0.771,-0.823 l 0.331,-10.799 c 0.005,-0.17 -0.041,-0.338 -0.131,-0.482 l -20.581,-32.644 c -0.156,-0.248 -0.429,-0.399 -0.722,-0.399 l -2.298,0 c -0.469,0 -0.85,0.378 -0.854,0.846 l -0.112,12.141 c 0,0.099 0.016,0.198 0.049,0.292 l 0.487,1.378 c 0.113,0.321 0.406,0.544 0.746,0.568 l 2.4,0.165 c 0.327,0.023 0.613,0.231 0.734,0.535 0.909,1.652 1.841,3.554 2.707,5.699 0.919,2.275 1.596,4.407 2.101,6.319 0.015,0.039 0.031,0.086 0.043,0.141 0.01,0.048 0.016,0.097 0.017,0.147 0.424,3.283 0.786,6.671 1.071,10.162 0.895,10.979 0.889,21.216 0.341,30.546 0.002,0.058 0.007,0.357 -0.225,0.608 -0.147,0.16 -0.354,0.264 -0.588,0.275 l -107.446,5.141 c -0.322,0.016 -0.593,-0.244 -0.598,-0.566 -0.139,-8.942 0.345,-15.401 1.098,-20.153 0.299,-1.885 1.349,-8.509 2.721,-8.504 0.815,0.003 0.958,2.212 1.369,4.502 0.051,0.286 0.31,0.488 0.6,0.474 l 2.705,-0.132 c 0.417,-0.049 0.736,-0.394 0.753,-0.813 l 0.438,-10.515 c 0.009,-0.211 -0.06,-0.417 -0.194,-0.58 l -26.381,-31.941 c -0.18,-0.217 -0.455,-0.332 -0.736,-0.306 l -2.752,0.25 c -0.439,0.04 -0.776,0.409 -0.776,0.85 l 0,11.451 c 0,0.121 0.026,0.24 0.075,0.35 l 0.783,1.74 c 0.138,0.307 0.443,0.504 0.779,0.504 l 3.103,0 c 0.342,0 0.65,0.203 0.785,0.516 1.466,1.742 3.286,4.276 4.789,7.629 1.703,3.801 2.364,7.238 2.636,9.659 0.018,0.042 0.037,0.094 0.05,0.157 0.012,0.053 0.018,0.108 0.019,0.163 l 0.703,34.799 c 0.01,0.461 -0.35,0.847 -0.811,0.87 l -108.719,5.364 c -0.235,0.012 -2.777,0.652 -4.152,2.017 -1.811,1.797 -2.002,4.797 -2.008,5.054 C 3.049,-122.407 1.524,-61.204 0,0"
             style="fill:#67462f;fill-opacity:1;fill-rule:nonzero;stroke:none"
             id="path3372"
             inkscape:connector-curvature="0" /></g><g
           id="g3374"
           transform="translate(684.0364,1172.3102)"><path
             d="M 0,0 323.882,-9.096 321.608,-192.462 4.668,-177.501 0,0 Z"
             style="fill:#b1845c;fill-opacity:1;fill-rule:nonzero;stroke:none"
             id="path3376"
             inkscape:connector-curvature="0" /></g><g
           id="g3378"
           transform="translate(686.0785,878.6351)"><path
             d="m 0,0 0,2.211 -1.263,0.947 0,4.264 18.792,26.215 4.738,1.263 243.038,-14.055 0.789,0.79 10.897,-0.79 2.527,-5.053 -1.106,-3.474 -0.316,-6.159 -10.264,-21.793 -3.79,-1.106 L 1.263,-1.263 0,0 Z"
             style="fill:#67462f;fill-opacity:1;fill-rule:nonzero;stroke:none"
             id="path3380"
             inkscape:connector-curvature="0" /></g><g
           id="g3382"
           transform="translate(857.1516,1930.0647)"><path
             d="m 0,0 2.567,0 c 0.184,0 0.332,-0.149 0.332,-0.332 l 0,-8.282 c 0,-0.183 -0.148,-0.332 -0.332,-0.332 l -0.951,0 c -0.184,0 -0.333,-0.149 -0.333,-0.332 l 0,-5.049 c 0,-0.183 0.149,-0.332 0.333,-0.332 l 0.951,0 c 0.184,0 0.332,-0.149 0.332,-0.333 l 0,-4.221 c 0,-0.184 -0.148,-0.333 -0.332,-0.333 l -0.951,0 c -0.184,0 -0.333,-0.148 -0.333,-0.332 l 0,-3.62 c 0,-0.184 0.149,-0.333 0.333,-0.333 l 0.951,0 c 0.184,0 0.332,-0.148 0.332,-0.332 l 0,-29.248 c 0,-0.074 -0.024,-0.146 -0.07,-0.204 L 2.047,-54.62 c -0.111,-0.143 -0.316,-0.171 -0.461,-0.062 l -0.942,0.706 0,-4.886 0.99,0.742 c 0.124,0.093 0.297,0.088 0.415,-0.014 l 0.734,-0.629 c 0.074,-0.063 0.116,-0.155 0.116,-0.252 l 0,-61.835 c 0,-0.184 -0.148,-0.333 -0.332,-0.333 l -3.32,0 c -0.183,0 -0.332,0.149 -0.332,0.333 l 0,6.508 -0.902,0.075 0,26.28 c 0,0.184 0.149,0.332 0.332,0.332 l 2.493,0 c 0.184,0 0.332,0.149 0.332,0.333 l 0,5.199 c 0,0.183 -0.148,0.332 -0.332,0.332 l -2.493,0 c -0.183,0 -0.332,0.149 -0.332,0.333 l 0,48.575 c 0,0.183 0.149,0.332 0.332,0.332 l 1.064,0 c 0.184,0 0.333,0.149 0.332,0.333 L -0.332,-0.333 C -0.333,-0.149 -0.184,0 0,0"
             style="fill:#b1845c;fill-opacity:1;fill-rule:nonzero;stroke:none"
             id="path3384"
             inkscape:connector-curvature="0" /></g><g
           id="g3386"
           transform="translate(859.3195,1799.1403)"><path
             d="M 0,0 -3.225,0.816 C -3.725,0.943 -4.21,0.565 -4.21,0.049 l 0,-40.951 c 0,-0.508 0.472,-0.884 0.967,-0.771 l 3.225,0.735 c 0.36,0.082 0.615,0.402 0.615,0.771 l 0,39.4 C 0.597,-0.405 0.351,-0.089 0,0"
             style="fill:#b1845c;fill-opacity:1;fill-rule:nonzero;stroke:none"
             id="path3388"
             inkscape:connector-curvature="0" /></g><g
           id="g3390"
           transform="translate(860.051,1943.0988)"><path
             d="m 0,0 0,-2.106 c 0,-0.428 -0.347,-0.775 -0.776,-0.775 l -0.559,0 0,-0.697 -0.662,-0.453 -1.08,0 0,4.031 c 0,0.428 0.348,0.776 0.776,0.776 l 1.525,0 C -0.347,0.776 0,0.428 0,0"
             style="fill:#b1845c;fill-opacity:1;fill-rule:nonzero;stroke:none"
             id="path3392"
             inkscape:connector-curvature="0" /></g><g
           id="g3394"
           transform="translate(849.2563,1878.3713)"><path
             d="m 0,0 0,-3.194 -5.206,0 0,-1.405 -4.982,0 0,2.81 2.395,0 0,-0.511 c 0.908,-0.135 2.711,-0.276 4.759,0.48 1.413,0.521 2.42,1.276 3.034,1.82"
             style="fill:#b1845c;fill-opacity:1;fill-rule:nonzero;stroke:none"
             id="path3396"
             inkscape:connector-curvature="0" /></g><path
           d="m 866.887,1954.06 77.763,0 0,-196.264 -77.763,0 0,196.264 z"
           style="fill:#b1845c;fill-opacity:1;fill-rule:nonzero;stroke:none"
           id="path3398"
           inkscape:connector-curvature="0" /><g
           id="g3400"
           transform="translate(779.5455,1993.5081)"><path
             d="m 0,0 18.111,0 28.51,-51.267 0,-164.029 -28.978,-51.146 -17.643,0 L 0,0 Z"
             style="fill:#b1845c;fill-opacity:1;fill-rule:nonzero;stroke:none"
             id="path3402"
             inkscape:connector-curvature="0" /></g><g
           id="g3404"
           transform="translate(551.1727,827.1955)"><path
             d="M 0,0 592.274,0"
             style="fill:none;stroke:#67462f;stroke-width:5;stroke-linecap:butt;stroke-linejoin:miter;stroke-miterlimit:10;stroke-dasharray:none;stroke-opacity:1"
             id="path3406"
             inkscape:connector-curvature="0" /></g><g
           id="g3408"
           transform="translate(811.0536,1095.3638)"><path
             d="m 0,0 c -12.607,6.239 -23.752,0.146 -26.306,-13.455 -0.441,-2.346 0.593,-6.414 -2.436,-6.508 -3.023,-0.094 -4.253,3.714 -5.078,6.613 -2.312,8.12 -0.125,15.27 5.668,21.035 6.6,6.569 14.556,9.657 23.971,6.829 2.123,-0.638 4.137,-1.642 7.65,-3.064 -5.883,7.438 -12.029,11.552 -20.314,11.032 -9.365,-0.587 -16.724,-4.784 -20.796,-13.685 -1.991,-4.352 -2.206,-8.986 -2.272,-13.674 -0.036,-2.557 0.598,-5.183 -0.721,-8.401 -5.305,3.299 -7.75,8.119 -8.547,13.694 -3.651,25.525 18.43,44.203 43.115,36.577 11.739,-3.626 20.17,-11.285 25.214,-22.272 7.005,-15.257 11.478,-31.485 17.192,-47.241 1.842,-5.078 3.557,-10.204 5.505,-15.241 1.211,-3.132 3.458,-3.808 5.163,-0.651 7.494,13.873 14.746,27.876 22.403,42.437 -4.398,0.09 -8.084,-0.279 -10.599,2.878 -0.703,0.883 -1.496,1.979 -0.825,3.003 0.372,0.567 1.585,0.708 2.446,0.807 2.358,0.271 4.862,-0.286 7.185,1.406 -3.084,1.895 -8.798,2.792 -7.018,7.116 1.866,4.533 6.269,-2.279 9.926,0.453 -0.804,2.377 -4.135,3.906 -3.776,7.136 0.121,1.093 -0.097,2.42 1.112,2.934 0.974,0.414 1.688,-0.523 2.313,-1.164 2.422,-2.485 5.286,-2.116 8.337,-1.604 5.546,0.929 11.324,-0.209 16.784,1.957 1.007,0.399 2.56,-0.253 3.739,-0.724 0.77,-0.307 1.663,-1.059 1.888,-1.798 0.344,-1.134 -0.851,-1.462 -1.703,-1.79 C 91.506,11.657 87.508,5.272 83.911,-1.646 69.984,-28.431 55.951,-55.162 41.902,-81.884 c -0.799,-1.521 -1.112,-4.141 -3.329,-3.847 -1.68,0.223 -1.811,2.628 -2.391,4.155 -6.949,18.287 -13.874,36.582 -20.756,54.894 -1.471,3.912 -3.515,7.375 -6.709,10.135 -8.183,7.074 -17.473,4.806 -21.569,-5.21 -0.653,-1.597 -0.325,-4.508 -2.476,-4.441 -2.619,0.082 -2.953,3.049 -3.457,5.139 -2.209,9.16 3.238,17.761 12.497,19.894 C -4.49,-0.751 -2.657,-0.487 0,0"
             style="fill:#67462f;fill-opacity:1;fill-rule:nonzero;stroke:none"
             id="path3410"
             inkscape:connector-curvature="0" /></g><g
           id="g3412"
           transform="translate(559.6339,1587.7305)"><path
             d="M 0,0 585.287,0"
             style="fill:none;stroke:#67462f;stroke-width:5;stroke-linecap:butt;stroke-linejoin:miter;stroke-miterlimit:10;stroke-dasharray:none;stroke-opacity:1"
             id="path3414"
             inkscape:connector-curvature="0" /></g><g
           id="g3416"
           transform="translate(800.0667,1670.2898)"><path
             d="M 0,0 -136.961,0"
             style="fill:none;stroke:#67462f;stroke-width:3;stroke-linecap:butt;stroke-linejoin:miter;stroke-miterlimit:10;stroke-dasharray:none;stroke-opacity:1"
             id="path3418"
             inkscape:connector-curvature="0" /></g><g
           id="g3420"
           transform="translate(761.4752,1954.0601)"><path
             d="M 0,0 -98.369,0"
             style="fill:none;stroke:#67462f;stroke-width:3;stroke-linecap:butt;stroke-linejoin:miter;stroke-miterlimit:10;stroke-dasharray:none;stroke-opacity:1"
             id="path3422"
             inkscape:connector-curvature="0" /></g><g
           id="g3424"
           transform="translate(761.4752,1812.9812)"><path
             d="M 0,0 -98.369,0"
             style="fill:none;stroke:#67462f;stroke-width:3;stroke-linecap:butt;stroke-linejoin:miter;stroke-miterlimit:10;stroke-dasharray:none;stroke-opacity:1"
             id="path3426"
             inkscape:connector-curvature="0" /></g><g
           id="g3428"
           transform="translate(969.615,1954.0601)"><path
             d="M 0,0 70.765,0"
             style="fill:none;stroke:#67462f;stroke-width:3;stroke-linecap:butt;stroke-linejoin:miter;stroke-miterlimit:10;stroke-dasharray:none;stroke-opacity:1"
             id="path3430"
             inkscape:connector-curvature="0" /></g><g
           id="g3432"
           transform="translate(969.615,1812.9812)"><path
             d="M 0,0 70.765,0"
             style="fill:none;stroke:#67462f;stroke-width:3;stroke-linecap:butt;stroke-linejoin:miter;stroke-miterlimit:10;stroke-dasharray:none;stroke-opacity:1"
             id="path3434"
             inkscape:connector-curvature="0" /></g><g
           id="g3436"
           transform="translate(897.1918,1670.2898)"><path
             d="M 0,0 143.188,0"
             style="fill:none;stroke:#67462f;stroke-width:3;stroke-linecap:butt;stroke-linejoin:miter;stroke-miterlimit:10;stroke-dasharray:none;stroke-opacity:1"
             id="path3438"
             inkscape:connector-curvature="0" /></g><path
           d="m 549.053,1696.197 114.053,0 0,-51.815 -114.053,0 0,51.815 z"
           style="fill:none;stroke:#67462f;stroke-width:2;stroke-linecap:butt;stroke-linejoin:miter;stroke-miterlimit:10;stroke-dasharray:none;stroke-opacity:1"
           id="path3440"
           inkscape:connector-curvature="0" /></g></g><text
       transform="matrix(1,0,0,-1,553.7969,1676.1382)"
       style="font-variant:normal;font-weight:normal;font-stretch:normal;font-size:14px;font-family:'Myriad Pro';-inkscape-font-specification:MyriadPro-Regular;writing-mode:lr-tb;fill:#67462f;fill-opacity:1;fill-rule:nonzero;stroke:none"
       id="text3442"><tspan
         x="0 7.5879998 15.302 18.577999 21.882 26.445999 30.743999 34.02"
         y="0"
         sodipodi:role="line"
         id="tspan3444">Built-in</tspan><tspan
         x="0 6.566 13.58 20.174 28.139999 35.826 42.574001 47.012001 54.908001 57.875999 63.419998 68.054001 74.802002 82.571999"
         y="16.799999"
         sodipodi:role="line"
         id="tspan3446">keyboard stand</tspan></text>
<g
       id="g3448"><g
         id="g3450"
         clip-path="url(#clipPath3452)"><path
           d="m 549.053,1838.889 114.053,0 0,-51.815 -114.053,0 0,51.815 z"
           style="fill:none;stroke:#67462f;stroke-width:2;stroke-linecap:butt;stroke-linejoin:miter;stroke-miterlimit:10;stroke-dasharray:none;stroke-opacity:1"
           id="path3456"
           inkscape:connector-curvature="0" /></g></g><text
       transform="matrix(1,0,0,-1,553.7969,1818.8296)"
       style="font-variant:normal;font-weight:normal;font-stretch:normal;font-size:14px;font-family:'Myriad Pro';-inkscape-font-specification:MyriadPro-Regular;writing-mode:lr-tb;fill:#67462f;fill-opacity:1;fill-rule:nonzero;stroke:none"
       id="text3458"><tspan
         x="0 5.9640002 13.65 21.336 24.639999 31.653999 37.198002 42.742001 45.709999 52.458 60.354 63.756001 71.470001 77.014 81.648003 88.396004 96.362 99.666"
         y="0"
         sodipodi:role="line"
         id="tspan3460">Tooless adjustable</tspan><tspan
         x="0 11.676 19.362 27.132 30.408001 34.958 42.644001 47.222 50.189999 54.824001 58.099998 61.403999"
         y="16.799999"
         sodipodi:role="line"
         id="tspan3462">monitor tilt</tspan></text>
<g
       id="g3464"><g
         id="g3466"
         clip-path="url(#clipPath3468)"><path
           d="m 549.053,1979.967 114.053,0 0,-51.815 -114.053,0 0,51.815 z"
           style="fill:none;stroke:#67462f;stroke-width:2;stroke-linecap:butt;stroke-linejoin:miter;stroke-miterlimit:10;stroke-dasharray:none;stroke-opacity:1"
           id="path3472"
           inkscape:connector-curvature="0" /></g></g><text
       transform="matrix(1,0,0,-1,553.7969,1959.9077)"
       style="font-variant:normal;font-weight:normal;font-stretch:normal;font-size:14px;font-family:'Myriad Pro';-inkscape-font-specification:MyriadPro-Regular;writing-mode:lr-tb;fill:#67462f;fill-opacity:1;fill-rule:nonzero;stroke:none"
       id="text3474"><tspan
         x="0 7.9660001 15.652 27.327999 35.293999 41.986 46.619999 49.896 57.862 61.166 68.18 71.148003 81.452003 84.727997 89.362 97.132004"
         y="0"
         sodipodi:role="line"
         id="tspan3476">Compatible with </tspan><tspan
         x="0 6.7480001 14.336 20.93 23.898001 35.574001 43.259998 51.029999 54.306 58.855999 66.542"
         y="16.799999"
         sodipodi:role="line"
         id="tspan3478">any monitor</tspan></text>
<g
       id="g3480"><g
         id="g3482"
         clip-path="url(#clipPath3484)"><path
           d="m 1040.38,1981.879 114.053,0 0,-51.815 -114.053,0 0,51.815 z"
           style="fill:none;stroke:#67462f;stroke-width:2;stroke-linecap:butt;stroke-linejoin:miter;stroke-miterlimit:10;stroke-dasharray:none;stroke-opacity:1"
           id="path3488"
           inkscape:connector-curvature="0" /><path
           d="m 1040.38,1841.754 114.053,0 0,-51.815 -114.053,0 0,51.815 z"
           style="fill:none;stroke:#67462f;stroke-width:2;stroke-linecap:butt;stroke-linejoin:miter;stroke-miterlimit:10;stroke-dasharray:none;stroke-opacity:1"
           id="path3490"
           inkscape:connector-curvature="0" /><path
           d="m 1040.38,1696.197 114.053,0 0,-51.815 -114.053,0 0,51.815 z"
           style="fill:none;stroke:#67462f;stroke-width:2;stroke-linecap:butt;stroke-linejoin:miter;stroke-miterlimit:10;stroke-dasharray:none;stroke-opacity:1"
           id="path3492"
           inkscape:connector-curvature="0" /></g></g><text
       transform="matrix(1,0,0,-1,1049.9829,1959.9077)"
       style="font-variant:normal;font-weight:normal;font-stretch:normal;font-size:14px;font-family:'Myriad Pro';-inkscape-font-specification:MyriadPro-Regular;writing-mode:lr-tb;fill:#67462f;fill-opacity:1;fill-rule:nonzero;stroke:none"
       id="text3494"><tspan
         x="0 11.34 19.025999 26.74 34.452599 39.086601 44.6306 47.598598 57.902599 61.1786 65.812599 73.582603 76.550598 83.298599 90.886597"
         y="0"
         sodipodi:role="line"
         id="tspan3496">Mounts with any</tspan><tspan
         x="0 11.676 14.952 22.722 25.997999 28.966 35.152599 42.8386 54.514599 62.480598 70.194603 74.743202 81.757202"
         y="16.799999"
         sodipodi:role="line"
         id="tspan3498">mini computer</tspan><tspan
         x="0 6.3280001 14.042 17.346001 20.65 23.618 30.365999 33.669998 41.383999 53.060001 56.335999 64.106003 67.382004 75.096001"
         y="141.078"
         sodipodi:role="line"
         id="tspan3500">Full aluminium</tspan><tspan
         x="0 6.1880002 13.874 21.643999 27.188 31.822001 36.400002 44.113998 50.568001 55.202 58.478001 66.164001"
         y="157.87801"
         sodipodi:role="line"
         id="tspan3502">construction</tspan><tspan
         x="0 8.0220003 14.77 22.736 26.040001 33.054001 36.021999 40.655998 43.931999 50.945999"
         y="283.76599"
         sodipodi:role="line"
         id="tspan3504">Cable ties</tspan><tspan
         x="0 3.276 11.046 17.318001 20.622 28.336 36.231998 43.245998"
         y="300.56601"
         sodipodi:role="line"
         id="tspan3506">included</tspan></text>
<g
       id="g3508"><g
         id="g3510"
         clip-path="url(#clipPath3512)"><path
           d="m 677.198,638.306 -126.025,0 0,126.025 126.025,0 0,-126.025 z"
           style="fill:#373535;fill-opacity:1;fill-rule:nonzero;stroke:#373535;stroke-width:3;stroke-linecap:butt;stroke-linejoin:miter;stroke-miterlimit:10;stroke-dasharray:none;stroke-opacity:1"
           id="path3516"
           inkscape:connector-curvature="0" /></g></g><text
       transform="matrix(1,0,0,-1,595.4224,693.1528)"
       style="font-variant:normal;font-weight:normal;font-stretch:normal;font-size:31.00900078px;font-family:'Myriad Pro';-inkscape-font-specification:MyriadPro-Regular;writing-mode:lr-tb;fill:#ffffff;fill-opacity:1;fill-rule:nonzero;stroke:none"
       id="text3518"><tspan
         x="0 21.365202"
         y="0"
         sodipodi:role="line"
         id="tspan3520">QR</tspan></text>
<g
       id="g3522"><g
         id="g3524"
         clip-path="url(#clipPath3526)"><path
           d="m 1198.843,1216.925 -694.692,0 0,89.912 694.692,0 0,-89.912 z"
           style="fill:#67462f;fill-opacity:1;fill-rule:nonzero;stroke:none"
           id="path3530"
           inkscape:connector-curvature="0" /></g></g><text
       transform="matrix(1,0,0,-1,899.4751,1268.9551)"
       style="font-variant:normal;font-weight:normal;font-stretch:normal;font-size:36px;font-family:'Myriad Pro';-inkscape-font-specification:MyriadPro-Regular;writing-mode:lr-tb;fill:#b1845c;fill-opacity:1;fill-rule:nonzero;stroke:none"
       id="text3532"><tspan
         x="0 23.976 32.400002 51.875999 59.507999 81.4356 89.931602 98.427597 109.4796 117.9036 137.88361 149.43961 174.24361 194.2236 212.2596"
         y="0"
         sodipodi:role="line"
         id="tspan3534">DiY All-in-One </tspan><tspan
         x="0 20.483999 40.248001 59.759998 76.716003 94.751999 106.524 120.78 129.20399 148.968 168.948 176.58 194.22 206.136 223.48801 243.468"
         y="43.200001"
         sodipodi:role="line"
         id="tspan3536">Conversion Stand</tspan></text>
<text
       transform="scale(1,-1)"
       style="font-variant:normal;font-weight:normal;font-stretch:normal;font-size:72px;line-height:125%;font-family:'Myriad Pro';-inkscape-font-specification:MyriadPro-Regular;writing-mode:lr-tb;fill:#b1845c;fill-opacity:1;fill-rule:nonzero;stroke:none"
       id="text3538"
       sodipodi:linespacing="125%"
       x="513.51569"
       y="-1235.3302"><tspan
         sodipodi:role="line"
         id="tspan3540"
         style="font-size:72px;line-height:125%"
         x="513.51569"
         y="-1235.3302">V² Stand</tspan></text>
<g
       id="g3542"
       transform="translate(20.8,0)"><g
         id="g3544"
         clip-path="url(#clipPath3546)"><g
           id="g3550"
           transform="translate(844.1624,1290.1848)"><path
             d="M 0,0 0,-56.608"
             style="fill:none;stroke:#b1845c;stroke-width:4;stroke-linecap:butt;stroke-linejoin:miter;stroke-miterlimit:10;stroke-dasharray:none;stroke-opacity:1"
             id="path3552"
             inkscape:connector-curvature="0" /></g></g></g><text
       transform="matrix(1,0,0,-1,564.1196,1549.6396)"
       style="font-variant:normal;font-weight:normal;font-stretch:normal;font-size:14px;font-family:'Myriad Pro';-inkscape-font-specification:MyriadPro-Regular;writing-mode:lr-tb;fill:#67462f;fill-opacity:1;fill-rule:nonzero;stroke:none"
       id="text3554"><tspan
         x="0 6.902 14.868 21.882 28.153999 31.43 38.751999 45.023998 51.716 56.349998 59.625999 67.311996 75.082001 341.922 353.69601 361.466 368.15799 372.79199 378.336 381.30399 384.79001 392.56 398.832 402.13599 409.85001 417.746 424.76001"
         y="0"
         sodipodi:role="line"
         id="tspan3556">SpecifcationsWhats Included</tspan><tspan
         x="-1.862 2.1140001 5.5999999 13.37 18.914 25.927999 30.841999 35.476002 38.444 41.748001 45.023998 50.568001 55.202 58.169998 65.856003 69.944 72.912003 77.461998 84.475998 90.748001 98.517998 106.288 109.564 115.836 122.584 125.888 128.856 136.752 143.76601 148.39999 155.14799 158.424 161.728 167.272 170.24001 176.98801 182.532 185.5 193.27 200.284 207.298 215.194 222.20799 230.104"
         y="35.504002"
         sodipodi:role="line"
         id="tspan3558">(Insert list of technical details as needed)</tspan><tspan
         x="-1.862 2.1140001 5.5999999 13.37 18.914 25.927999 30.841999 35.476002 38.444 41.748001 45.023998 50.568001 55.202 58.169998 65.856003 69.944 72.912003 77.461998 84.475998 90.748001 98.517998 106.288 109.564 115.836 122.584 125.888 128.856 136.752 143.76601 148.39999 155.14799 158.424 161.728 167.272 170.24001 176.98801 182.532 185.5 193.27 200.284 207.298 215.194 222.20799 230.104"
         y="52.304001"
         sodipodi:role="line"
         id="tspan3560">(Insert list of technical details as needed)</tspan><tspan
         x="-1.862 2.1140001 5.5999999 13.37 18.914 25.927999 30.841999 35.476002 38.444 41.748001 45.023998 50.568001 55.202 58.169998 65.856003 69.944 72.912003 77.461998 84.475998 90.748001 98.517998 106.288 109.564 115.836 122.584 125.888 128.856 136.752 143.76601 148.39999 155.14799 158.424 161.728 167.272 170.24001 176.98801 182.532 185.5 193.27 200.284 207.298 215.194 222.20799 230.104"
         y="69.103996"
         sodipodi:role="line"
         id="tspan3562">(Insert list of technical details as needed)</tspan><tspan
         x="-1.862 2.1140001 5.5999999 13.37 18.914 25.927999 30.841999 35.476002 38.444 41.748001 45.023998 50.568001 55.202 58.169998 65.856003 69.944 72.912003 77.461998 84.475998 90.748001 98.517998 106.288 109.564 115.836 122.584 125.888 128.856 136.752 143.76601 148.39999 155.14799 158.424 161.728 167.272 170.24001 176.98801 182.532 185.5 193.27 200.284 207.298 215.194 222.20799 230.104"
         y="102.704"
         sodipodi:role="line"
         id="tspan3564">(Insert list of technical details as needed)</tspan><tspan
         x="-1.862 2.1140001 5.5999999 13.37 18.914 25.927999 30.841999 35.476002 38.444 41.748001 45.023998 50.568001 55.202 58.169998 65.856003 69.944 72.912003 77.461998 84.475998 90.748001 98.517998 106.288 109.564 115.836 122.584 125.888 128.856 136.752 143.76601 148.39999 155.14799 158.424 161.728 167.272 170.24001 176.98801 182.532 185.5 193.27 200.284 207.298 215.194 222.20799 230.104"
         y="119.504"
         sodipodi:role="line"
         id="tspan3566">(Insert list of technical details as needed)</tspan><tspan
         x="339.58401 346.444 351.078 357.82599 365.59601 373.492 376.45999 382.84399 389.858 396.87201"
         y="35.504002"
         sodipodi:role="line"
         id="tspan3568">Stand Feet</tspan><tspan
         x="339.58401 351.008 354.284 362.05399 365.32999 369.8226 377.7886 385.47461 397.1506 405.11661 412.8306 417.38062 424.39459 428.9726 431.43661 439.2486 446.1366 453.0386 461.6066 464.57458 475.91461 483.60059 491.31461 499.02859"
         y="52.304001"
         sodipodi:role="line"
         id="tspan3570">Mini-Computer VESA Mount</tspan><tspan
         x="339.58401 350.92401 358.60999 366.38 369.65601 374.20599 381.892 386.47 388.93399 396.746 403.634 410.53601 419.104 422.07199 433.41199 441.09799 448.81201 456.526"
         y="69.103996"
         sodipodi:role="line"
         id="tspan3572">Monitor VESA Mount</tspan><tspan
         x="339.58401 347.60599 354.354 362.32001 365.62399 372.638 375.03201 381.82199 385.09799 392.112"
         y="85.903999"
         sodipodi:role="line"
         id="tspan3574">Cable Ties</tspan><tspan
         x="339.58401 350.92401 358.60999 366.38 369.65601 374.20599 381.892 386.47 389.43799 398.70599 401.98199 409.75201 417.578"
         y="102.704"
         sodipodi:role="line"
         id="tspan3576">Monitor Hinge</tspan><tspan
         x="137.466 148.84801 155.59599 163.31 167.944 170.912 175.46201 183.14799 186.116 189.42 196.43401 203.18201 207.81461 215.58459 218.5526 230.22861 237.9146 242.3526 249.36659 252.33459 259.08261 267.04861 274.73459 282.44861 287.08261 289.5466 297.35861 301.71259 304.6806 311.42859 319.19861 327.0946 330.06259 337.7486 345.46259 350.04059 353.00861 360.97461 365.414 373.10001 380.996 388.70999 395.164 399.798 405.34201 411.026 413.99399 420.98001 427.25201 434 441.76999 444.73801 452.42401 460.138 464.716 467.68399 477.32999 484.862 487.82999 494.01941 501.70541 509.60141 516.61542 519.58337 529.88739 533.16339 537.79742 545.56738 548.5354 554.98938 562.67542 570.3894 574.96741 577.93542 585.90143 593.67139 601.35742 609.12738 616.14142"
         y="797.80402"
         sodipodi:role="line"
         id="tspan3578">Want to learn more about V² and our products? Scan our QR code with your phone </tspan><tspan
         x="137.466 142.01601 149.702 152.67 158.942 166.71201 173.726 179.998 186.564 189.532 197.218 204.93201 209.56599 212.534 220.22 227.93401 232.51199 235.48 245.644 252.658 260.62399 266.168 269.444 273.99261 281.00659 283.97461 290.24661 294.6846 301.69861 308.38919 312.93921 319.95319 327.84921 330.8172 337.56519 345.33521 353.2312 356.19919 364.09521 371.10919 376.6532 379.9292 387.6712 395.44119 402.4552 410.3512 413.31921 420.0672 427.83719 435.73318 438.7012 450.3772 458.0632 465.9592 473.67319 476.9772 483.72519 488.30319 491.27121 497.45779 505.1438 516.81982 524.78583 532.49982 537.13379 540.40979 548.17981"
         y="814.604"
         sodipodi:role="line"
         id="tspan3580">to check out our website created and designed and modular computing</tspan></text>
</g></svg>