<?xml version="1.0" encoding="UTF-8" standalone="no"?>
<!-- Created with Inkscape (http://www.inkscape.org/) -->

<svg
   xmlns:dc="http://purl.org/dc/elements/1.1/"
   xmlns:cc="http://creativecommons.org/ns#"
   xmlns:rdf="http://www.w3.org/1999/02/22-rdf-syntax-ns#"
   xmlns:svg="http://www.w3.org/2000/svg"
   xmlns="http://www.w3.org/2000/svg"
   xmlns:inkscape="http://www.inkscape.org/namespaces/inkscape"
   version="1.0"
   width="74.900002"
   height="74.900002"
   viewBox="0 0 74.9 74.9"
   id="svg3310"
   xml:space="preserve"><defs
   id="defs10" /><metadata
   id="metadata10"><rdf:RDF><cc:Work
       rdf:about=""><dc:format>image/svg+xml</dc:format><dc:type
         rdf:resource="http://purl.org/dc/dcmitype/StillImage" /><dc:title /></cc:Work></rdf:RDF></metadata>
<circle
   cx="36.972"
   cy="37.450001"
   r="28.563"
   transform="translate(0.478,-7.6294e-7)"
   id="circle"
   style="fill:#00af3f" />
<g
   id="routenum"
   style="fill:#ffffff"><path
     d="m 32.555,33.544 c -0.08802,-0.65998 -0.28602,-1.254 -0.594,-1.782 -0.28602,-0.54998 -0.66002,-1.012 -1.122,-1.386 -0.46202,-0.39598 -0.99002,-0.69298 -1.584,-0.891 -0.59401,-0.21998 -1.221,-0.32998 -1.881,-0.33 -1.166,2e-5 -2.167,0.24202 -3.003,0.726 -0.83601,0.46202 -1.529,1.089 -2.079,1.881 -0.52801,0.77002 -0.92401,1.65 -1.188,2.64 -0.24201,0.99001 -0.36301,1.991 -0.363,3.003 -6e-6,1.034 0.12099,2.046 0.363,3.036 0.26399,0.96801 0.65999,1.848 1.188,2.64 0.54999,0.77 1.243,1.397 2.079,1.881 0.83599,0.462 1.837,0.693 3.003,0.693 0.76999,3e-6 1.452,-0.121 2.046,-0.363 0.61598,-0.242 1.155,-0.572 1.617,-0.99 0.46198,-0.418 0.85798,-0.91299 1.188,-1.485 0.32998,-0.59399 0.60498,-1.232 0.825,-1.914 l 4.026,1.848 c -0.94602,2.376 -2.211,4.136 -3.795,5.28 -1.584,1.144 -3.553,1.716 -5.907,1.716 -1.892,-10e-7 -3.542,-0.33 -4.95,-0.99 -1.386,-0.66 -2.552,-1.551 -3.498,-2.673 -0.946,-1.144 -1.65,-2.464 -2.112,-3.96 -0.462,-1.496 -0.693,-3.069 -0.693,-4.719 -2e-6,-1.65 0.253,-3.223 0.759,-4.719 0.528,-1.496 1.276,-2.805 2.244,-3.927 0.96799,-1.144 2.145,-2.046 3.531,-2.706 1.386,-0.65998 2.959,-0.98998 4.719,-0.99 2.376,2.4e-5 4.4,0.61602 6.072,1.848 1.672,1.23198 2.794,3.08 3.366,5.544 l -4.257,1.089"
     inkscape:connector-curvature="0"
     id="path2985" /><path
     d="m 55.178,33.544 c -0.08802,-0.65998 -0.28602,-1.254 -0.594,-1.782 -0.28602,-0.54998 -0.66002,-1.012 -1.122,-1.386 -0.46202,-0.39598 -0.99002,-0.69298 -1.584,-0.891 -0.59401,-0.21998 -1.221,-0.32998 -1.881,-0.33 -1.166,2e-5 -2.167,0.24202 -3.003,0.726 -0.83601,0.46202 -1.529,1.089 -2.079,1.881 -0.52801,0.77002 -0.92401,1.65 -1.188,2.64 -0.24201,0.99001 -0.363,1.991 -0.363,3.003 -5e-6,1.034 0.12099,2.046 0.363,3.036 0.26399,0.96801 0.65999,1.848 1.188,2.64 0.54999,0.77 1.243,1.397 2.079,1.881 0.83599,0.462 1.837,0.693 3.003,0.693 0.76999,3e-6 1.452,-0.121 2.046,-0.363 0.61598,-0.242 1.155,-0.572 1.617,-0.99 0.46198,-0.418 0.85798,-0.91299 1.188,-1.485 0.32998,-0.59399 0.60498,-1.232 0.825,-1.914 l 4.026,1.848 c -0.94602,2.376 -2.211,4.136 -3.795,5.28 -1.584,1.144 -3.553,1.716 -5.907,1.716 -1.892,-10e-7 -3.542,-0.33 -4.95,-0.99 -1.386,-0.66 -2.552,-1.551 -3.498,-2.673 -0.946,-1.144 -1.65,-2.464 -2.112,-3.96 -0.462,-1.496 -0.693,-3.069 -0.693,-4.719 -10e-7,-1.65 0.253,-3.223 0.759,-4.719 0.528,-1.496 1.276,-2.805 2.244,-3.927 0.968,-1.144 2.145,-2.046 3.531,-2.706 1.386,-0.65998 2.959,-0.98998 4.719,-0.99 2.376,2.4e-5 4.4,0.61602 6.072,1.848 1.672,1.23198 2.794,3.08 3.366,5.544 l -4.257,1.089"
     inkscape:connector-curvature="0"
     id="path2987" /></g>
</svg>