<?xml version="1.0" encoding="UTF-8" standalone="no"?>
<!-- Generator: Adobe Illustrator 11.0, SVG Export Plug-In  -->

<svg
   xmlns:dc="http://purl.org/dc/elements/1.1/"
   xmlns:cc="http://creativecommons.org/ns#"
   xmlns:rdf="http://www.w3.org/1999/02/22-rdf-syntax-ns#"
   xmlns:svg="http://www.w3.org/2000/svg"
   xmlns="http://www.w3.org/2000/svg"
   xmlns:sodipodi="http://sodipodi.sourceforge.net/DTD/sodipodi-0.dtd"
   xmlns:inkscape="http://www.inkscape.org/namespaces/inkscape"
   viewBox="-13.280273 -21.778809 1000 853.26501"
   xml:space="preserve"
   version="1.1"
   id="svg25475"
   sodipodi:docname="Open Source.svg"
   inkscape:version="0.92.3 (2405546, 2018-03-11)"><metadata
   id="metadata25479"><rdf:RDF><cc:Work
       rdf:about=""><dc:format>image/svg+xml</dc:format><dc:type
         rdf:resource="http://purl.org/dc/dcmitype/StillImage" /><dc:title></dc:title></cc:Work></rdf:RDF></metadata><sodipodi:namedview
   pagecolor="#ffffff"
   bordercolor="#666666"
   borderopacity="1"
   objecttolerance="10"
   gridtolerance="10"
   guidetolerance="10"
   inkscape:pageopacity="0"
   inkscape:pageshadow="2"
   inkscape:window-width="1360"
   inkscape:window-height="706"
   id="namedview25477"
   showgrid="false"
   inkscape:zoom="0.45559846"
   inkscape:cx="753.23538"
   inkscape:cy="381.07766"
   inkscape:window-x="-8"
   inkscape:window-y="-8"
   inkscape:window-maximized="1"
   inkscape:current-layer="svg25475" />
	<defs
   id="defs25445">
	
		
		
		
		
		
		
		
		
		
		
		
		
		
	</defs>
	<path
   style="fill:#40aa54;stroke:#20552a;stroke-width:18.96394539;stroke-linejoin:round"
   inkscape:connector-curvature="0"
   id="path25447"
   d="m 480.83795,-12.296445 c -169.45695,0 -306.82888,137.371945 -306.82888,306.830725 0,131.53091 82.78762,243.69226 199.08441,287.32045 L 443.80083,393.3005 c -39.97616,-14.99521 -68.43501,-53.55275 -68.43501,-98.76622 0,-58.25116 47.22281,-105.47398 105.47213,-105.47398 58.25118,0 105.47584,47.22282 105.47584,105.47398 0,45.21347 -28.46075,83.77101 -68.43686,98.76622 l 70.70734,188.55423 C 704.87919,538.22654 787.66869,426.06519 787.66869,294.53428 787.66869,125.0755 650.2986,-12.296445 480.83795,-12.296445 Z" /><path
   inkscape:connector-curvature="0"
   id="path25453"
   d="m 55.756637,733.04407 c 0,12.52656 -10.228307,23.00858 -23.012301,23.00858 -13.039567,0 -23.0141582,-10.48202 -23.0141582,-23.00858 v -33.23879 c 0,-12.52656 10.2283082,-23.0123 23.0141582,-23.0123 12.783994,0 23.012301,10.48574 23.012301,23.0123 z m 23.012306,0 v -33.23879 c 0,-25.82727 -18.154646,-43.46889 -46.024607,-43.46889 -27.869965,0 -46.024609,17.38978 -46.024609,43.46889 v 33.23879 c 0,26.0791 18.1546436,43.46521 46.024609,43.46521 27.869961,0 46.024607,-17.38611 46.024607,-43.46521 z"
   style="stroke-width:3.79278922" /><path
   inkscape:connector-curvature="0"
   id="path25455"
   d="m 160.58615,730.48466 c 0,12.53027 -9.97089,23.01601 -23.0123,23.01601 -12.784,0 -23.01046,-10.48574 -23.01046,-23.01601 v -28.11997 c 0,-12.53399 10.22646,-23.01973 23.01046,-23.01973 13.04141,0 23.0123,10.48574 23.0123,23.01973 z m 23.0123,0 v -28.11997 c 0,-25.82355 -18.40836,-43.47261 -44.23377,-43.47261 -15.08412,0 -22.24375,8.44116 -25.56614,8.44116 -1.02413,0 -1.79269,-1.02599 -1.79269,-2.81497 v -3.0631 c 0,-1.78898 -0.7667,-2.56309 -2.55568,-2.56309 H 94.108629 c -1.788983,0 -2.557542,0.77411 -2.557542,2.56309 v 167.46792 c 0,1.7927 0.768559,2.56309 2.557542,2.56309 h 17.897221 c 1.79269,0 2.55754,-0.77039 2.55754,-2.56309 v -60.59573 c 0,-1.7927 0.76671,-2.81125 2.04455,-2.81125 2.30197,0 9.97274,8.43748 24.80129,8.43748 23.78086,0 42.18922,-18.40838 42.18922,-43.46893 z"
   style="stroke-width:3.79278922" /><path
   inkscape:connector-curvature="0"
   id="path25457"
   d="m 259.28201,702.36469 h -40.90768 c -2.30197,0 -2.55939,-1.02599 -2.55939,-3.84096 0,-11.24501 10.73945,-21.73075 23.01601,-21.73075 12.01543,0 23.01045,10.23018 23.01045,21.21964 0,3.07052 -0.25374,4.35207 -2.55939,4.35207 z M 284.85,717.69882 v -17.89354 c 0,-23.26414 -20.45476,-43.46889 -46.01905,-43.46889 -25.56985,0 -46.02646,20.20475 -46.02646,43.46889 v 33.23879 c 0,26.0791 18.15464,43.46521 46.02646,43.46521 13.5507,0 24.28829,-3.58168 31.95906,-10.73761 7.66892,-7.15961 10.73945,-13.80811 10.73945,-15.59709 0,-0.76671 -0.51114,-1.27787 -1.53527,-1.78898 l -16.11009,-8.18192 c -0.50558,-0.25563 -1.02228,-0.51112 -1.53156,-0.51112 -1.53527,0 -3.83724,4.08909 -9.46346,10.7413 -2.81311,3.31869 -7.92263,5.61879 -14.05813,5.61879 -13.04142,0 -23.01601,-10.48202 -23.01601,-23.00858 v -10.22646 c 0,-1.78898 0.76856,-2.55941 2.55939,-2.55941 h 63.92183 c 1.78899,0 2.55384,-0.77039 2.55384,-2.55938 z"
   style="stroke-width:3.79278922" /><path
   inkscape:connector-curvature="0"
   id="path25459"
   d="m 385.33854,773.95359 h -17.89537 c -1.78898,0 -2.55569,-0.76672 -2.55569,-2.5557 v -69.0332 c 0,-12.53399 -9.97459,-23.01973 -23.01415,-23.01973 -12.784,0 -23.01416,10.48574 -23.01416,23.01973 v 69.0332 c 0,1.78898 -0.76485,2.5557 -2.55384,2.5557 h -17.89907 c -1.79083,0 -2.55939,-0.76672 -2.55939,-2.5557 V 661.45517 c 0,-1.78898 0.76856,-2.56309 2.55939,-2.56309 h 15.34339 c 1.79083,0 2.55568,0.77411 2.55568,2.56309 v 3.0631 c 0,1.78898 0.76486,2.81497 1.78899,2.81497 3.32054,0 10.48202,-8.44116 25.56799,-8.44116 25.82726,0 44.23564,17.64906 44.23564,43.47261 v 69.0332 c 0,1.78898 -0.77043,2.5557 -2.55941,2.5557 z"
   style="stroke-width:3.79278922" /><path
   inkscape:connector-curvature="0"
   id="path25461"
   d="m 451.81606,688.81214 c 0,10.48202 7.92822,15.34153 25.56985,19.17506 29.40523,6.39293 45.76906,10.22646 45.76906,31.70536 0,21.73075 -15.8564,36.81672 -40.65582,36.81672 h -7.92818 c -23.77718,0 -39.37613,-14.31926 -39.37613,-22.24562 0,-0.76299 0.51669,-1.27411 1.79456,-1.78898 l 9.96901,-4.85579 c 0.51301,-0.25943 1.02045,-0.25943 1.27786,-0.25943 0.76671,0 1.28341,0.51115 2.04826,1.28154 6.64664,7.41149 11.75985,14.31926 24.28644,14.31926 h 7.92818 c 14.32112,0 23.52531,-8.18188 23.52531,-18.66761 0,-9.45975 -7.92636,-15.08597 -25.06059,-18.66394 -29.65521,-6.14106 -45.76903,-9.20419 -45.76903,-31.70904 0,-20.96408 15.59895,-35.5389 39.37613,-35.5389 h 7.92818 c 23.26972,0 39.11868,14.06739 39.11868,21.73819 0,0.76667 -0.76671,1.27411 -1.78898,1.78894 l -9.71902,4.85583 c -0.50372,0.25943 -0.763,0.25943 -1.02227,0.25943 -0.76672,0 -1.27044,-0.51483 -2.04455,-1.28526 -7.15593,-7.66705 -13.03399,-13.80071 -24.54386,-13.80071 h -7.92818 c -14.82669,0 -22.75491,6.39294 -22.75491,16.87495 z"
   style="stroke-width:3.79278922" /><path
   inkscape:connector-curvature="0"
   id="path25463"
   d="m 605.74444,734.57378 c 0,14.83409 -12.02284,27.36436 -27.35697,27.36436 -15.34157,0 -27.10881,-12.53027 -27.10881,-27.36436 v -34.51291 c 0,-15.08597 11.508,-27.10513 27.10881,-27.10513 15.33413,0 27.35697,12.53028 27.35697,27.10513 z m 17.38239,0 v -34.51291 c 0,-24.80499 -17.63799,-41.67994 -44.73936,-41.67994 -27.10881,0 -44.23936,16.3638 -44.23936,41.67994 v 34.51291 c 0,25.31982 17.13055,41.9355 44.23936,41.9355 27.10137,0 44.73936,-16.87495 44.73936,-41.9355 z"
   style="stroke-width:3.79278922" /><path
   inkscape:connector-curvature="0"
   id="path25465"
   d="m 722.85049,773.95359 h -9.45975 c -1.78898,0 -2.55938,-0.76672 -2.55938,-2.5557 v -10.99685 c 0,-1.78898 -1.01859,-2.80757 -2.04454,-2.80757 -2.30013,0 -4.85211,4.08912 -9.45607,8.69307 -5.11506,4.85208 -12.78583,7.66705 -21.22331,7.66705 -23.26789,0 -41.67994,-17.13051 -41.67994,-41.93179 V 663.496 c 0,-1.78899 0.77043,-2.5557 2.55941,-2.5557 h 12.0154 c 1.7927,0 2.5557,0.76671 2.5557,2.5557 v 68.5258 c 0,14.83037 12.02284,27.36065 27.10881,27.36065 15.84896,0 27.61257,-12.27472 27.61257,-27.36065 V 663.496 c 0,-1.78899 0.76299,-2.5557 2.55197,-2.5557 h 12.01913 c 1.78898,0 2.55569,0.76671 2.55569,2.5557 v 107.90189 c 0,1.78898 -0.76671,2.5557 -2.55569,2.5557 z"
   style="stroke-width:3.79278922" /><path
   inkscape:connector-curvature="0"
   id="path25467"
   d="m 802.87686,679.09312 c -2.04082,0 -5.36695,-0.76299 -9.71531,-0.76299 -15.5934,0 -27.10141,11.75613 -27.10141,26.8421 v 66.22566 c 0,1.78898 -0.76299,2.5557 -2.55569,2.5557 h -12.2784 c -1.78898,0 -2.55198,-0.76672 -2.55198,-2.5557 V 663.496 c 0,-1.78899 0.763,-2.5557 2.55198,-2.5557 h 9.46714 c 1.78899,0 2.5557,0.76671 2.5557,2.5557 v 12.78587 c 0,1.78898 1.02227,2.81125 2.04826,2.81125 2.80385,0 6.90037,-6.39294 16.10452,-13.80814 2.81129,-2.3001 8.1782,-4.34468 11.75988,-4.34468 h 9.46347 c 1.79266,0 2.55569,0.76671 2.55569,2.5557 v 13.04514 c 0,2.04083 -0.51487,2.55198 -2.30385,2.55198 z"
   style="stroke-width:3.79278922" /><path
   inkscape:connector-curvature="0"
   id="path25469"
   d="m 888.53317,754.01182 c 0,8.1782 -15.59712,22.49746 -39.62797,22.49746 -27.10513,0 -44.23936,-16.61568 -44.23936,-41.9355 v -34.51291 c 0,-25.31614 17.13423,-41.67994 44.23936,-41.67994 23.77529,0 39.88725,13.55626 39.88725,21.99002 0,0.763 -0.77043,1.5371 -1.78898,2.04826 l -10.7413,5.36695 c -0.51115,0.25563 -0.76671,0.25563 -1.02598,0.25563 -0.763,0 -1.27415,-0.25563 -2.04087,-1.01855 -7.67076,-7.16333 -12.78583,-14.06742 -24.29012,-14.06742 -15.60084,0 -27.10513,12.01916 -27.10513,27.10513 v 34.5129 c 0,14.83409 11.76356,27.36437 27.10513,27.36437 6.13734,0 12.271,-2.55569 16.87492,-6.90777 5.36695,-5.11135 7.66708,-8.68932 9.20051,-8.68932 0.25563,0 0.77039,0 1.28154,0.25564 l 10.7413,5.36695 c 1.27783,0.51111 1.5297,1.02598 1.5297,2.04825 z"
   style="stroke-width:3.79278922" /><path
   inkscape:connector-curvature="0"
   id="path25471"
   d="m 969.32994,703.63884 c 0,1.78898 -0.763,2.55937 -2.5557,2.55937 h -49.34327 c -1.7927,0 -2.5557,-0.77039 -2.5557,-2.55937 v -3.57797 c 0,-15.08597 11.50429,-27.10513 27.0977,-27.10513 15.34524,0 27.35697,12.53028 27.35697,27.10513 z m 17.38979,12.01912 v -15.59709 c 0,-21.99002 -19.94549,-41.67994 -44.74676,-41.67994 -13.03771,0 -23.77529,4.60395 -32.21648,13.55626 -7.66705,8.18192 -12.01545,18.66394 -12.01545,28.12368 v 34.51291 c 0,25.31982 17.13423,41.9355 44.23193,41.9355 24.03828,0 39.6354,-14.31926 39.6354,-22.49746 0,-1.02227 -0.25563,-1.53714 -1.53342,-2.04826 l -10.74501,-5.36694 c -0.50744,-0.25564 -1.01487,-0.25564 -1.27415,-0.25564 -1.53339,0 -3.83352,3.57797 -9.20787,8.68932 -4.59652,4.35207 -10.73757,6.90777 -16.87495,6.90777 -15.33781,0 -27.0977,-12.53028 -27.0977,-27.36437 v -13.80071 c 0,-1.78898 0.763,-2.55941 2.5557,-2.55941 h 66.73306 c 1.78898,0 2.5557,-0.76671 2.5557,-2.55569 z"
   style="stroke-width:3.79278922" />
</svg>